{
DisplayStrings = (
/_593
);
copyright = "Copyright Dave Gandy 2016. All rights reserved.";
customParameters = (
{
name = licenseURL;
value = "http://fontawesome.io/license/";
},
{
name = glyphOrder;
value = (
    ".notdef",
    space,
    asterisk,
    plus,
    question,
    acute,
    dieresis,
    AE,
    Oslash,
    trademark,
    registered,
    minus,
    copyright,
    glass,
    music,
    search,
    envelope,
    heart,
    star,
    "star_empty",
    user,
    film,
    "th_large",
    th,
    "th_list",
    ok,
    remove,
    "zoom_in",
    "zoom_out",
    off,
    signal,
    cog,
    trash,
    home,
    "file_alt",
    time,
    road,
    "download_alt",
    download,
    upload,
    inbox,
    "play_circle",
    repeat,
    refresh,
    "list_alt",
    lock,
    flag,
    headphones,
    "volume_off",
    "volume_down",
    "volume_up",
    qrcode,
    barcode,
    tag,
    tags,
    book,
    bookmark,
    print,
    camera,
    font,
    bold,
    italic,
    "text_height",
    "text_width",
    "align_left",
    "align_center",
    "align_right",
    "align_justify",
    list,
    "indent_left",
    "indent_right",
    "facetime_video",
    picture,
    pencil,
    "map_marker",
    adjust,
    tint,
    edit,
    share,
    check,
    move,
    "step_backward",
    "fast_backward",
    backward,
    play,
    pause,
    stop,
    forward,
    "fast_forward",
    "step_forward",
    eject,
    "chevron_left",
    "chevron_right",
    "plus_sign",
    "minus_sign",
    "remove_sign",
    "ok_sign",
    "question_sign",
    "info_sign",
    screenshot,
    "remove_circle",
    "ok_circle",
    "ban_circle",
    "arrow_left",
    "arrow_right",
    "arrow_up",
    "arrow_down",
    "share_alt",
    "resize_full",
    "resize_small",
    "exclamation_sign",
    gift,
    leaf,
    fire,
    "eye_open",
    "eye_close",
    "warning_sign",
    plane,
    calendar,
    random,
    comment,
    magnet,
    "chevron_up",
    "chevron_down",

glyphs = (
{
glyphname = .notdef;
layers = (
{
layerId = "7AA7152B-8BA7-42A8-974E-3097BEDBB58A";
name = Regular;
paths = (
{
closed = 1;
nodes = (
"224 1424 LINE",
"672 1424 LINE",
"672 112 LINE",
"224 112 LINE"
);
},
{
closed = 1;
nodes = (
"784 0 LINE",
"784 1536 LINE",
"112 1536 LINE",
"112 0 LINE"
);
}
);
width = 896;
}
);
},
{
glyphname = asterisk;
layers = (
{
layerId = "7AA7152B-8BA7-42A8-974E-3097BEDBB58A";
name = Regular;
paths = (
{
closed = 1;
nodes = (
"1216 640 LINE",
"1482 794 LINE SMOOTH",
"1543 829 OFFCURVE",
"1564 908 OFFCURVE",
"1529 969 CURVE SMOOTH",
"1465 1079 LINE SMOOTH",
"1430 1140 OFFCURVE",
"1351 1161 OFFCURVE",
"1290 1126 CURVE SMOOTH",
"1024 973 LINE",
"1024 1280 LINE SMOOTH",
"1024 1350 OFFCURVE",
"966 1408 OFFCURVE",
"896 1408 CURVE SMOOTH",
"768 1408 LINE SMOOTH",
"698 1408 OFFCURVE",
"640 1350 OFFCURVE",
"640 1280 CURVE SMOOTH",
"640 973 LINE",
"374 1126 LINE SMOOTH",
"313 1161 OFFCURVE",
"234 1140 OFFCURVE",
"199 1079 CURVE SMOOTH",
"135 969 LINE SMOOTH",
"100 908 OFFCURVE",
"121 829 OFFCURVE",
"182 794 CURVE SMOOTH",
"448 640 LINE",
"182 486 LINE SMOOTH",
"121 451 OFFCURVE",
"100 372 OFFCURVE",
"135 311 CURVE SMOOTH",
"199 201 LINE SMOOTH",
"234 140 OFFCURVE",
"313 119 OFFCURVE",
"374 154 CURVE SMOOTH",
"640 307 LINE",
"640 0 LINE SMOOTH",
"640 -70 OFFCURVE",
"698 -128 OFFCURVE",
"768 -128 CURVE SMOOTH",
"896 -128 LINE SMOOTH",
"966 -128 OFFCURVE",
"1024 -70 OFFCURVE",
"1024 0 CURVE SMOOTH",
"1024 307 LINE",
"1290 154 LINE SMOOTH",
"1351 119 OFFCURVE",
"1430 140 OFFCURVE",
"1465 201 CURVE SMOOTH",
"1529 311 LINE SMOOTH",
"1564 372 OFFCURVE",
"1543 451 OFFCURVE",
"1482 486 CURVE SMOOTH"
);
}
);
width = 1664;
}
);
unicode = F069;
},
{
glyphname = plus;
layers = (
{
layerId = "7AA7152B-8BA7-42A8-974E-3097BEDBB58A";
name = Regular;
paths = (
{
closed = 1;
nodes = (
"1408 800 LINE SMOOTH",
"1408 853 OFFCURVE",
"1365 896 OFFCURVE",
"1312 896 CURVE SMOOTH",
"896 896 LINE",
"896 1312 LINE SMOOTH",
"896 1365 OFFCURVE",
"853 1408 OFFCURVE",
"800 1408 CURVE SMOOTH",
"608 1408 LINE SMOOTH",
"555 1408 OFFCURVE",
"512 1365 OFFCURVE",
"512 1312 CURVE SMOOTH",
"512 896 LINE",
"96 896 LINE SMOOTH",
"43 896 OFFCURVE",
"0 853 OFFCURVE",
"0 800 CURVE SMOOTH",
"0 608 LINE SMOOTH",
"0 555 OFFCURVE",
"43 512 OFFCURVE",
"96 512 CURVE SMOOTH",
"512 512 LINE",
"512 96 LINE SMOOTH",
"512 43 OFFCURVE",
"555 0 OFFCURVE",
"608 0 CURVE SMOOTH",
"800 0 LINE SMOOTH",
"853 0 OFFCURVE",
"896 43 OFFCURVE",
"896 96 CURVE SMOOTH",
"896 512 LINE",
"1312 512 LINE SMOOTH",
"1365 512 OFFCURVE",
"1408 555 OFFCURVE",
"1408 608 CURVE SMOOTH"
);
}
);
width = 1408;
}
);
unicode = F067;
},
{
glyphname = question;
layers = (
{
layerId = "7AA7152B-8BA7-42A8-974E-3097BEDBB58A";
name = Regular;
paths = (
{
closed = 1;
nodes = (
"704 280 LINE SMOOTH",
"704 302 OFFCURVE",
"686 320 OFFCURVE",
"664 320 CURVE SMOOTH",
"424 320 LINE SMOOTH",
"402 320 OFFCURVE",
"384 302 OFFCURVE",
"384 280 CURVE SMOOTH",
"384 40 LINE SMOOTH",
"384 18 OFFCURVE",
"402 0 OFFCURVE",
"424 0 CURVE SMOOTH",
"664 0 LINE SMOOTH",
"686 0 OFFCURVE",
"704 18 OFFCURVE",
"704 40 CURVE SMOOTH"
);
},
{
closed = 1;
nodes = (
"1020 1109 OFFCURVE",
"780 1280 OFFCURVE",
"566 1280 CURVE SMOOTH",
"362 1280 OFFCURVE",
"210 1193 OFFCURVE",
"102 1014 CURVE SMOOTH",
"91 996 OFFCURVE",
"95 974 OFFCURVE",
"112 961 CURVE SMOOTH",
"276 836 LINE",
"284 831 OFFCURVE",
"292 828 OFFCURVE",
"301 828 CURVE SMOOTH",
"312 828 OFFCURVE",
"324 834 OFFCURVE",
"332 844 CURVE SMOOTH",
"391 918 OFFCURVE",
"415 942 OFFCURVE",
"439 959 CURVE SMOOTH",
"461 974 OFFCURVE",
"502 988 OFFCURVE",
"547 988 CURVE SMOOTH",
"628 988 OFFCURVE",
"701 938 OFFCURVE",
"701 882 CURVE SMOOTH",
"701 818 OFFCURVE",
"669 785 OFFCURVE",
"592 750 CURVE SMOOTH",
"504 710 OFFCURVE",
"384 606 OFFCURVE",
"384 485 CURVE SMOOTH",
"384 440 LINE SMOOTH",
"384 418 OFFCURVE",
"398 384 OFFCURVE",
"420 384 CURVE SMOOTH",
"660 384 LINE SMOOTH",
"683 384 OFFCURVE",
"700 410 OFFCURVE",
"700 432 CURVE",
"700 432 LINE",
"700 461 OFFCURVE",
"737 530 OFFCURVE",
"796 564 CURVE SMOOTH",
"891 617 OFFCURVE",
"1020 690 OFFCURVE",
"1020 880 CURVE SMOOTH"
);
}
);
width = 1024;
}
);
unicode = F128;
},
{
glyphname = minus;
layers = (
{
layerId = "7AA7152B-8BA7-42A8-974E-3097BEDBB58A";
name = Regular;
paths = (
{
closed = 1;
nodes = (
"1408 800 LINE SMOOTH",
"1408 853 OFFCURVE",
"1365 896 OFFCURVE",
"1312 896 CURVE SMOOTH",
"96 896 LINE SMOOTH",
"43 896 OFFCURVE",
"0 853 OFFCURVE",
"0 800 CURVE SMOOTH",
"0 608 LINE SMOOTH",
"0 555 OFFCURVE",
"43 512 OFFCURVE",
"96 512 CURVE SMOOTH",
"1312 512 LINE SMOOTH",
"1365 512 OFFCURVE",
"1408 555 OFFCURVE",
"1408 608 CURVE SMOOTH"
);
}
);
width = 1408;
}
);
unicode = F068;
},
{
glyphname = glass;
layers = (
{
layerId = "7AA7152B-8BA7-42A8-974E-3097BEDBB58A";
name = Regular;
paths = (
{
closed = 1;
nodes = (
"1699 1399 OFFCURVE",
"1637 1408 OFFCURVE",
"1600 1408 CURVE SMOOTH",
"192 1408 LINE SMOOTH",
"155 1408 OFFCURVE",
"93 1399 OFFCURVE",
"93 1350 CURVE SMOOTH",
"93 1321 OFFCURVE",
"116 1292 OFFCURVE",
"136 1272 CURVE SMOOTH",
"768 640 LINE",
"768 -128 LINE",
"448 -128 LINE SMOOTH",
"413 -128 OFFCURVE",
"384 -157 OFFCURVE",
"384 -192 CURVE SMOOTH",
"384 -227 OFFCURVE",
"413 -256 OFFCURVE",
"448 -256 CURVE SMOOTH",
"1344 -256 LINE SMOOTH",
"1379 -256 OFFCURVE",
"1408 -227 OFFCURVE",
"1408 -192 CURVE SMOOTH",
"1408 -157 OFFCURVE",
"1379 -128 OFFCURVE",
"1344 -128 CURVE SMOOTH",
"1024 -128 LINE",
"1024 640 LINE",
"1656 1272 LINE SMOOTH",
"1676 1292 OFFCURVE",
"1699 1321 OFFCURVE",
"1699 1350 CURVE SMOOTH"
);
}
);
width = 1792;
}
);
unicode = F000;
},
{
glyphname = music;
layers = (
{
layerId = "7AA7152B-8BA7-42A8-974E-3097BEDBB58A";
name = Regular;
paths = (
{
closed = 1;
nodes = (
"1536 1312 LINE SMOOTH",
"1536 1365 OFFCURVE",
"1493 1408 OFFCURVE",
"1440 1408 CURVE SMOOTH",
"1430 1408 OFFCURVE",
"1421 1407 OFFCURVE",
"1412 1404 CURVE SMOOTH",
"580 1148 LINE SMOOTH",
"540 1135 OFFCURVE",
"512 1098 OFFCURVE",
"512 1056 CURVE SMOOTH",
"512 89 LINE",
"452 116 OFFCURVE",
"386 128 OFFCURVE",
"320 128 CURVE SMOOTH",
"211 128 OFFCURVE",
"0 77 OFFCURVE",
"0 -64 CURVE SMOOTH",
"0 -205 OFFCURVE",
"211 -256 OFFCURVE",
"320 -256 CURVE SMOOTH",
"429 -256 OFFCURVE",
"640 -205 OFFCURVE",
"640 -64 CURVE SMOOTH",
"640 645 LINE",
"1408 882 LINE",
"1408 345 LINE",
"1348 372 OFFCURVE",
"1282 384 OFFCURVE",
"1216 384 CURVE SMOOTH",
"1107 384 OFFCURVE",
"896 333 OFFCURVE",
"896 192 CURVE SMOOTH",
"896 51 OFFCURVE",
"1107 0 OFFCURVE",
"1216 0 CURVE SMOOTH",
"1325 0 OFFCURVE",
"1536 51 OFFCURVE",
"1536 192 CURVE SMOOTH"
);
}
);
width = 1536;
}
);
unicode = F001;
},
{
glyphname = search;
layers = (
{
layerId = "7AA7152B-8BA7-42A8-974E-3097BEDBB58A";
name = Regular;
paths = (
{
closed = 1;
nodes = (
"1152 457 OFFCURVE",
"951 256 OFFCURVE",
"704 256 CURVE SMOOTH",
"457 256 OFFCURVE",
"256 457 OFFCURVE",
"256 704 CURVE SMOOTH",
"256 951 OFFCURVE",
"457 1152 OFFCURVE",
"704 1152 CURVE SMOOTH",
"951 1152 OFFCURVE",
"1152 951 OFFCURVE",
"1152 704 CURVE SMOOTH"
);
},
{
closed = 1;
nodes = (
"1664 -94 OFFCURVE",
"1650 -61 OFFCURVE",
"1627 -38 CURVE SMOOTH",
"1284 305 LINE",
"1365 422 OFFCURVE",
"1408 562 OFFCURVE",
"1408 704 CURVE SMOOTH",
"1408 1093 OFFCURVE",
"1093 1408 OFFCURVE",
"704 1408 CURVE SMOOTH",
"315 1408 OFFCURVE",
"0 1093 OFFCURVE",
"0 704 CURVE SMOOTH",
"0 315 OFFCURVE",
"315 0 OFFCURVE",
"704 0 CURVE SMOOTH",
"846 0 OFFCURVE",
"986 43 OFFCURVE",
"1103 124 CURVE",
"1446 -218 LINE SMOOTH",
"1469 -242 OFFCURVE",
"1502 -256 OFFCURVE",
"1536 -256 CURVE SMOOTH",
"1606 -256 OFFCURVE",
"1664 -198 OFFCURVE",
"1664 -128 CURVE SMOOTH"
);
}
);
width = 1664;
}
);
unicode = F002;
},
{
glyphname = envelope;
layers = (
{
layerId = "7AA7152B-8BA7-42A8-974E-3097BEDBB58A";
name = Regular;
paths = (
{
closed = 1;
nodes = (
"1664 15 OFFCURVE",
"1649 0 OFFCURVE",
"1632 0 CURVE SMOOTH",
"160 0 LINE SMOOTH",
"143 0 OFFCURVE",
"128 15 OFFCURVE",
"128 32 CURVE SMOOTH",
"128 800 LINE",
"149 776 OFFCURVE",
"172 754 OFFCURVE",
"197 734 CURVE SMOOTH",
"340 624 OFFCURVE",
"484 512 OFFCURVE",
"623 396 CURVE SMOOTH",
"698 333 OFFCURVE",
"791 256 OFFCURVE",
"895 256 CURVE SMOOTH",
"896 256 LINE",
"897 256 LINE SMOOTH",
"1001 256 OFFCURVE",
"1094 333 OFFCURVE",
"1169 396 CURVE SMOOTH",
"1308 512 OFFCURVE",
"1452 624 OFFCURVE",
"1595 734 CURVE SMOOTH",
"1620 754 OFFCURVE",
"1643 776 OFFCURVE",
"1664 800 CURVE",
"1664 32 LINE SMOOTH"
);
},
{
closed = 1;
nodes = (
"1664 998 OFFCURVE",
"1582 887 OFFCURVE",
"1517 836 CURVE SMOOTH",
"1383 731 OFFCURVE",
"1249 625 OFFCURVE",
"1116 519 CURVE SMOOTH",
"1063 476 OFFCURVE",
"967 384 OFFCURVE",
"897 384 CURVE SMOOTH",
"896 384 LINE",
"895 384 LINE SMOOTH",
"825 384 OFFCURVE",
"729 476 OFFCURVE",
"676 519 CURVE SMOOTH",
"543 625 OFFCURVE",
"409 731 OFFCURVE",
"275 836 CURVE SMOOTH",
"185 907 OFFCURVE",
"128 1006 OFFCURVE",
"128 1120 CURVE SMOOTH",
"128 1137 OFFCURVE",
"143 1152 OFFCURVE",
"160 1152 CURVE SMOOTH",
"1632 1152 LINE SMOOTH",
"1670 1152 OFFCURVE",
"1664 1108 OFFCURVE",
"1664 1083 CURVE SMOOTH"
);
},
{
closed = 1;
nodes = (
"1792 1120 LINE SMOOTH",
"1792 1208 OFFCURVE",
"1720 1280 OFFCURVE",
"1632 1280 CURVE SMOOTH",
"160 1280 LINE SMOOTH",
"72 1280 OFFCURVE",
"0 1208 OFFCURVE",
"0 1120 CURVE SMOOTH",
"0 32 LINE SMOOTH",
"0 -56 OFFCURVE",
"72 -128 OFFCURVE",
"160 -128 CURVE SMOOTH",
"1632 -128 LINE SMOOTH",
"1720 -128 OFFCURVE",
"1792 -56 OFFCURVE",
"1792 32 CURVE SMOOTH"
);
}
);
width = 1792;
}
);
unicode = F003;
},
{
glyphname = heart;
layers = (
{
layerId = "7AA7152B-8BA7-42A8-974E-3097BEDBB58A";
name = Regular;
paths = (
{
closed = 1;
nodes = (
"912 -128 OFFCURVE",
"928 -122 OFFCURVE",
"940 -110 CURVE SMOOTH",
"1563 490 LINE SMOOTH",
"1572 499 OFFCURVE",
"1792 700 OFFCURVE",
"1792 940 CURVE SMOOTH",
"1792 1233 OFFCURVE",
"1613 1408 OFFCURVE",
"1314 1408 CURVE SMOOTH",
"1139 1408 OFFCURVE",
"975 1270 OFFCURVE",
"896 1192 CURVE",
"817 1270 OFFCURVE",
"653 1408 OFFCURVE",
"478 1408 CURVE SMOOTH",
"179 1408 OFFCURVE",
"0 1233 OFFCURVE",
"0 940 CURVE SMOOTH",
"0 700 OFFCURVE",
"220 499 OFFCURVE",
"228 492 CURVE",
"852 -110 LINE SMOOTH",
"864 -122 OFFCURVE",
"880 -128 OFFCURVE",
"896 -128 CURVE SMOOTH"
);
}
);
width = 1792;
}
);
unicode = F004;
},
{
glyphname = star;
layers = (
{
layerId = "7AA7152B-8BA7-42A8-974E-3097BEDBB58A";
name = Regular;
paths = (
{
closed = 1;
nodes = (
"1664 919 OFFCURVE",
"1632 931 OFFCURVE",
"1608 935 CURVE SMOOTH",
"1106 1008 LINE",
"881 1463 LINE SMOOTH",
"872 1482 OFFCURVE",
"855 1504 OFFCURVE",
"832 1504 CURVE SMOOTH",
"809 1504 OFFCURVE",
"792 1482 OFFCURVE",
"783 1463 CURVE SMOOTH",
"558 1008 LINE",
"56 935 LINE SMOOTH",
"31 931 OFFCURVE",
"0 919 OFFCURVE",
"0 889 CURVE SMOOTH",
"0 871 OFFCURVE",
"13 854 OFFCURVE",
"25 841 CURVE",
"389 487 LINE",
"303 -13 LINE SMOOTH",
"302 -20 OFFCURVE",
"301 -26 OFFCURVE",
"301 -33 CURVE SMOOTH",
"301 -59 OFFCURVE",
"314 -83 OFFCURVE",
"343 -83 CURVE SMOOTH",
"357 -83 OFFCURVE",
"370 -78 OFFCURVE",
"383 -71 CURVE SMOOTH",
"832 165 LINE",
"1281 -71 LINE",
"1293 -78 OFFCURVE",
"1307 -83 OFFCURVE",
"1321 -83 CURVE SMOOTH",
"1350 -83 OFFCURVE",
"1362 -59 OFFCURVE",
"1362 -33 CURVE SMOOTH",
"1362 -26 OFFCURVE",
"1362 -20 OFFCURVE",
"1361 -13 CURVE SMOOTH",
"1275 487 LINE",
"1638 841 LINE SMOOTH",
"1651 854 OFFCURVE",
"1664 871 OFFCURVE",
"1664 889 CURVE SMOOTH"
);
}
);
width = 1664;
}
);
unicode = F005;
},
{
glyphname = star_empty;
layers = (
{
layerId = "7AA7152B-8BA7-42A8-974E-3097BEDBB58A";
name = Regular;
paths = (
{
closed = 1;
nodes = (
"1137 532 LINE",
"1209 111 LINE",
"832 310 LINE",
"454 111 LINE",
"527 532 LINE",
"221 829 LINE",
"643 891 LINE",
"832 1273 LINE",
"1021 891 LINE",
"1443 829 LINE"
);
},
{
closed = 1;
nodes = (
"1664 919 OFFCURVE",
"1632 931 OFFCURVE",
"1608 935 CURVE SMOOTH",
"1106 1008 LINE",
"881 1463 LINE SMOOTH",
"872 1482 OFFCURVE",
"855 1504 OFFCURVE",
"832 1504 CURVE SMOOTH",
"809 1504 OFFCURVE",
"792 1482 OFFCURVE",
"783 1463 CURVE SMOOTH",
"558 1008 LINE",
"56 935 LINE SMOOTH",
"31 931 OFFCURVE",
"0 919 OFFCURVE",
"0 889 CURVE SMOOTH",
"0 871 OFFCURVE",
"13 854 OFFCURVE",
"25 841 CURVE",
"389 487 LINE",
"303 -13 LINE SMOOTH",
"302 -20 OFFCURVE",
"301 -26 OFFCURVE",
"301 -33 CURVE SMOOTH",
"301 -59 OFFCURVE",
"314 -83 OFFCURVE",
"343 -83 CURVE SMOOTH",
"357 -83 OFFCURVE",
"370 -78 OFFCURVE",
"383 -71 CURVE SMOOTH",
"832 165 LINE",
"1281 -71 LINE",
"1293 -78 OFFCURVE",
"1307 -83 OFFCURVE",
"1321 -83 CURVE SMOOTH",
"1350 -83 OFFCURVE",
"1362 -60 OFFCURVE",
"1362 -33 CURVE SMOOTH",
"1362 -26 OFFCURVE",
"1362 -20 OFFCURVE",
"1361 -13 CURVE SMOOTH",
"1275 487 LINE",
"1638 841 LINE SMOOTH",
"1651 854 OFFCURVE",
"1664 871 OFFCURVE",
"1664 889 CURVE SMOOTH"
);
}
);
width = 1664;
}
);
unicode = F006;
},
{
glyphname = user;
layers = (
{
layerId = "7AA7152B-8BA7-42A8-974E-3097BEDBB58A";
name = Regular;
paths = (
{
closed = 1;
nodes = (
"1408 357 OFFCURVE",
"1355 704 OFFCURVE",
"1062 704 CURVE SMOOTH",
"1031 704 OFFCURVE",
"900 565 OFFCURVE",
"704 565 CURVE SMOOTH",
"508 565 OFFCURVE",
"377 704 OFFCURVE",
"346 704 CURVE SMOOTH",
"53 704 OFFCURVE",
"0 357 OFFCURVE",
"0 131 CURVE SMOOTH",
"0 -31 OFFCURVE",
"108 -128 OFFCURVE",
"267 -128 CURVE SMOOTH",
"1141 -128 LINE SMOOTH",
"1300 -128 OFFCURVE",
"1408 -31 OFFCURVE",
"1408 131 CURVE SMOOTH"
);
},
{
closed = 1;
nodes = (
"1088 1236 OFFCURVE",
"916 1408 OFFCURVE",
"704 1408 CURVE SMOOTH",
"492 1408 OFFCURVE",
"320 1236 OFFCURVE",
"320 1024 CURVE SMOOTH",
"320 812 OFFCURVE",
"492 640 OFFCURVE",
"704 640 CURVE SMOOTH",
"916 640 OFFCURVE",
"1088 812 OFFCURVE",
"1088 1024 CURVE SMOOTH"
);
}
);
width = 1408;
}
);
unicode = F007;
},
{
glyphname = film;
layers = (
{
layerId = "7AA7152B-8BA7-42A8-974E-3097BEDBB58A";
name = Regular;
paths = (
{
closed = 1;
nodes = (
"384 -99 OFFCURVE",
"355 -128 OFFCURVE",
"320 -128 CURVE SMOOTH",
"192 -128 LINE SMOOTH",
"157 -128 OFFCURVE",
"128 -99 OFFCURVE",
"128 -64 CURVE SMOOTH",
"128 64 LINE SMOOTH",
"128 99 OFFCURVE",
"157 128 OFFCURVE",
"192 128 CURVE SMOOTH",
"320 128 LINE SMOOTH",
"355 128 OFFCURVE",
"384 99 OFFCURVE",
"384 64 CURVE SMOOTH",
"384 -64 LINE SMOOTH"
);
},
{
closed = 1;
nodes = (
"384 285 OFFCURVE",
"355 256 OFFCURVE",
"320 256 CURVE SMOOTH",
"192 256 LINE SMOOTH",
"157 256 OFFCURVE",
"128 285 OFFCURVE",
"128 320 CURVE SMOOTH",
"128 448 LINE SMOOTH",
"128 483 OFFCURVE",
"157 512 OFFCURVE",
"192 512 CURVE SMOOTH",
"320 512 LINE SMOOTH",
"355 512 OFFCURVE",
"384 483 OFFCURVE",
"384 448 CURVE SMOOTH",
"384 320 LINE SMOOTH"
);
},
{
closed = 1;
nodes = (
"384 669 OFFCURVE",
"355 640 OFFCURVE",
"320 640 CURVE SMOOTH",
"192 640 LINE SMOOTH",
"157 640 OFFCURVE",
"128 669 OFFCURVE",
"128 704 CURVE SMOOTH",
"128 832 LINE SMOOTH",
"128 867 OFFCURVE",
"157 896 OFFCURVE",
"192 896 CURVE SMOOTH",
"320 896 LINE SMOOTH",
"355 896 OFFCURVE",
"384 867 OFFCURVE",
"384 832 CURVE SMOOTH",
"384 704 LINE SMOOTH"
);
},
{
closed = 1;
nodes = (
"1408 -99 OFFCURVE",
"1379 -128 OFFCURVE",
"1344 -128 CURVE SMOOTH",
"576 -128 LINE SMOOTH",
"541 -128 OFFCURVE",
"512 -99 OFFCURVE",
"512 -64 CURVE SMOOTH",
"512 448 LINE SMOOTH",
"512 483 OFFCURVE",
"541 512 OFFCURVE",
"576 512 CURVE SMOOTH",
"1344 512 LINE SMOOTH",
"1379 512 OFFCURVE",
"1408 483 OFFCURVE",
"1408 448 CURVE SMOOTH",
"1408 -64 LINE SMOOTH"
);
},
{
closed = 1;
nodes = (
"384 1053 OFFCURVE",
"355 1024 OFFCURVE",
"320 1024 CURVE SMOOTH",
"192 1024 LINE SMOOTH",
"157 1024 OFFCURVE",
"128 1053 OFFCURVE",
"128 1088 CURVE SMOOTH",
"128 1216 LINE SMOOTH",
"128 1251 OFFCURVE",
"157 1280 OFFCURVE",
"192 1280 CURVE SMOOTH",
"320 1280 LINE SMOOTH",
"355 1280 OFFCURVE",
"384 1251 OFFCURVE",
"384 1216 CURVE SMOOTH",
"384 1088 LINE SMOOTH"
);
},
{
closed = 1;
nodes = (
"1792 -99 OFFCURVE",
"1763 -128 OFFCURVE",
"1728 -128 CURVE SMOOTH",
"1600 -128 LINE SMOOTH",
"1565 -128 OFFCURVE",
"1536 -99 OFFCURVE",
"1536 -64 CURVE SMOOTH",
"1536 64 LINE SMOOTH",
"1536 99 OFFCURVE",
"1565 128 OFFCURVE",
"1600 128 CURVE SMOOTH",
"1728 128 LINE SMOOTH",
"1763 128 OFFCURVE",
"1792 99 OFFCURVE",
"1792 64 CURVE SMOOTH",
"1792 -64 LINE SMOOTH"
);
},
{
closed = 1;
nodes = (
"1408 669 OFFCURVE",
"1379 640 OFFCURVE",
"1344 640 CURVE SMOOTH",
"576 640 LINE SMOOTH",
"541 640 OFFCURVE",
"512 669 OFFCURVE",
"512 704 CURVE SMOOTH",
"512 1216 LINE SMOOTH",
"512 1251 OFFCURVE",
"541 1280 OFFCURVE",
"576 1280 CURVE SMOOTH",
"1344 1280 LINE SMOOTH",
"1379 1280 OFFCURVE",
"1408 1251 OFFCURVE",
"1408 1216 CURVE SMOOTH",
"1408 704 LINE SMOOTH"
);
},
{
closed = 1;
nodes = (
"1792 285 OFFCURVE",
"1763 256 OFFCURVE",
"1728 256 CURVE SMOOTH",
"1600 256 LINE SMOOTH",
"1565 256 OFFCURVE",
"1536 285 OFFCURVE",
"1536 320 CURVE SMOOTH",
"1536 448 LINE SMOOTH",
"1536 483 OFFCURVE",
"1565 512 OFFCURVE",
"1600 512 CURVE SMOOTH",
"1728 512 LINE SMOOTH",
"1763 512 OFFCURVE",
"1792 483 OFFCURVE",
"1792 448 CURVE SMOOTH",
"1792 320 LINE SMOOTH"
);
},
{
closed = 1;
nodes = (
"1792 669 OFFCURVE",
"1763 640 OFFCURVE",
"1728 640 CURVE SMOOTH",
"1600 640 LINE SMOOTH",
"1565 640 OFFCURVE",
"1536 669 OFFCURVE",
"1536 704 CURVE SMOOTH",
"1536 832 LINE SMOOTH",
"1536 867 OFFCURVE",
"1565 896 OFFCURVE",
"1600 896 CURVE SMOOTH",
"1728 896 LINE SMOOTH",
"1763 896 OFFCURVE",
"1792 867 OFFCURVE",
"1792 832 CURVE SMOOTH",
"1792 704 LINE SMOOTH"
);
},
{
closed = 1;
nodes = (
"1792 1053 OFFCURVE",
"1763 1024 OFFCURVE",
"1728 1024 CURVE SMOOTH",
"1600 1024 LINE SMOOTH",
"1565 1024 OFFCURVE",
"1536 1053 OFFCURVE",
"1536 1088 CURVE SMOOTH",
"1536 1216 LINE SMOOTH",
"1536 1251 OFFCURVE",
"1565 1280 OFFCURVE",
"1600 1280 CURVE SMOOTH",
"1728 1280 LINE SMOOTH",
"1763 1280 OFFCURVE",
"1792 1251 OFFCURVE",
"1792 1216 CURVE SMOOTH",
"1792 1088 LINE SMOOTH"
);
},
{
closed = 1;
nodes = (
"1920 1248 LINE SMOOTH",
"1920 1336 OFFCURVE",
"1848 1408 OFFCURVE",
"1760 1408 CURVE SMOOTH",
"160 1408 LINE SMOOTH",
"72 1408 OFFCURVE",
"0 1336 OFFCURVE",
"0 1248 CURVE SMOOTH",
"0 -96 LINE SMOOTH",
"0 -184 OFFCURVE",
"72 -256 OFFCURVE",
"160 -256 CURVE SMOOTH",
"1760 -256 LINE SMOOTH",
"1848 -256 OFFCURVE",
"1920 -184 OFFCURVE",
"1920 -96 CURVE SMOOTH"
);
}
);
width = 1920;
}
);
unicode = F008;
},
{
glyphname = th_large;
layers = (
{
layerId = "7AA7152B-8BA7-42A8-974E-3097BEDBB58A";
name = Regular;
paths = (
{
closed = 1;
nodes = (
"768 512 LINE SMOOTH",
"768 582 OFFCURVE",
"710 640 OFFCURVE",
"640 640 CURVE SMOOTH",
"128 640 LINE SMOOTH",
"58 640 OFFCURVE",
"0 582 OFFCURVE",
"0 512 CURVE SMOOTH",
"0 128 LINE SMOOTH",
"0 58 OFFCURVE",
"58 0 OFFCURVE",
"128 0 CURVE SMOOTH",
"640 0 LINE SMOOTH",
"710 0 OFFCURVE",
"768 58 OFFCURVE",
"768 128 CURVE SMOOTH"
);
},
{
closed = 1;
nodes = (
"768 1280 LINE SMOOTH",
"768 1350 OFFCURVE",
"710 1408 OFFCURVE",
"640 1408 CURVE SMOOTH",
"128 1408 LINE SMOOTH",
"58 1408 OFFCURVE",
"0 1350 OFFCURVE",
"0 1280 CURVE SMOOTH",
"0 896 LINE SMOOTH",
"0 826 OFFCURVE",
"58 768 OFFCURVE",
"128 768 CURVE SMOOTH",
"640 768 LINE SMOOTH",
"710 768 OFFCURVE",
"768 826 OFFCURVE",
"768 896 CURVE SMOOTH"
);
},
{
closed = 1;
nodes = (
"1664 512 LINE SMOOTH",
"1664 582 OFFCURVE",
"1606 640 OFFCURVE",
"1536 640 CURVE SMOOTH",
"1024 640 LINE SMOOTH",
"954 640 OFFCURVE",
"896 582 OFFCURVE",
"896 512 CURVE SMOOTH",
"896 128 LINE SMOOTH",
"896 58 OFFCURVE",
"954 0 OFFCURVE",
"1024 0 CURVE SMOOTH",
"1536 0 LINE SMOOTH",
"1606 0 OFFCURVE",
"1664 58 OFFCURVE",
"1664 128 CURVE SMOOTH"
);
},
{
closed = 1;
nodes = (
"1664 1280 LINE SMOOTH",
"1664 1350 OFFCURVE",
"1606 1408 OFFCURVE",
"1536 1408 CURVE SMOOTH",
"1024 1408 LINE SMOOTH",
"954 1408 OFFCURVE",
"896 1350 OFFCURVE",
"896 1280 CURVE SMOOTH",
"896 896 LINE SMOOTH",
"896 826 OFFCURVE",
"954 768 OFFCURVE",
"1024 768 CURVE SMOOTH",
"1536 768 LINE SMOOTH",
"1606 768 OFFCURVE",
"1664 826 OFFCURVE",
"1664 896 CURVE SMOOTH"
);
}
);
width = 1664;
}
);
unicode = F009;
},
{
glyphname = th;
layers = (
{
layerId = "7AA7152B-8BA7-42A8-974E-3097BEDBB58A";
name = Regular;
paths = (
{
closed = 1;
nodes = (
"512 288 LINE SMOOTH",
"512 341 OFFCURVE",
"469 384 OFFCURVE",
"416 384 CURVE SMOOTH",
"96 384 LINE SMOOTH",
"43 384 OFFCURVE",
"0 341 OFFCURVE",
"0 288 CURVE SMOOTH",
"0 96 LINE SMOOTH",
"0 43 OFFCURVE",
"43 0 OFFCURVE",
"96 0 CURVE SMOOTH",
"416 0 LINE SMOOTH",
"469 0 OFFCURVE",
"512 43 OFFCURVE",
"512 96 CURVE SMOOTH"
);
},
{
closed = 1;
nodes = (
"512 800 LINE SMOOTH",
"512 853 OFFCURVE",
"469 896 OFFCURVE",
"416 896 CURVE SMOOTH",
"96 896 LINE SMOOTH",
"43 896 OFFCURVE",
"0 853 OFFCURVE",
"0 800 CURVE SMOOTH",
"0 608 LINE SMOOTH",
"0 555 OFFCURVE",
"43 512 OFFCURVE",
"96 512 CURVE SMOOTH",
"416 512 LINE SMOOTH",
"469 512 OFFCURVE",
"512 555 OFFCURVE",
"512 608 CURVE SMOOTH"
);
},
{
closed = 1;
nodes = (
"1152 288 LINE SMOOTH",
"1152 341 OFFCURVE",
"1109 384 OFFCURVE",
"1056 384 CURVE SMOOTH",
"736 384 LINE SMOOTH",
"683 384 OFFCURVE",
"640 341 OFFCURVE",
"640 288 CURVE SMOOTH",
"640 96 LINE SMOOTH",
"640 43 OFFCURVE",
"683 0 OFFCURVE",
"736 0 CURVE SMOOTH",
"1056 0 LINE SMOOTH",
"1109 0 OFFCURVE",
"1152 43 OFFCURVE",
"1152 96 CURVE SMOOTH"
);
},
{
closed = 1;
nodes = (
"512 1312 LINE SMOOTH",
"512 1365 OFFCURVE",
"469 1408 OFFCURVE",
"416 1408 CURVE SMOOTH",
"96 1408 LINE SMOOTH",
"43 1408 OFFCURVE",
"0 1365 OFFCURVE",
"0 1312 CURVE SMOOTH",
"0 1120 LINE SMOOTH",
"0 1067 OFFCURVE",
"43 1024 OFFCURVE",
"96 1024 CURVE SMOOTH",
"416 1024 LINE SMOOTH",
"469 1024 OFFCURVE",
"512 1067 OFFCURVE",
"512 1120 CURVE SMOOTH"
);
},
{
closed = 1;
nodes = (
"1152 800 LINE SMOOTH",
"1152 853 OFFCURVE",
"1109 896 OFFCURVE",
"1056 896 CURVE SMOOTH",
"736 896 LINE SMOOTH",
"683 896 OFFCURVE",
"640 853 OFFCURVE",
"640 800 CURVE SMOOTH",
"640 608 LINE SMOOTH",
"640 555 OFFCURVE",
"683 512 OFFCURVE",
"736 512 CURVE SMOOTH",
"1056 512 LINE SMOOTH",
"1109 512 OFFCURVE",
"1152 555 OFFCURVE",
"1152 608 CURVE SMOOTH"
);
},
{
closed = 1;
nodes = (
"1792 288 LINE SMOOTH",
"1792 341 OFFCURVE",
"1749 384 OFFCURVE",
"1696 384 CURVE SMOOTH",
"1376 384 LINE SMOOTH",
"1323 384 OFFCURVE",
"1280 341 OFFCURVE",
"1280 288 CURVE SMOOTH",
"1280 96 LINE SMOOTH",
"1280 43 OFFCURVE",
"1323 0 OFFCURVE",
"1376 0 CURVE SMOOTH",
"1696 0 LINE SMOOTH",
"1749 0 OFFCURVE",
"1792 43 OFFCURVE",
"1792 96 CURVE SMOOTH"
);
},
{
closed = 1;
nodes = (
"1152 1312 LINE SMOOTH",
"1152 1365 OFFCURVE",
"1109 1408 OFFCURVE",
"1056 1408 CURVE SMOOTH",
"736 1408 LINE SMOOTH",
"683 1408 OFFCURVE",
"640 1365 OFFCURVE",
"640 1312 CURVE SMOOTH",
"640 1120 LINE SMOOTH",
"640 1067 OFFCURVE",
"683 1024 OFFCURVE",
"736 1024 CURVE SMOOTH",
"1056 1024 LINE SMOOTH",
"1109 1024 OFFCURVE",
"1152 1067 OFFCURVE",
"1152 1120 CURVE SMOOTH"
);
},
{
closed = 1;
nodes = (
"1792 800 LINE SMOOTH",
"1792 853 OFFCURVE",
"1749 896 OFFCURVE",
"1696 896 CURVE SMOOTH",
"1376 896 LINE SMOOTH",
"1323 896 OFFCURVE",
"1280 853 OFFCURVE",
"1280 800 CURVE SMOOTH",
"1280 608 LINE SMOOTH",
"1280 555 OFFCURVE",
"1323 512 OFFCURVE",
"1376 512 CURVE SMOOTH",
"1696 512 LINE SMOOTH",
"1749 512 OFFCURVE",
"1792 555 OFFCURVE",
"1792 608 CURVE SMOOTH"
);
},
{
closed = 1;
nodes = (
"1792 1312 LINE SMOOTH",
"1792 1365 OFFCURVE",
"1749 1408 OFFCURVE",
"1696 1408 CURVE SMOOTH",
"1376 1408 LINE SMOOTH",
"1323 1408 OFFCURVE",
"1280 1365 OFFCURVE",
"1280 1312 CURVE SMOOTH",
"1280 1120 LINE SMOOTH",
"1280 1067 OFFCURVE",
"1323 1024 OFFCURVE",
"1376 1024 CURVE SMOOTH",
"1696 1024 LINE SMOOTH",
"1749 1024 OFFCURVE",
"1792 1067 OFFCURVE",
"1792 1120 CURVE SMOOTH"
);
}
);
width = 1792;
}
);
unicode = F00A;
},
{
glyphname = th_list;
layers = (
{
layerId = "7AA7152B-8BA7-42A8-974E-3097BEDBB58A";
name = Regular;
paths = (
{
closed = 1;
nodes = (
"512 288 LINE SMOOTH",
"512 341 OFFCURVE",
"469 384 OFFCURVE",
"416 384 CURVE SMOOTH",
"96 384 LINE SMOOTH",
"43 384 OFFCURVE",
"0 341 OFFCURVE",
"0 288 CURVE SMOOTH",
"0 96 LINE SMOOTH",
"0 43 OFFCURVE",
"43 0 OFFCURVE",
"96 0 CURVE SMOOTH",
"416 0 LINE SMOOTH",
"469 0 OFFCURVE",
"512 43 OFFCURVE",
"512 96 CURVE SMOOTH"
);
},
{
closed = 1;
nodes = (
"512 800 LINE SMOOTH",
"512 853 OFFCURVE",
"469 896 OFFCURVE",
"416 896 CURVE SMOOTH",
"96 896 LINE SMOOTH",
"43 896 OFFCURVE",
"0 853 OFFCURVE",
"0 800 CURVE SMOOTH",
"0 608 LINE SMOOTH",
"0 555 OFFCURVE",
"43 512 OFFCURVE",
"96 512 CURVE SMOOTH",
"416 512 LINE SMOOTH",
"469 512 OFFCURVE",
"512 555 OFFCURVE",
"512 608 CURVE SMOOTH"
);
},
{
closed = 1;
nodes = (
"1792 288 LINE SMOOTH",
"1792 341 OFFCURVE",
"1749 384 OFFCURVE",
"1696 384 CURVE SMOOTH",
"736 384 LINE SMOOTH",
"683 384 OFFCURVE",
"640 341 OFFCURVE",
"640 288 CURVE SMOOTH",
"640 96 LINE SMOOTH",
"640 43 OFFCURVE",
"683 0 OFFCURVE",
"736 0 CURVE SMOOTH",
"1696 0 LINE SMOOTH",
"1749 0 OFFCURVE",
"1792 43 OFFCURVE",
"1792 96 CURVE SMOOTH"
);
},
{
closed = 1;
nodes = (
"512 1312 LINE SMOOTH",
"512 1365 OFFCURVE",
"469 1408 OFFCURVE",
"416 1408 CURVE SMOOTH",
"96 1408 LINE SMOOTH",
"43 1408 OFFCURVE",
"0 1365 OFFCURVE",
"0 1312 CURVE SMOOTH",
"0 1120 LINE SMOOTH",
"0 1067 OFFCURVE",
"43 1024 OFFCURVE",
"96 1024 CURVE SMOOTH",
"416 1024 LINE SMOOTH",
"469 1024 OFFCURVE",
"512 1067 OFFCURVE",
"512 1120 CURVE SMOOTH"
);
},
{
closed = 1;
nodes = (
"1792 800 LINE SMOOTH",
"1792 853 OFFCURVE",
"1749 896 OFFCURVE",
"1696 896 CURVE SMOOTH",
"736 896 LINE SMOOTH",
"683 896 OFFCURVE",
"640 853 OFFCURVE",
"640 800 CURVE SMOOTH",
"640 608 LINE SMOOTH",
"640 555 OFFCURVE",
"683 512 OFFCURVE",
"736 512 CURVE SMOOTH",
"1696 512 LINE SMOOTH",
"1749 512 OFFCURVE",
"1792 555 OFFCURVE",
"1792 608 CURVE SMOOTH"
);
},
{
closed = 1;
nodes = (
"1792 1312 LINE SMOOTH",
"1792 1365 OFFCURVE",
"1749 1408 OFFCURVE",
"1696 1408 CURVE SMOOTH",
"736 1408 LINE SMOOTH",
"683 1408 OFFCURVE",
"640 1365 OFFCURVE",
"640 1312 CURVE SMOOTH",
"640 1120 LINE SMOOTH",
"640 1067 OFFCURVE",
"683 1024 OFFCURVE",
"736 1024 CURVE SMOOTH",
"1696 1024 LINE SMOOTH",
"1749 1024 OFFCURVE",
"1792 1067 OFFCURVE",
"1792 1120 CURVE SMOOTH"
);
}
);
width = 1792;
}
);
unicode = F00B;
},
{
glyphname = ok;
layers = (
{
layerId = "7AA7152B-8BA7-42A8-974E-3097BEDBB58A";
name = Regular;
paths = (
{
closed = 1;
nodes = (
"1671 995 OFFCURVE",
"1661 1020 OFFCURVE",
"1643 1038 CURVE SMOOTH",
"1507 1174 LINE SMOOTH",
"1489 1192 OFFCURVE",
"1464 1202 OFFCURVE",
"1439 1202 CURVE SMOOTH",
"1414 1202 OFFCURVE",
"1389 1192 OFFCURVE",
"1371 1174 CURVE SMOOTH",
"715 517 LINE",
"421 812 LINE SMOOTH",
"403 830 OFFCURVE",
"378 840 OFFCURVE",
"353 840 CURVE SMOOTH",
"328 840 OFFCURVE",
"303 830 OFFCURVE",
"285 812 CURVE SMOOTH",
"149 676 LINE SMOOTH",
"131 658 OFFCURVE",
"121 633 OFFCURVE",
"121 608 CURVE SMOOTH",
"121 583 OFFCURVE",
"131 558 OFFCURVE",
"149 540 CURVE SMOOTH",
"511 178 LINE",
"647 42 LINE SMOOTH",
"665 24 OFFCURVE",
"690 14 OFFCURVE",
"715 14 CURVE SMOOTH",
"740 14 OFFCURVE",
"765 24 OFFCURVE",
"783 42 CURVE SMOOTH",
"919 178 LINE",
"1643 902 LINE SMOOTH",
"1661 920 OFFCURVE",
"1671 945 OFFCURVE",
"1671 970 CURVE SMOOTH"
);
}
);
width = 1792;
}
);
unicode = F00C;
},
{
glyphname = remove;
layers = (
{
layerId = "7AA7152B-8BA7-42A8-974E-3097BEDBB58A";
name = Regular;
paths = (
{
closed = 1;
nodes = (
"1298 239 OFFCURVE",
"1288 264 OFFCURVE",
"1270 282 CURVE SMOOTH",
"976 576 LINE",
"1270 870 LINE SMOOTH",
"1288 888 OFFCURVE",
"1298 913 OFFCURVE",
"1298 938 CURVE SMOOTH",
"1298 963 OFFCURVE",
"1288 988 OFFCURVE",
"1270 1006 CURVE SMOOTH",
"1134 1142 LINE SMOOTH",
"1116 1160 OFFCURVE",
"1091 1170 OFFCURVE",
"1066 1170 CURVE SMOOTH",
"1041 1170 OFFCURVE",
"1016 1160 OFFCURVE",
"998 1142 CURVE SMOOTH",
"704 848 LINE",
"410 1142 LINE SMOOTH",
"392 1160 OFFCURVE",
"367 1170 OFFCURVE",
"342 1170 CURVE SMOOTH",
"317 1170 OFFCURVE",
"292 1160 OFFCURVE",
"274 1142 CURVE SMOOTH",
"138 1006 LINE SMOOTH",
"120 988 OFFCURVE",
"110 963 OFFCURVE",
"110 938 CURVE SMOOTH",
"110 913 OFFCURVE",
"120 888 OFFCURVE",
"138 870 CURVE SMOOTH",
"432 576 LINE",
"138 282 LINE SMOOTH",
"120 264 OFFCURVE",
"110 239 OFFCURVE",
"110 214 CURVE SMOOTH",
"110 189 OFFCURVE",
"120 164 OFFCURVE",
"138 146 CURVE SMOOTH",
"274 10 LINE SMOOTH",
"292 -8 OFFCURVE",
"317 -18 OFFCURVE",
"342 -18 CURVE SMOOTH",
"367 -18 OFFCURVE",
"392 -8 OFFCURVE",
"410 10 CURVE SMOOTH",
"704 304 LINE",
"998 10 LINE SMOOTH",
"1016 -8 OFFCURVE",
"1041 -18 OFFCURVE",
"1066 -18 CURVE SMOOTH",
"1091 -18 OFFCURVE",
"1116 -8 OFFCURVE",
"1134 10 CURVE SMOOTH",
"1270 146 LINE SMOOTH",
"1288 164 OFFCURVE",
"1298 189 OFFCURVE",
"1298 214 CURVE SMOOTH"
);
}
);
width = 1408;
}
);
unicode = F00D;
},
{
glyphname = zoom_in;
layers = (
{
layerId = "7AA7152B-8BA7-42A8-974E-3097BEDBB58A";
name = Regular;
paths = (
{
closed = 1;
nodes = (
"1024 736 LINE SMOOTH",
"1024 753 OFFCURVE",
"1009 768 OFFCURVE",
"992 768 CURVE SMOOTH",
"768 768 LINE",
"768 992 LINE SMOOTH",
"768 1009 OFFCURVE",
"753 1024 OFFCURVE",
"736 1024 CURVE SMOOTH",
"672 1024 LINE SMOOTH",
"655 1024 OFFCURVE",
"640 1009 OFFCURVE",
"640 992 CURVE SMOOTH",
"640 768 LINE",
"416 768 LINE SMOOTH",
"399 768 OFFCURVE",
"384 753 OFFCURVE",
"384 736 CURVE SMOOTH",
"384 672 LINE SMOOTH",
"384 655 OFFCURVE",
"399 640 OFFCURVE",
"416 640 CURVE SMOOTH",
"640 640 LINE",
"640 416 LINE SMOOTH",
"640 399 OFFCURVE",
"655 384 OFFCURVE",
"672 384 CURVE SMOOTH",
"736 384 LINE SMOOTH",
"753 384 OFFCURVE",
"768 399 OFFCURVE",
"768 416 CURVE SMOOTH",
"768 640 LINE",
"992 640 LINE SMOOTH",
"1009 640 OFFCURVE",
"1024 655 OFFCURVE",
"1024 672 CURVE SMOOTH"
);
},
{
closed = 1;
nodes = (
"1152 457 OFFCURVE",
"951 256 OFFCURVE",
"704 256 CURVE SMOOTH",
"457 256 OFFCURVE",
"256 457 OFFCURVE",
"256 704 CURVE SMOOTH",
"256 951 OFFCURVE",
"457 1152 OFFCURVE",
"704 1152 CURVE SMOOTH",
"951 1152 OFFCURVE",
"1152 951 OFFCURVE",
"1152 704 CURVE SMOOTH"
);
},
{
closed = 1;
nodes = (
"1664 -94 OFFCURVE",
"1650 -61 OFFCURVE",
"1627 -38 CURVE SMOOTH",
"1284 305 LINE",
"1365 422 OFFCURVE",
"1408 562 OFFCURVE",
"1408 704 CURVE SMOOTH",
"1408 1093 OFFCURVE",
"1093 1408 OFFCURVE",
"704 1408 CURVE SMOOTH",
"315 1408 OFFCURVE",
"0 1093 OFFCURVE",
"0 704 CURVE SMOOTH",
"0 315 OFFCURVE",
"315 0 OFFCURVE",
"704 0 CURVE SMOOTH",
"846 0 OFFCURVE",
"986 43 OFFCURVE",
"1103 124 CURVE",
"1446 -218 LINE SMOOTH",
"1469 -242 OFFCURVE",
"1502 -256 OFFCURVE",
"1536 -256 CURVE SMOOTH",
"1607 -256 OFFCURVE",
"1664 -199 OFFCURVE",
"1664 -128 CURVE SMOOTH"
);
}
);
width = 1664;
}
);
unicode = F00E;
},
{
glyphname = zoom_out;
layers = (
{
layerId = "7AA7152B-8BA7-42A8-974E-3097BEDBB58A";
name = Regular;
paths = (
{
closed = 1;
nodes = (
"1024 736 LINE SMOOTH",
"1024 753 OFFCURVE",
"1009 768 OFFCURVE",
"992 768 CURVE SMOOTH",
"416 768 LINE SMOOTH",
"399 768 OFFCURVE",
"384 753 OFFCURVE",
"384 736 CURVE SMOOTH",
"384 672 LINE SMOOTH",
"384 655 OFFCURVE",
"399 640 OFFCURVE",
"416 640 CURVE SMOOTH",
"992 640 LINE SMOOTH",
"1009 640 OFFCURVE",
"1024 655 OFFCURVE",
"1024 672 CURVE SMOOTH"
);
},
{
closed = 1;
nodes = (
"1152 457 OFFCURVE",
"951 256 OFFCURVE",
"704 256 CURVE SMOOTH",
"457 256 OFFCURVE",
"256 457 OFFCURVE",
"256 704 CURVE SMOOTH",
"256 951 OFFCURVE",
"457 1152 OFFCURVE",
"704 1152 CURVE SMOOTH",
"951 1152 OFFCURVE",
"1152 951 OFFCURVE",
"1152 704 CURVE SMOOTH"
);
},
{
closed = 1;
nodes = (
"1664 -94 OFFCURVE",
"1650 -61 OFFCURVE",
"1627 -38 CURVE SMOOTH",
"1284 305 LINE",
"1365 422 OFFCURVE",
"1408 562 OFFCURVE",
"1408 704 CURVE SMOOTH",
"1408 1093 OFFCURVE",
"1093 1408 OFFCURVE",
"704 1408 CURVE SMOOTH",
"315 1408 OFFCURVE",
"0 1093 OFFCURVE",
"0 704 CURVE SMOOTH",
"0 315 OFFCURVE",
"315 0 OFFCURVE",
"704 0 CURVE SMOOTH",
"846 0 OFFCURVE",
"986 43 OFFCURVE",
"1103 124 CURVE",
"1446 -218 LINE SMOOTH",
"1469 -242 OFFCURVE",
"1502 -256 OFFCURVE",
"1536 -256 CURVE SMOOTH",
"1607 -256 OFFCURVE",
"1664 -199 OFFCURVE",
"1664 -128 CURVE SMOOTH"
);
}
);
width = 1664;
}
);
unicode = F010;
},
{
glyphname = off;
layers = (
{
layerId = "7AA7152B-8BA7-42A8-974E-3097BEDBB58A";
name = Regular;
paths = (
{
closed = 1;
nodes = (
"1536 883 OFFCURVE",
"1424 1107 OFFCURVE",
"1229 1253 CURVE SMOOTH",
"1173 1296 OFFCURVE",
"1092 1285 OFFCURVE",
"1050 1228 CURVE SMOOTH",
"1007 1172 OFFCURVE",
"1019 1091 OFFCURVE",
"1075 1049 CURVE SMOOTH",
"1205 951 OFFCURVE",
"1280 802 OFFCURVE",
"1280 640 CURVE SMOOTH",
"1280 358 OFFCURVE",
"1050 128 OFFCURVE",
"768 128 CURVE SMOOTH",
"486 128 OFFCURVE",
"256 358 OFFCURVE",
"256 640 CURVE SMOOTH",
"256 802 OFFCURVE",
"331 951 OFFCURVE",
"461 1049 CURVE SMOOTH",
"517 1091 OFFCURVE",
"529 1172 OFFCURVE",
"486 1228 CURVE SMOOTH",
"444 1285 OFFCURVE",
"364 1296 OFFCURVE",
"307 1253 CURVE SMOOTH",
"112 1107 OFFCURVE",
"0 883 OFFCURVE",
"0 640 CURVE SMOOTH",
"0 217 OFFCURVE",
"345 -128 OFFCURVE",
"768 -128 CURVE SMOOTH",
"1191 -128 OFFCURVE",
"1536 217 OFFCURVE",
"1536 640 CURVE SMOOTH"
);
},
{
closed = 1;
nodes = (
"896 1408 LINE SMOOTH",
"896 1478 OFFCURVE",
"838 1536 OFFCURVE",
"768 1536 CURVE SMOOTH",
"698 1536 OFFCURVE",
"640 1478 OFFCURVE",
"640 1408 CURVE SMOOTH",
"640 768 LINE SMOOTH",
"640 698 OFFCURVE",
"698 640 OFFCURVE",
"768 640 CURVE SMOOTH",
"838 640 OFFCURVE",
"896 698 OFFCURVE",
"896 768 CURVE SMOOTH"
);
}
);
width = 1536;
}
);
unicode = F011;
},
{
glyphname = signal;
layers = (
{
layerId = "7AA7152B-8BA7-42A8-974E-3097BEDBB58A";
name = Regular;
paths = (
{
closed = 1;
nodes = (
"256 96 LINE SMOOTH",
"256 114 OFFCURVE",
"242 128 OFFCURVE",
"224 128 CURVE SMOOTH",
"32 128 LINE SMOOTH",
"14 128 OFFCURVE",
"0 114 OFFCURVE",
"0 96 CURVE SMOOTH",
"0 -96 LINE SMOOTH",
"0 -114 OFFCURVE",
"14 -128 OFFCURVE",
"32 -128 CURVE SMOOTH",
"224 -128 LINE SMOOTH",
"242 -128 OFFCURVE",
"256 -114 OFFCURVE",
"256 -96 CURVE SMOOTH"
);
},
{
closed = 1;
nodes = (
"640 224 LINE SMOOTH",
"640 242 OFFCURVE",
"626 256 OFFCURVE",
"608 256 CURVE SMOOTH",
"416 256 LINE SMOOTH",
"398 256 OFFCURVE",
"384 242 OFFCURVE",
"384 224 CURVE SMOOTH",
"384 -96 LINE SMOOTH",
"384 -114 OFFCURVE",
"398 -128 OFFCURVE",
"416 -128 CURVE SMOOTH",
"608 -128 LINE SMOOTH",
"626 -128 OFFCURVE",
"640 -114 OFFCURVE",
"640 -96 CURVE SMOOTH"
);
},
{
closed = 1;
nodes = (
"1024 480 LINE SMOOTH",
"1024 498 OFFCURVE",
"1010 512 OFFCURVE",
"992 512 CURVE SMOOTH",
"800 512 LINE SMOOTH",
"782 512 OFFCURVE",
"768 498 OFFCURVE",
"768 480 CURVE SMOOTH",
"768 -96 LINE SMOOTH",
"768 -114 OFFCURVE",
"782 -128 OFFCURVE",
"800 -128 CURVE SMOOTH",
"992 -128 LINE SMOOTH",
"1010 -128 OFFCURVE",
"1024 -114 OFFCURVE",
"1024 -96 CURVE SMOOTH"
);
},
{
closed = 1;
nodes = (
"1408 864 LINE SMOOTH",
"1408 882 OFFCURVE",
"1394 896 OFFCURVE",
"1376 896 CURVE SMOOTH",
"1184 896 LINE SMOOTH",
"1166 896 OFFCURVE",
"1152 882 OFFCURVE",
"1152 864 CURVE SMOOTH",
"1152 -96 LINE SMOOTH",
"1152 -114 OFFCURVE",
"1166 -128 OFFCURVE",
"1184 -128 CURVE SMOOTH",
"1376 -128 LINE SMOOTH",
"1394 -128 OFFCURVE",
"1408 -114 OFFCURVE",
"1408 -96 CURVE SMOOTH"
);
},
{
closed = 1;
nodes = (
"1792 1376 LINE SMOOTH",
"1792 1394 OFFCURVE",
"1778 1408 OFFCURVE",
"1760 1408 CURVE SMOOTH",
"1568 1408 LINE SMOOTH",
"1550 1408 OFFCURVE",
"1536 1394 OFFCURVE",
"1536 1376 CURVE SMOOTH",
"1536 -96 LINE SMOOTH",
"1536 -114 OFFCURVE",
"1550 -128 OFFCURVE",
"1568 -128 CURVE SMOOTH",
"1760 -128 LINE SMOOTH",
"1778 -128 OFFCURVE",
"1792 -114 OFFCURVE",
"1792 -96 CURVE SMOOTH"
);
}
);
width = 1792;
}
);
unicode = F012;
},
{
glyphname = cog;
layers = (
{
layerId = "7AA7152B-8BA7-42A8-974E-3097BEDBB58A";
name = Regular;
paths = (
{
closed = 1;
nodes = (
"1024 499 OFFCURVE",
"909 384 OFFCURVE",
"768 384 CURVE SMOOTH",
"627 384 OFFCURVE",
"512 499 OFFCURVE",
"512 640 CURVE SMOOTH",
"512 781 OFFCURVE",
"627 896 OFFCURVE",
"768 896 CURVE SMOOTH",
"909 896 OFFCURVE",
"1024 781 OFFCURVE",
"1024 640 CURVE SMOOTH"
);
},
{
closed = 1;
nodes = (
"1536 749 LINE SMOOTH",
"1536 766 OFFCURVE",
"1524 782 OFFCURVE",
"1507 785 CURVE SMOOTH",
"1324 813 LINE",
"1314 846 OFFCURVE",
"1300 879 OFFCURVE",
"1283 911 CURVE",
"1317 958 OFFCURVE",
"1354 1002 OFFCURVE",
"1388 1048 CURVE SMOOTH",
"1393 1055 OFFCURVE",
"1396 1062 OFFCURVE",
"1396 1071 CURVE SMOOTH",
"1396 1079 OFFCURVE",
"1394 1087 OFFCURVE",
"1389 1093 CURVE",
"1347 1152 OFFCURVE",
"1277 1214 OFFCURVE",
"1224 1263 CURVE",
"1217 1269 OFFCURVE",
"1208 1273 OFFCURVE",
"1199 1273 CURVE SMOOTH",
"1190 1273 OFFCURVE",
"1181 1270 OFFCURVE",
"1175 1264 CURVE",
"1033 1157 LINE",
"1004 1172 OFFCURVE",
"974 1184 OFFCURVE",
"943 1194 CURVE",
"915 1378 LINE SMOOTH",
"913 1395 OFFCURVE",
"897 1408 OFFCURVE",
"879 1408 CURVE SMOOTH",
"657 1408 LINE SMOOTH",
"639 1408 OFFCURVE",
"625 1396 OFFCURVE",
"621 1380 CURVE SMOOTH",
"605 1320 OFFCURVE",
"599 1255 OFFCURVE",
"592 1194 CURVE",
"561 1184 OFFCURVE",
"530 1171 OFFCURVE",
"501 1156 CURVE",
"363 1263 LINE SMOOTH",
"355 1269 OFFCURVE",
"346 1273 OFFCURVE",
"337 1273 CURVE SMOOTH",
"303 1273 OFFCURVE",
"168 1127 OFFCURVE",
"144 1094 CURVE SMOOTH",
"139 1087 OFFCURVE",
"135 1080 OFFCURVE",
"135 1071 CURVE SMOOTH",
"135 1062 OFFCURVE",
"139 1054 OFFCURVE",
"145 1047 CURVE SMOOTH",
"182 1002 OFFCURVE",
"218 957 OFFCURVE",
"252 909 CURVE",
"236 879 OFFCURVE",
"223 849 OFFCURVE",
"213 817 CURVE",
"27 789 LINE",
"12 786 OFFCURVE",
"0 768 OFFCURVE",
"0 753 CURVE SMOOTH",
"0 531 LINE SMOOTH",
"0 514 OFFCURVE",
"12 498 OFFCURVE",
"29 495 CURVE SMOOTH",
"212 468 LINE",
"222 434 OFFCURVE",
"236 401 OFFCURVE",
"253 369 CURVE",
"219 322 OFFCURVE",
"182 278 OFFCURVE",
"148 232 CURVE SMOOTH",
"143 225 OFFCURVE",
"140 218 OFFCURVE",
"140 209 CURVE SMOOTH",
"140 201 OFFCURVE",
"142 193 OFFCURVE",
"147 186 CURVE SMOOTH",
"189 128 OFFCURVE",
"259 66 OFFCURVE",
"312 18 CURVE",
"319 11 OFFCURVE",
"328 7 OFFCURVE",
"337 7 CURVE SMOOTH",
"346 7 OFFCURVE",
"355 10 OFFCURVE",
"362 16 CURVE",
"503 123 LINE",
"532 108 OFFCURVE",
"562 96 OFFCURVE",
"593 86 CURVE",
"621 -98 LINE SMOOTH",
"623 -115 OFFCURVE",
"639 -128 OFFCURVE",
"657 -128 CURVE SMOOTH",
"879 -128 LINE SMOOTH",
"897 -128 OFFCURVE",
"911 -116 OFFCURVE",
"915 -100 CURVE SMOOTH",
"931 -40 OFFCURVE",
"937 25 OFFCURVE",
"944 86 CURVE",
"975 96 OFFCURVE",
"1006 109 OFFCURVE",
"1035 124 CURVE",
"1173 16 LINE",
"1181 11 OFFCURVE",
"1190 7 OFFCURVE",
"1199 7 CURVE SMOOTH",
"1233 7 OFFCURVE",
"1368 154 OFFCURVE",
"1392 186 CURVE",
"1398 193 OFFCURVE",
"1401 200 OFFCURVE",
"1401 209 CURVE SMOOTH",
"1401 218 OFFCURVE",
"1397 227 OFFCURVE",
"1391 234 CURVE SMOOTH",
"1354 279 OFFCURVE",
"1318 323 OFFCURVE",
"1284 372 CURVE",
"1300 401 OFFCURVE",
"1312 431 OFFCURVE",
"1323 463 CURVE",
"1508 491 LINE",
"1524 494 OFFCURVE",
"1536 512 OFFCURVE",
"1536 527 CURVE SMOOTH"
);
}
);
width = 1536;
}
);
unicode = F013;
},
{
glyphname = trash;
layers = (
{
layerId = "7AA7152B-8BA7-42A8-974E-3097BEDBB58A";
name = Regular;
paths = (
{
closed = 1;
nodes = (
"512 800 LINE SMOOTH",
"512 818 OFFCURVE",
"498 832 OFFCURVE",
"480 832 CURVE SMOOTH",
"416 832 LINE SMOOTH",
"398 832 OFFCURVE",
"384 818 OFFCURVE",
"384 800 CURVE SMOOTH",
"384 224 LINE SMOOTH",
"384 206 OFFCURVE",
"398 192 OFFCURVE",
"416 192 CURVE SMOOTH",
"480 192 LINE SMOOTH",
"498 192 OFFCURVE",
"512 206 OFFCURVE",
"512 224 CURVE SMOOTH"
);
},
{
closed = 1;
nodes = (
"768 800 LINE SMOOTH",
"768 818 OFFCURVE",
"754 832 OFFCURVE",
"736 832 CURVE SMOOTH",
"672 832 LINE SMOOTH",
"654 832 OFFCURVE",
"640 818 OFFCURVE",
"640 800 CURVE SMOOTH",
"640 224 LINE SMOOTH",
"640 206 OFFCURVE",
"654 192 OFFCURVE",
"672 192 CURVE SMOOTH",
"736 192 LINE SMOOTH",
"754 192 OFFCURVE",
"768 206 OFFCURVE",
"768 224 CURVE SMOOTH"
);
},
{
closed = 1;
nodes = (
"1024 800 LINE SMOOTH",
"1024 818 OFFCURVE",
"1010 832 OFFCURVE",
"992 832 CURVE SMOOTH",
"928 832 LINE SMOOTH",
"910 832 OFFCURVE",
"896 818 OFFCURVE",
"896 800 CURVE SMOOTH",
"896 224 LINE SMOOTH",
"896 206 OFFCURVE",
"910 192 OFFCURVE",
"928 192 CURVE SMOOTH",
"992 192 LINE SMOOTH",
"1010 192 OFFCURVE",
"1024 206 OFFCURVE",
"1024 224 CURVE SMOOTH"
);
},
{
closed = 1;
nodes = (
"1152 28 OFFCURVE",
"1125 0 OFFCURVE",
"1120 0 CURVE SMOOTH",
"288 0 LINE SMOOTH",
"283 0 OFFCURVE",
"256 28 OFFCURVE",
"256 76 CURVE SMOOTH",
"256 1024 LINE",
"1152 1024 LINE",
"1152 76 LINE SMOOTH"
);
},
{
closed = 1;
nodes = (
"480 1152 LINE",
"529 1269 LINE",
"532 1273 OFFCURVE",
"540 1279 OFFCURVE",
"546 1280 CURVE",
"863 1280 LINE",
"868 1279 OFFCURVE",
"877 1273 OFFCURVE",
"880 1269 CURVE",
"928 1152 LINE"
);
},
{
closed = 1;
nodes = (
"1408 1120 LINE SMOOTH",
"1408 1138 OFFCURVE",
"1394 1152 OFFCURVE",
"1376 1152 CURVE SMOOTH",
"1067 1152 LINE",
"997 1319 LINE SMOOTH",
"977 1368 OFFCURVE",
"917 1408 OFFCURVE",
"864 1408 CURVE SMOOTH",
"544 1408 LINE SMOOTH",
"491 1408 OFFCURVE",
"431 1368 OFFCURVE",
"411 1319 CURVE SMOOTH",
"341 1152 LINE",
"32 1152 LINE SMOOTH",
"14 1152 OFFCURVE",
"0 1138 OFFCURVE",
"0 1120 CURVE SMOOTH",
"0 1056 LINE SMOOTH",
"0 1038 OFFCURVE",
"14 1024 OFFCURVE",
"32 1024 CURVE SMOOTH",
"128 1024 LINE",
"128 72 LINE SMOOTH",
"128 -38 OFFCURVE",
"200 -128 OFFCURVE",
"288 -128 CURVE SMOOTH",
"1120 -128 LINE SMOOTH",
"1208 -128 OFFCURVE",
"1280 -34 OFFCURVE",
"1280 76 CURVE SMOOTH",
"1280 1024 LINE",
"1376 1024 LINE SMOOTH",
"1394 1024 OFFCURVE",
"1408 1038 OFFCURVE",
"1408 1056 CURVE SMOOTH"
);
}
);
width = 1408;
}
);
unicode = F014;
},
{
glyphname = home;
layers = (
{
layerId = "7AA7152B-8BA7-42A8-974E-3097BEDBB58A";
name = Regular;
paths = (
{
closed = 1;
nodes = (
"1408 544 LINE SMOOTH",
"1408 546 OFFCURVE",
"1408 548 OFFCURVE",
"1407 550 CURVE",
"832 1024 LINE",
"257 550 LINE",
"257 548 OFFCURVE",
"256 546 OFFCURVE",
"256 544 CURVE SMOOTH",
"256 64 LINE SMOOTH",
"256 29 OFFCURVE",
"285 0 OFFCURVE",
"320 0 CURVE SMOOTH",
"704 0 LINE",
"704 384 LINE",
"960 384 LINE",
"960 0 LINE",
"1344 0 LINE SMOOTH",
"1379 0 OFFCURVE",
"1408 29 OFFCURVE",
"1408 64 CURVE SMOOTH"
);
},
{
closed = 1;
nodes = (
"1642 626 OFFCURVE",
"1640 647 OFFCURVE",
"1627 658 CURVE SMOOTH",
"1408 840 LINE",
"1408 1248 LINE SMOOTH",
"1408 1266 OFFCURVE",
"1394 1280 OFFCURVE",
"1376 1280 CURVE SMOOTH",
"1184 1280 LINE SMOOTH",
"1166 1280 OFFCURVE",
"1152 1266 OFFCURVE",
"1152 1248 CURVE SMOOTH",
"1152 1053 LINE",
"908 1257 LINE SMOOTH",
"866 1292 OFFCURVE",
"798 1292 OFFCURVE",
"756 1257 CURVE SMOOTH",
"37 658 LINE SMOOTH",
"24 647 OFFCURVE",
"22 626 OFFCURVE",
"33 613 CURVE SMOOTH",
"95 539 LINE SMOOTH",
"100 533 OFFCURVE",
"108 529 OFFCURVE",
"116 528 CURVE SMOOTH",
"125 527 OFFCURVE",
"133 530 OFFCURVE",
"140 535 CURVE",
"832 1112 LINE",
"1524 535 LINE SMOOTH",
"1530 530 OFFCURVE",
"1537 528 OFFCURVE",
"1545 528 CURVE SMOOTH",
"1546 528 OFFCURVE",
"1547 528 OFFCURVE",
"1548 528 CURVE",
"1556 529 OFFCURVE",
"1564 533 OFFCURVE",
"1569 539 CURVE SMOOTH",
"1631 613 LINE SMOOTH"
);
}
);
width = 1664;
}
);
unicode = F015;
},
{
glyphname = file_alt;
layers = (
{
layerId = "7AA7152B-8BA7-42A8-974E-3097BEDBB58A";
name = Regular;
paths = (
{
closed = 1;
nodes = (
"1156 1468 LINE SMOOTH",
"1119 1505 OFFCURVE",
"1045 1536 OFFCURVE",
"992 1536 CURVE SMOOTH",
"96 1536 LINE SMOOTH",
"43 1536 OFFCURVE",
"0 1493 OFFCURVE",
"0 1440 CURVE SMOOTH",
"0 -160 LINE SMOOTH",
"0 -213 OFFCURVE",
"43 -256 OFFCURVE",
"96 -256 CURVE SMOOTH",
"1440 -256 LINE SMOOTH",
"1493 -256 OFFCURVE",
"1536 -213 OFFCURVE",
"1536 -160 CURVE SMOOTH",
"1536 992 LINE SMOOTH",
"1536 1045 OFFCURVE",
"1505 1119 OFFCURVE",
"1468 1156 CURVE SMOOTH"
);
},
{
closed = 1;
nodes = (
"1024 1400 LINE",
"1041 1394 OFFCURVE",
"1058 1385 OFFCURVE",
"1065 1378 CURVE SMOOTH",
"1378 1065 LINE SMOOTH",
"1385 1058 OFFCURVE",
"1394 1041 OFFCURVE",
"1400 1024 CURVE",
"1024 1024 LINE"
);
},
{
closed = 1;
nodes = (
"1408 -128 LINE",
"128 -128 LINE",
"128 1408 LINE",
"896 1408 LINE",
"896 992 LINE SMOOTH",
"896 939 OFFCURVE",
"939 896 OFFCURVE",
"992 896 CURVE SMOOTH",
"1408 896 LINE"
);
}
);
width = 1536;
}
);
unicode = F016;
},
{
glyphname = time;
layers = (
{
layerId = "7AA7152B-8BA7-42A8-974E-3097BEDBB58A";
name = Regular;
paths = (
{
closed = 1;
nodes = (
"896 992 LINE SMOOTH",
"896 1010 OFFCURVE",
"882 1024 OFFCURVE",
"864 1024 CURVE SMOOTH",
"800 1024 LINE SMOOTH",
"782 1024 OFFCURVE",
"768 1010 OFFCURVE",
"768 992 CURVE SMOOTH",
"768 640 LINE",
"544 640 LINE SMOOTH",
"526 640 OFFCURVE",
"512 626 OFFCURVE",
"512 608 CURVE SMOOTH",
"512 544 LINE SMOOTH",
"512 526 OFFCURVE",
"526 512 OFFCURVE",
"544 512 CURVE SMOOTH",
"864 512 LINE SMOOTH",
"882 512 OFFCURVE",
"896 526 OFFCURVE",
"896 544 CURVE SMOOTH"
);
},
{
closed = 1;
nodes = (
"1312 340 OFFCURVE",
"1068 96 OFFCURVE",
"768 96 CURVE SMOOTH",
"468 96 OFFCURVE",
"224 340 OFFCURVE",
"224 640 CURVE SMOOTH",
"224 940 OFFCURVE",
"468 1184 OFFCURVE",
"768 1184 CURVE SMOOTH",
"1068 1184 OFFCURVE",
"1312 940 OFFCURVE",
"1312 640 CURVE SMOOTH"
);
},
{
closed = 1;
nodes = (
"1536 1064 OFFCURVE",
"1192 1408 OFFCURVE",
"768 1408 CURVE SMOOTH",
"344 1408 OFFCURVE",
"0 1064 OFFCURVE",
"0 640 CURVE SMOOTH",
"0 216 OFFCURVE",
"344 -128 OFFCURVE",
"768 -128 CURVE SMOOTH",
"1192 -128 OFFCURVE",
"1536 216 OFFCURVE",
"1536 640 CURVE SMOOTH"
);
}
);
width = 1536;
}
);
unicode = F017;
},
{
glyphname = road;
layers = (
{
layerId = "7AA7152B-8BA7-42A8-974E-3097BEDBB58A";
name = Regular;
paths = (
{
closed = 1;
nodes = (
"1112 524 OFFCURVE",
"1097 512 OFFCURVE",
"1082 512 CURVE SMOOTH",
"838 512 LINE SMOOTH",
"823 512 OFFCURVE",
"808 524 OFFCURVE",
"809 540 CURVE",
"809 544 LINE",
"833 864 LINE SMOOTH",
"834 882 OFFCURVE",
"850 896 OFFCURVE",
"867 896 CURVE SMOOTH",
"1053 896 LINE SMOOTH",
"1070 896 OFFCURVE",
"1086 882 OFFCURVE",
"1087 864 CURVE SMOOTH",
"1111 544 LINE",
"1111 540 LINE"
);
},
{
closed = 1;
nodes = (
"1870 113 OFFCURVE",
"1859 153 OFFCURVE",
"1844 189 CURVE SMOOTH",
"1427 1233 LINE SMOOTH",
"1417 1258 OFFCURVE",
"1390 1280 OFFCURVE",
"1363 1280 CURVE SMOOTH",
"1024 1280 LINE",
"1041 1280 OFFCURVE",
"1057 1266 OFFCURVE",
"1058 1248 CURVE SMOOTH",
"1073 1056 LINE SMOOTH",
"1074 1038 OFFCURVE",
"1061 1024 OFFCURVE",
"1043 1024 CURVE SMOOTH",
"877 1024 LINE SMOOTH",
"859 1024 OFFCURVE",
"846 1038 OFFCURVE",
"847 1056 CURVE SMOOTH",
"862 1248 LINE SMOOTH",
"863 1266 OFFCURVE",
"879 1280 OFFCURVE",
"896 1280 CURVE",
"557 1280 LINE SMOOTH",
"530 1280 OFFCURVE",
"503 1258 OFFCURVE",
"493 1233 CURVE SMOOTH",
"76 189 LINE SMOOTH",
"61 153 OFFCURVE",
"50 113 OFFCURVE",
"50 73 CURVE SMOOTH",
"50 44 OFFCURVE",
"58 0 OFFCURVE",
"96 0 CURVE SMOOTH",
"800 0 LINE",
"783 0 OFFCURVE",
"769 14 OFFCURVE",
"770 32 CURVE SMOOTH",
"790 288 LINE SMOOTH",
"791 306 OFFCURVE",
"807 320 OFFCURVE",
"824 320 CURVE SMOOTH",
"1096 320 LINE SMOOTH",
"1113 320 OFFCURVE",
"1129 306 OFFCURVE",
"1130 288 CURVE SMOOTH",
"1150 32 LINE SMOOTH",
"1151 14 OFFCURVE",
"1137 0 OFFCURVE",
"1120 0 CURVE",
"1824 0 LINE SMOOTH",
"1862 0 OFFCURVE",
"1870 44 OFFCURVE",
"1870 73 CURVE SMOOTH"
);
}
);
width = 1920;
}
);
unicode = F018;
},
{
glyphname = download_alt;
layers = (
{
layerId = "7AA7152B-8BA7-42A8-974E-3097BEDBB58A";
name = Regular;
paths = (
{
closed = 1;
nodes = (
"1280 157 OFFCURVE",
"1251 128 OFFCURVE",
"1216 128 CURVE SMOOTH",
"1181 128 OFFCURVE",
"1152 157 OFFCURVE",
"1152 192 CURVE SMOOTH",
"1152 227 OFFCURVE",
"1181 256 OFFCURVE",
"1216 256 CURVE SMOOTH",
"1251 256 OFFCURVE",
"1280 227 OFFCURVE",
"1280 192 CURVE SMOOTH"
);
},
{
closed = 1;
nodes = (
"1536 157 OFFCURVE",
"1507 128 OFFCURVE",
"1472 128 CURVE SMOOTH",
"1437 128 OFFCURVE",
"1408 157 OFFCURVE",
"1408 192 CURVE SMOOTH",
"1408 227 OFFCURVE",
"1437 256 OFFCURVE",
"1472 256 CURVE SMOOTH",
"1507 256 OFFCURVE",
"1536 227 OFFCURVE",
"1536 192 CURVE SMOOTH"
);
},
{
closed = 1;
nodes = (
"1664 416 LINE SMOOTH",
"1664 469 OFFCURVE",
"1621 512 OFFCURVE",
"1568 512 CURVE SMOOTH",
"1104 512 LINE",
"968 376 LINE SMOOTH",
"931 340 OFFCURVE",
"883 320 OFFCURVE",
"832 320 CURVE SMOOTH",
"781 320 OFFCURVE",
"733 340 OFFCURVE",
"696 376 CURVE SMOOTH",
"561 512 LINE",
"96 512 LINE SMOOTH",
"43 512 OFFCURVE",
"0 469 OFFCURVE",
"0 416 CURVE SMOOTH",
"0 96 LINE SMOOTH",
"0 43 OFFCURVE",
"43 0 OFFCURVE",
"96 0 CURVE SMOOTH",
"1568 0 LINE SMOOTH",
"1621 0 OFFCURVE",
"1664 43 OFFCURVE",
"1664 96 CURVE SMOOTH"
);
},
{
closed = 1;
nodes = (
"1329 1008 OFFCURVE",
"1306 1024 OFFCURVE",
"1280 1024 CURVE SMOOTH",
"1024 1024 LINE",
"1024 1472 LINE SMOOTH",
"1024 1507 OFFCURVE",
"995 1536 OFFCURVE",
"960 1536 CURVE SMOOTH",
"704 1536 LINE SMOOTH",
"669 1536 OFFCURVE",
"640 1507 OFFCURVE",
"640 1472 CURVE SMOOTH",
"640 1024 LINE",
"384 1024 LINE SMOOTH",
"358 1024 OFFCURVE",
"335 1008 OFFCURVE",
"325 985 CURVE SMOOTH",
"315 961 OFFCURVE",
"320 933 OFFCURVE",
"339 915 CURVE SMOOTH",
"787 467 LINE",
"799 454 OFFCURVE",
"816 448 OFFCURVE",
"832 448 CURVE SMOOTH",
"848 448 OFFCURVE",
"865 454 OFFCURVE",
"877 467 CURVE",
"1325 915 LINE SMOOTH",
"1344 933 OFFCURVE",
"1349 961 OFFCURVE",
"1339 985 CURVE SMOOTH"
);
}
);
width = 1664;
}
);
unicode = F019;
},
{
glyphname = download;
layers = (
{
layerId = "7AA7152B-8BA7-42A8-974E-3097BEDBB58A";
name = Regular;
paths = (
{
closed = 1;
nodes = (
"1120 626 OFFCURVE",
"1106 640 OFFCURVE",
"1088 640 CURVE SMOOTH",
"1088 640 LINE",
"896 640 LINE",
"896 992 LINE SMOOTH",
"896 1010 OFFCURVE",
"882 1024 OFFCURVE",
"864 1024 CURVE SMOOTH",
"672 1024 LINE SMOOTH",
"654 1024 OFFCURVE",
"640 1010 OFFCURVE",
"640 992 CURVE SMOOTH",
"640 640 LINE",
"448 640 LINE SMOOTH",
"435 640 OFFCURVE",
"423 632 OFFCURVE",
"418 620 CURVE SMOOTH",
"413 608 OFFCURVE",
"416 595 OFFCURVE",
"425 585 CURVE",
"745 265 LINE",
"752 259 OFFCURVE",
"760 256 OFFCURVE",
"768 256 CURVE SMOOTH",
"776 256 OFFCURVE",
"784 259 OFFCURVE",
"791 265 CURVE",
"1110 584 LINE",
"1116 591 OFFCURVE",
"1120 599 OFFCURVE",
"1120 608 CURVE SMOOTH"
);
},
{
closed = 1;
nodes = (
"1068 1184 OFFCURVE",
"1312 940 OFFCURVE",
"1312 640 CURVE SMOOTH",
"1312 340 OFFCURVE",
"1068 96 OFFCURVE",
"768 96 CURVE SMOOTH",
"468 96 OFFCURVE",
"224 340 OFFCURVE",
"224 640 CURVE SMOOTH",
"224 940 OFFCURVE",
"468 1184 OFFCURVE",
"768 1184 CURVE SMOOTH"
);
},
{
closed = 1;
nodes = (
"1536 1064 OFFCURVE",
"1192 1408 OFFCURVE",
"768 1408 CURVE SMOOTH",
"768 1408 LINE SMOOTH",
"344 1408 OFFCURVE",
"0 1064 OFFCURVE",
"0 640 CURVE SMOOTH",
"0 216 OFFCURVE",
"344 -128 OFFCURVE",
"768 -128 CURVE SMOOTH",
"1192 -128 OFFCURVE",
"1536 216 OFFCURVE",
"1536 640 CURVE SMOOTH"
);
}
);
width = 1536;
}
);
unicode = F01A;
},
{
glyphname = upload;
layers = (
{
layerId = "7AA7152B-8BA7-42A8-974E-3097BEDBB58A";
name = Regular;
paths = (
{
closed = 1;
nodes = (
"1123 672 OFFCURVE",
"1120 685 OFFCURVE",
"1111 695 CURVE",
"791 1015 LINE",
"784 1021 OFFCURVE",
"776 1024 OFFCURVE",
"768 1024 CURVE SMOOTH",
"760 1024 OFFCURVE",
"752 1021 OFFCURVE",
"745 1015 CURVE",
"426 696 LINE",
"420 689 OFFCURVE",
"416 681 OFFCURVE",
"416 672 CURVE SMOOTH",
"416 654 OFFCURVE",
"430 640 OFFCURVE",
"448 640 CURVE",
"448 640 LINE",
"640 640 LINE",
"640 288 LINE SMOOTH",
"640 270 OFFCURVE",
"654 256 OFFCURVE",
"672 256 CURVE SMOOTH",
"864 256 LINE SMOOTH",
"882 256 OFFCURVE",
"896 270 OFFCURVE",
"896 288 CURVE SMOOTH",
"896 640 LINE",
"1088 640 LINE SMOOTH",
"1101 640 OFFCURVE",
"1113 648 OFFCURVE",
"1118 660 CURVE SMOOTH"
);
},
{
closed = 1;
nodes = (
"1068 1184 OFFCURVE",
"1312 940 OFFCURVE",
"1312 640 CURVE SMOOTH",
"1312 340 OFFCURVE",
"1068 96 OFFCURVE",
"768 96 CURVE SMOOTH",
"468 96 OFFCURVE",
"224 340 OFFCURVE",
"224 640 CURVE SMOOTH",
"224 940 OFFCURVE",
"468 1184 OFFCURVE",
"768 1184 CURVE SMOOTH"
);
},
{
closed = 1;
nodes = (
"1536 1064 OFFCURVE",
"1192 1408 OFFCURVE",
"768 1408 CURVE SMOOTH",
"768 1408 LINE SMOOTH",
"344 1408 OFFCURVE",
"0 1064 OFFCURVE",
"0 640 CURVE SMOOTH",
"0 216 OFFCURVE",
"344 -128 OFFCURVE",
"768 -128 CURVE SMOOTH",
"1192 -128 OFFCURVE",
"1536 216 OFFCURVE",
"1536 640 CURVE SMOOTH"
);
}
);
width = 1536;
}
);
unicode = F01B;
},
{
glyphname = inbox;
layers = (
{
layerId = "7AA7152B-8BA7-42A8-974E-3097BEDBB58A";
name = Regular;
paths = (
{
closed = 1;
nodes = (
"1023 576 LINE",
"928 384 LINE",
"608 384 LINE",
"513 576 LINE",
"197 576 LINE",
"199 581 OFFCURVE",
"200 587 OFFCURVE",
"202 592 CURVE SMOOTH",
"414 1088 LINE",
"1122 1088 LINE",
"1334 592 LINE SMOOTH",
"1336 587 OFFCURVE",
"1337 581 OFFCURVE",
"1339 576 CURVE"
);
},
{
closed = 1;
nodes = (
"1536 546 LINE SMOOTH",
"1536 582 OFFCURVE",
"1525 635 OFFCURVE",
"1511 669 CURVE SMOOTH",
"1273 1221 LINE SMOOTH",
"1259 1254 OFFCURVE",
"1219 1280 OFFCURVE",
"1184 1280 CURVE SMOOTH",
"352 1280 LINE SMOOTH",
"317 1280 OFFCURVE",
"277 1254 OFFCURVE",
"263 1221 CURVE SMOOTH",
"25 669 LINE SMOOTH",
"11 635 OFFCURVE",
"0 582 OFFCURVE",
"0 546 CURVE SMOOTH",
"0 64 LINE SMOOTH",
"0 29 OFFCURVE",
"29 0 OFFCURVE",
"64 0 CURVE SMOOTH",
"1472 0 LINE SMOOTH",
"1507 0 OFFCURVE",
"1536 29 OFFCURVE",
"1536 64 CURVE SMOOTH"
);
}
);
width = 1536;
}
);
unicode = F01C;
},
{
glyphname = play_circle;
layers = (
{
layerId = "7AA7152B-8BA7-42A8-974E-3097BEDBB58A";
name = Regular;
paths = (
{
closed = 1;
nodes = (
"1184 663 OFFCURVE",
"1172 684 OFFCURVE",
"1152 695 CURVE SMOOTH",
"608 1015 LINE SMOOTH",
"589 1027 OFFCURVE",
"564 1027 OFFCURVE",
"544 1016 CURVE",
"524 1004 OFFCURVE",
"512 983 OFFCURVE",
"512 960 CURVE SMOOTH",
"512 320 LINE SMOOTH",
"512 297 OFFCURVE",
"524 276 OFFCURVE",
"544 264 CURVE",
"554 259 OFFCURVE",
"565 256 OFFCURVE",
"576 256 CURVE SMOOTH",
"587 256 OFFCURVE",
"598 259 OFFCURVE",
"608 265 CURVE SMOOTH",
"1152 585 LINE SMOOTH",
"1172 596 OFFCURVE",
"1184 617 OFFCURVE",
"1184 640 CURVE SMOOTH"
);
},
{
closed = 1;
nodes = (
"1312 340 OFFCURVE",
"1068 96 OFFCURVE",
"768 96 CURVE SMOOTH",
"468 96 OFFCURVE",
"224 340 OFFCURVE",
"224 640 CURVE SMOOTH",
"224 940 OFFCURVE",
"468 1184 OFFCURVE",
"768 1184 CURVE SMOOTH",
"1068 1184 OFFCURVE",
"1312 940 OFFCURVE",
"1312 640 CURVE SMOOTH"
);
},
{
closed = 1;
nodes = (
"1536 1064 OFFCURVE",
"1192 1408 OFFCURVE",
"768 1408 CURVE SMOOTH",
"344 1408 OFFCURVE",
"0 1064 OFFCURVE",
"0 640 CURVE SMOOTH",
"0 216 OFFCURVE",
"344 -128 OFFCURVE",
"768 -128 CURVE SMOOTH",
"1192 -128 OFFCURVE",
"1536 216 OFFCURVE",
"1536 640 CURVE SMOOTH"
);
}
);
width = 1536;
}
);
unicode = F01D;
},
{
glyphname = repeat;
layers = (
{
layerId = "7AA7152B-8BA7-42A8-974E-3097BEDBB58A";
name = Regular;
paths = (
{
closed = 1;
nodes = (
"1536 1280 LINE SMOOTH",
"1536 1306 OFFCURVE",
"1520 1329 OFFCURVE",
"1497 1339 CURVE SMOOTH",
"1473 1349 OFFCURVE",
"1445 1344 OFFCURVE",
"1427 1325 CURVE SMOOTH",
"1297 1196 LINE",
"1156 1329 OFFCURVE",
"965 1408 OFFCURVE",
"768 1408 CURVE SMOOTH",
"345 1408 OFFCURVE",
"0 1063 OFFCURVE",
"0 640 CURVE SMOOTH",
"0 217 OFFCURVE",
"345 -128 OFFCURVE",
"768 -128 CURVE SMOOTH",
"997 -128 OFFCURVE",
"1213 -27 OFFCURVE",
"1359 149 CURVE",
"1369 162 OFFCURVE",
"1369 181 OFFCURVE",
"1357 192 CURVE",
"1220 330 LINE",
"1213 336 OFFCURVE",
"1204 339 OFFCURVE",
"1195 339 CURVE",
"1186 338 OFFCURVE",
"1177 334 OFFCURVE",
"1172 327 CURVE",
"1074 200 OFFCURVE",
"927 128 OFFCURVE",
"768 128 CURVE SMOOTH",
"486 128 OFFCURVE",
"256 358 OFFCURVE",
"256 640 CURVE SMOOTH",
"256 922 OFFCURVE",
"486 1152 OFFCURVE",
"768 1152 CURVE SMOOTH",
"899 1152 OFFCURVE",
"1023 1102 OFFCURVE",
"1117 1015 CURVE",
"979 877 LINE SMOOTH",
"960 859 OFFCURVE",
"955 831 OFFCURVE",
"965 808 CURVE SMOOTH",
"975 784 OFFCURVE",
"998 768 OFFCURVE",
"1024 768 CURVE SMOOTH",
"1472 768 LINE SMOOTH",
"1507 768 OFFCURVE",
"1536 797 OFFCURVE",
"1536 832 CURVE SMOOTH"
);
}
);
width = 1536;
}
);
unicode = F01E;
},
{
glyphname = refresh;
layers = (
{
layerId = "7AA7152B-8BA7-42A8-974E-3097BEDBB58A";
name = Regular;
paths = (
{
closed = 1;
nodes = (
"1511 497 OFFCURVE",
"1497 512 OFFCURVE",
"1479 512 CURVE SMOOTH",
"1287 512 LINE SMOOTH",
"1272 512 OFFCURVE",
"1262 503 OFFCURVE",
"1257 489 CURVE",
"1240 449 OFFCURVE",
"1228 411 OFFCURVE",
"1204 372 CURVE SMOOTH",
"1111 220 OFFCURVE",
"946 128 OFFCURVE",
"768 128 CURVE SMOOTH",
"639 128 OFFCURVE",
"514 178 OFFCURVE",
"420 266 CURVE",
"557 403 LINE SMOOTH",
"569 415 OFFCURVE",
"576 431 OFFCURVE",
"576 448 CURVE SMOOTH",
"576 483 OFFCURVE",
"547 512 OFFCURVE",
"512 512 CURVE SMOOTH",
"64 512 LINE SMOOTH",
"29 512 OFFCURVE",
"0 483 OFFCURVE",
"0 448 CURVE SMOOTH",
"0 0 LINE SMOOTH",
"0 -35 OFFCURVE",
"29 -64 OFFCURVE",
"64 -64 CURVE SMOOTH",
"81 -64 OFFCURVE",
"97 -57 OFFCURVE",
"109 -45 CURVE SMOOTH",
"238 84 LINE",
"380 -51 OFFCURVE",
"569 -128 OFFCURVE",
"764 -128 CURVE SMOOTH",
"1133 -128 OFFCURVE",
"1425 119 OFFCURVE",
"1510 473 CURVE",
"1511 475 OFFCURVE",
"1511 478 OFFCURVE",
"1511 480 CURVE SMOOTH"
);
},
{
closed = 1;
nodes = (
"1536 1280 LINE SMOOTH",
"1536 1315 OFFCURVE",
"1507 1344 OFFCURVE",
"1472 1344 CURVE SMOOTH",
"1455 1344 OFFCURVE",
"1439 1337 OFFCURVE",
"1427 1325 CURVE SMOOTH",
"1297 1196 LINE",
"1155 1330 OFFCURVE",
"964 1408 OFFCURVE",
"768 1408 CURVE SMOOTH",
"399 1408 OFFCURVE",
"104 1162 OFFCURVE",
"18 807 CURVE",
"18 805 OFFCURVE",
"18 802 OFFCURVE",
"18 800 CURVE SMOOTH",
"18 783 OFFCURVE",
"32 768 OFFCURVE",
"50 768 CURVE SMOOTH",
"249 768 LINE SMOOTH",
"264 768 OFFCURVE",
"274 777 OFFCURVE",
"279 791 CURVE",
"296 831 OFFCURVE",
"308 869 OFFCURVE",
"332 908 CURVE SMOOTH",
"425 1060 OFFCURVE",
"590 1152 OFFCURVE",
"768 1152 CURVE SMOOTH",
"897 1152 OFFCURVE",
"1022 1103 OFFCURVE",
"1117 1015 CURVE",
"979 877 LINE SMOOTH",
"967 865 OFFCURVE",
"960 849 OFFCURVE",
"960 832 CURVE SMOOTH",
"960 797 OFFCURVE",
"989 768 OFFCURVE",
"1024 768 CURVE SMOOTH",
"1472 768 LINE SMOOTH",
"1507 768 OFFCURVE",
"1536 797 OFFCURVE",
"1536 832 CURVE SMOOTH"
);
}
);
width = 1536;
}
);
unicode = F021;
},
{
glyphname = list_alt;
layers = (
{
layerId = "7AA7152B-8BA7-42A8-974E-3097BEDBB58A";
name = Regular;
paths = (
{
closed = 1;
nodes = (
"384 352 LINE SMOOTH",
"384 369 OFFCURVE",
"369 384 OFFCURVE",
"352 384 CURVE SMOOTH",
"288 384 LINE SMOOTH",
"271 384 OFFCURVE",
"256 369 OFFCURVE",
"256 352 CURVE SMOOTH",
"256 288 LINE SMOOTH",
"256 271 OFFCURVE",
"271 256 OFFCURVE",
"288 256 CURVE SMOOTH",
"352 256 LINE SMOOTH",
"369 256 OFFCURVE",
"384 271 OFFCURVE",
"384 288 CURVE SMOOTH"
);
},
{
closed = 1;
nodes = (
"384 608 LINE SMOOTH",
"384 625 OFFCURVE",
"369 640 OFFCURVE",
"352 640 CURVE SMOOTH",
"288 640 LINE SMOOTH",
"271 640 OFFCURVE",
"256 625 OFFCURVE",
"256 608 CURVE SMOOTH",
"256 544 LINE SMOOTH",
"256 527 OFFCURVE",
"271 512 OFFCURVE",
"288 512 CURVE SMOOTH",
"352 512 LINE SMOOTH",
"369 512 OFFCURVE",
"384 527 OFFCURVE",
"384 544 CURVE SMOOTH"
);
},
{
closed = 1;
nodes = (
"384 864 LINE SMOOTH",
"384 881 OFFCURVE",
"369 896 OFFCURVE",
"352 896 CURVE SMOOTH",
"288 896 LINE SMOOTH",
"271 896 OFFCURVE",
"256 881 OFFCURVE",
"256 864 CURVE SMOOTH",
"256 800 LINE SMOOTH",
"256 783 OFFCURVE",
"271 768 OFFCURVE",
"288 768 CURVE SMOOTH",
"352 768 LINE SMOOTH",
"369 768 OFFCURVE",
"384 783 OFFCURVE",
"384 800 CURVE SMOOTH"
);
},
{
closed = 1;
nodes = (
"1536 352 LINE SMOOTH",
"1536 369 OFFCURVE",
"1521 384 OFFCURVE",
"1504 384 CURVE SMOOTH",
"544 384 LINE SMOOTH",
"527 384 OFFCURVE",
"512 369 OFFCURVE",
"512 352 CURVE SMOOTH",
"512 288 LINE SMOOTH",
"512 271 OFFCURVE",
"527 256 OFFCURVE",
"544 256 CURVE SMOOTH",
"1504 256 LINE SMOOTH",
"1521 256 OFFCURVE",
"1536 271 OFFCURVE",
"1536 288 CURVE SMOOTH"
);
},
{
closed = 1;
nodes = (
"1536 608 LINE SMOOTH",
"1536 625 OFFCURVE",
"1521 640 OFFCURVE",
"1504 640 CURVE SMOOTH",
"544 640 LINE SMOOTH",
"527 640 OFFCURVE",
"512 625 OFFCURVE",
"512 608 CURVE SMOOTH",
"512 544 LINE SMOOTH",
"512 527 OFFCURVE",
"527 512 OFFCURVE",
"544 512 CURVE SMOOTH",
"1504 512 LINE SMOOTH",
"1521 512 OFFCURVE",
"1536 527 OFFCURVE",
"1536 544 CURVE SMOOTH"
);
},
{
closed = 1;
nodes = (
"1536 864 LINE SMOOTH",
"1536 881 OFFCURVE",
"1521 896 OFFCURVE",
"1504 896 CURVE SMOOTH",
"544 896 LINE SMOOTH",
"527 896 OFFCURVE",
"512 881 OFFCURVE",
"512 864 CURVE SMOOTH",
"512 800 LINE SMOOTH",
"512 783 OFFCURVE",
"527 768 OFFCURVE",
"544 768 CURVE SMOOTH",
"1504 768 LINE SMOOTH",
"1521 768 OFFCURVE",
"1536 783 OFFCURVE",
"1536 800 CURVE SMOOTH"
);
},
{
closed = 1;
nodes = (
"1664 143 OFFCURVE",
"1649 128 OFFCURVE",
"1632 128 CURVE SMOOTH",
"160 128 LINE SMOOTH",
"143 128 OFFCURVE",
"128 143 OFFCURVE",
"128 160 CURVE SMOOTH",
"128 992 LINE SMOOTH",
"128 1009 OFFCURVE",
"143 1024 OFFCURVE",
"160 1024 CURVE SMOOTH",
"1632 1024 LINE SMOOTH",
"1649 1024 OFFCURVE",
"1664 1009 OFFCURVE",
"1664 992 CURVE SMOOTH",
"1664 160 LINE SMOOTH"
);
},
{
closed = 1;
nodes = (
"1792 1248 LINE SMOOTH",
"1792 1336 OFFCURVE",
"1720 1408 OFFCURVE",
"1632 1408 CURVE SMOOTH",
"160 1408 LINE SMOOTH",
"72 1408 OFFCURVE",
"0 1336 OFFCURVE",
"0 1248 CURVE SMOOTH",
"0 160 LINE SMOOTH",
"0 72 OFFCURVE",
"72 0 OFFCURVE",
"160 0 CURVE SMOOTH",
"1632 0 LINE SMOOTH",
"1720 0 OFFCURVE",
"1792 72 OFFCURVE",
"1792 160 CURVE SMOOTH"
);
}
);
width = 1792;
}
);
unicode = F022;
},
{
glyphname = lock;
layers = (
{
layerId = "7AA7152B-8BA7-42A8-974E-3097BEDBB58A";
name = Regular;
paths = (
{
closed = 1;
nodes = (
"320 768 LINE",
"320 960 LINE SMOOTH",
"320 1101 OFFCURVE",
"435 1216 OFFCURVE",
"576 1216 CURVE SMOOTH",
"717 1216 OFFCURVE",
"832 1101 OFFCURVE",
"832 960 CURVE SMOOTH",
"832 768 LINE"
);
},
{
closed = 1;
nodes = (
"1152 672 LINE SMOOTH",
"1152 725 OFFCURVE",
"1109 768 OFFCURVE",
"1056 768 CURVE SMOOTH",
"1024 768 LINE",
"1024 960 LINE SMOOTH",
"1024 1206 OFFCURVE",
"822 1408 OFFCURVE",
"576 1408 CURVE SMOOTH",
"330 1408 OFFCURVE",
"128 1206 OFFCURVE",
"128 960 CURVE SMOOTH",
"128 768 LINE",
"96 768 LINE SMOOTH",
"43 768 OFFCURVE",
"0 725 OFFCURVE",
"0 672 CURVE SMOOTH",
"0 96 LINE SMOOTH",
"0 43 OFFCURVE",
"43 0 OFFCURVE",
"96 0 CURVE SMOOTH",
"1056 0 LINE SMOOTH",
"1109 0 OFFCURVE",
"1152 43 OFFCURVE",
"1152 96 CURVE SMOOTH"
);
}
);
width = 1152;
}
);
unicode = F023;
},
{
glyphname = flag;
layers = (
{
layerId = "7AA7152B-8BA7-42A8-974E-3097BEDBB58A";
name = Regular;
paths = (
{
closed = 1;
nodes = (
"320 1351 OFFCURVE",
"263 1408 OFFCURVE",
"192 1408 CURVE SMOOTH",
"121 1408 OFFCURVE",
"64 1351 OFFCURVE",
"64 1280 CURVE SMOOTH",
"64 1234 OFFCURVE",
"89 1193 OFFCURVE",
"128 1170 CURVE",
"128 -96 LINE SMOOTH",
"128 -113 OFFCURVE",
"143 -128 OFFCURVE",
"160 -128 CURVE SMOOTH",
"224 -128 LINE SMOOTH",
"241 -128 OFFCURVE",
"256 -113 OFFCURVE",
"256 -96 CURVE SMOOTH",
"256 1170 LINE",
"295 1193 OFFCURVE",
"320 1234 OFFCURVE",
"320 1280 CURVE SMOOTH"
);
},
{
closed = 1;
nodes = (
"1792 1216 LINE SMOOTH",
"1792 1251 OFFCURVE",
"1763 1280 OFFCURVE",
"1728 1280 CURVE SMOOTH",
"1684 1280 OFFCURVE",
"1515 1144 OFFCURVE",
"1358 1144 CURVE SMOOTH",
"1327 1144 OFFCURVE",
"1298 1149 OFFCURVE",
"1270 1163 CURVE SMOOTH",
"1131 1228 OFFCURVE",
"1008 1280 OFFCURVE",
"851 1280 CURVE SMOOTH",
"709 1280 OFFCURVE",
"556 1224 OFFCURVE",
"430 1160 CURVE SMOOTH",
"404 1147 OFFCURVE",
"375 1133 OFFCURVE",
"351 1117 CURVE",
"332 1103 OFFCURVE",
"320 1086 OFFCURVE",
"320 1062 CURVE SMOOTH",
"320 320 LINE SMOOTH",
"320 285 OFFCURVE",
"349 256 OFFCURVE",
"384 256 CURVE SMOOTH",
"396 256 OFFCURVE",
"406 259 OFFCURVE",
"417 265 CURVE SMOOTH",
"555 339 OFFCURVE",
"722 411 OFFCURVE",
"881 411 CURVE SMOOTH",
"1099 411 OFFCURVE",
"1187 271 OFFCURVE",
"1371 271 CURVE SMOOTH",
"1502 271 OFFCURVE",
"1627 326 OFFCURVE",
"1740 387 CURVE SMOOTH",
"1769 402 OFFCURVE",
"1792 416 OFFCURVE",
"1792 453 CURVE SMOOTH"
);
}
);
width = 1792;
}
);
unicode = F024;
},
{
glyphname = headphones;
layers = (
{
layerId = "7AA7152B-8BA7-42A8-974E-3097BEDBB58A";
name = Regular;
paths = (
{
closed = 1;
nodes = (
"1664 1061 OFFCURVE",
"1283 1408 OFFCURVE",
"832 1408 CURVE SMOOTH",
"381 1408 OFFCURVE",
"0 1061 OFFCURVE",
"0 650 CURVE SMOOTH",
"0 541 OFFCURVE",
"20 435 OFFCURVE",
"60 336 CURVE SMOOTH",
"80 287 LINE",
"265 254 LINE",
"294 145 OFFCURVE",
"393 64 OFFCURVE",
"512 64 CURVE",
"512 32 LINE SMOOTH",
"512 14 OFFCURVE",
"526 0 OFFCURVE",
"544 0 CURVE SMOOTH",
"608 0 LINE SMOOTH",
"626 0 OFFCURVE",
"640 14 OFFCURVE",
"640 32 CURVE SMOOTH",
"640 608 LINE SMOOTH",
"640 626 OFFCURVE",
"626 640 OFFCURVE",
"608 640 CURVE SMOOTH",
"544 640 LINE SMOOTH",
"526 640 OFFCURVE",
"512 626 OFFCURVE",
"512 608 CURVE SMOOTH",
"512 576 LINE",
"416 576 OFFCURVE",
"333 523 OFFCURVE",
"289 445 CURVE",
"221 457 LINE",
"202 519 OFFCURVE",
"192 583 OFFCURVE",
"192 650 CURVE SMOOTH",
"192 952 OFFCURVE",
"491 1216 OFFCURVE",
"832 1216 CURVE SMOOTH",
"1173 1216 OFFCURVE",
"1472 952 OFFCURVE",
"1472 650 CURVE SMOOTH",
"1472 583 OFFCURVE",
"1462 519 OFFCURVE",
"1443 457 CURVE",
"1375 445 LINE",
"1331 523 OFFCURVE",
"1248 576 OFFCURVE",
"1152 576 CURVE",
"1152 608 LINE SMOOTH",
"1152 626 OFFCURVE",
"1138 640 OFFCURVE",
"1120 640 CURVE SMOOTH",
"1056 640 LINE SMOOTH",
"1038 640 OFFCURVE",
"1024 626 OFFCURVE",
"1024 608 CURVE SMOOTH",
"1024 32 LINE SMOOTH",
"1024 14 OFFCURVE",
"1038 0 OFFCURVE",
"1056 0 CURVE SMOOTH",
"1120 0 LINE SMOOTH",
"1138 0 OFFCURVE",
"1152 14 OFFCURVE",
"1152 32 CURVE SMOOTH",
"1152 64 LINE",
"1271 64 OFFCURVE",
"1370 145 OFFCURVE",
"1399 254 CURVE",
"1584 287 LINE",
"1604 336 LINE SMOOTH",
"1644 435 OFFCURVE",
"1664 541 OFFCURVE",
"1664 650 CURVE SMOOTH"
);
}
);
width = 1664;
}
);
unicode = F025;
},
{
glyphname = volume_off;
layers = (
{
layerId = "7AA7152B-8BA7-42A8-974E-3097BEDBB58A";
name = Regular;
paths = (
{
closed = 1;
nodes = (
"768 1184 LINE SMOOTH",
"768 1219 OFFCURVE",
"739 1248 OFFCURVE",
"704 1248 CURVE SMOOTH",
"687 1248 OFFCURVE",
"671 1241 OFFCURVE",
"659 1229 CURVE SMOOTH",
"326 896 LINE",
"64 896 LINE SMOOTH",
"29 896 OFFCURVE",
"0 867 OFFCURVE",
"0 832 CURVE SMOOTH",
"0 448 LINE SMOOTH",
"0 413 OFFCURVE",
"29 384 OFFCURVE",
"64 384 CURVE SMOOTH",
"326 384 LINE",
"659 51 LINE SMOOTH",
"671 39 OFFCURVE",
"687 32 OFFCURVE",
"704 32 CURVE SMOOTH",
"739 32 OFFCURVE",
"768 61 OFFCURVE",
"768 96 CURVE SMOOTH"
);
}
);
width = 768;
}
);
unicode = F026;
},
{
glyphname = volume_down;
layers = (
{
layerId = "7AA7152B-8BA7-42A8-974E-3097BEDBB58A";
name = Regular;
paths = (
{
closed = 1;
nodes = (
"768 1184 LINE SMOOTH",
"768 1219 OFFCURVE",
"739 1248 OFFCURVE",
"704 1248 CURVE SMOOTH",
"687 1248 OFFCURVE",
"671 1241 OFFCURVE",
"659 1229 CURVE SMOOTH",
"326 896 LINE",
"64 896 LINE SMOOTH",
"29 896 OFFCURVE",
"0 867 OFFCURVE",
"0 832 CURVE SMOOTH",
"0 448 LINE SMOOTH",
"0 413 OFFCURVE",
"29 384 OFFCURVE",
"64 384 CURVE SMOOTH",
"326 384 LINE",
"659 51 LINE SMOOTH",
"671 39 OFFCURVE",
"687 32 OFFCURVE",
"704 32 CURVE SMOOTH",
"739 32 OFFCURVE",
"768 61 OFFCURVE",
"768 96 CURVE SMOOTH"
);
},
{
closed = 1;
nodes = (
"1152 740 OFFCURVE",
"1091 838 OFFCURVE",
"997 875 CURVE",
"989 879 OFFCURVE",
"980 880 OFFCURVE",
"972 880 CURVE SMOOTH",
"937 880 OFFCURVE",
"908 852 OFFCURVE",
"908 816 CURVE SMOOTH",
"908 740 OFFCURVE",
"1024 761 OFFCURVE",
"1024 640 CURVE SMOOTH",
"1024 519 OFFCURVE",
"908 540 OFFCURVE",
"908 464 CURVE SMOOTH",
"908 428 OFFCURVE",
"937 400 OFFCURVE",
"972 400 CURVE SMOOTH",
"980 400 OFFCURVE",
"989 401 OFFCURVE",
"997 405 CURVE",
"1091 443 OFFCURVE",
"1152 540 OFFCURVE",
"1152 640 CURVE SMOOTH"
);
}
);
width = 1152;
}
);
unicode = F027;
},
{
glyphname = volume_up;
layers = (
{
layerId = "7AA7152B-8BA7-42A8-974E-3097BEDBB58A";
name = Regular;
paths = (
{
closed = 1;
nodes = (
"768 1184 LINE SMOOTH",
"768 1219 OFFCURVE",
"739 1248 OFFCURVE",
"704 1248 CURVE SMOOTH",
"687 1248 OFFCURVE",
"671 1241 OFFCURVE",
"659 1229 CURVE SMOOTH",
"326 896 LINE",
"64 896 LINE SMOOTH",
"29 896 OFFCURVE",
"0 867 OFFCURVE",
"0 832 CURVE SMOOTH",
"0 448 LINE SMOOTH",
"0 413 OFFCURVE",
"29 384 OFFCURVE",
"64 384 CURVE SMOOTH",
"326 384 LINE",
"659 51 LINE SMOOTH",
"671 39 OFFCURVE",
"687 32 OFFCURVE",
"704 32 CURVE SMOOTH",
"739 32 OFFCURVE",
"768 61 OFFCURVE",
"768 96 CURVE SMOOTH"
);
},
{
closed = 1;
nodes = (
"1152 740 OFFCURVE",
"1091 838 OFFCURVE",
"997 875 CURVE",
"989 879 OFFCURVE",
"980 880 OFFCURVE",
"972 880 CURVE SMOOTH",
"937 880 OFFCURVE",
"908 852 OFFCURVE",
"908 816 CURVE SMOOTH",
"908 740 OFFCURVE",
"1024 761 OFFCURVE",
"1024 640 CURVE SMOOTH",
"1024 519 OFFCURVE",
"908 540 OFFCURVE",
"908 464 CURVE SMOOTH",
"908 428 OFFCURVE",
"937 400 OFFCURVE",
"972 400 CURVE SMOOTH",
"980 400 OFFCURVE",
"989 401 OFFCURVE",
"997 405 CURVE",
"1091 443 OFFCURVE",
"1152 540 OFFCURVE",
"1152 640 CURVE SMOOTH"
);
},
{
closed = 1;
nodes = (
"1408 843 OFFCURVE",
"1286 1032 OFFCURVE",
"1098 1111 CURVE",
"1090 1114 OFFCURVE",
"1081 1116 OFFCURVE",
"1072 1116 CURVE SMOOTH",
"1037 1116 OFFCURVE",
"1008 1087 OFFCURVE",
"1008 1052 CURVE SMOOTH",
"1008 1024 OFFCURVE",
"1024 1005 OFFCURVE",
"1047 993 CURVE SMOOTH",
"1074 979 OFFCURVE",
"1099 967 OFFCURVE",
"1123 949 CURVE SMOOTH",
"1222 877 OFFCURVE",
"1280 762 OFFCURVE",
"1280 640 CURVE SMOOTH",
"1280 518 OFFCURVE",
"1222 403 OFFCURVE",
"1123 331 CURVE SMOOTH",
"1099 313 OFFCURVE",
"1074 301 OFFCURVE",
"1047 287 CURVE SMOOTH",
"1024 275 OFFCURVE",
"1008 256 OFFCURVE",
"1008 228 CURVE SMOOTH",
"1008 193 OFFCURVE",
"1037 164 OFFCURVE",
"1073 164 CURVE SMOOTH",
"1081 164 OFFCURVE",
"1090 166 OFFCURVE",
"1098 169 CURVE",
"1286 248 OFFCURVE",
"1408 437 OFFCURVE",
"1408 640 CURVE SMOOTH"
);
},
{
closed = 1;
nodes = (
"1664 947 OFFCURVE",
"1481 1225 OFFCURVE",
"1199 1346 CURVE",
"1191 1349 OFFCURVE",
"1182 1351 OFFCURVE",
"1173 1351 CURVE SMOOTH",
"1138 1351 OFFCURVE",
"1109 1322 OFFCURVE",
"1109 1287 CURVE SMOOTH",
"1109 1258 OFFCURVE",
"1124 1242 OFFCURVE",
"1148 1228 CURVE SMOOTH",
"1162 1220 OFFCURVE",
"1178 1215 OFFCURVE",
"1193 1207 CURVE SMOOTH",
"1221 1192 OFFCURVE",
"1249 1175 OFFCURVE",
"1275 1156 CURVE SMOOTH",
"1439 1035 OFFCURVE",
"1536 844 OFFCURVE",
"1536 640 CURVE SMOOTH",
"1536 436 OFFCURVE",
"1439 245 OFFCURVE",
"1275 124 CURVE SMOOTH",
"1249 105 OFFCURVE",
"1221 88 OFFCURVE",
"1193 73 CURVE SMOOTH",
"1178 65 OFFCURVE",
"1162 60 OFFCURVE",
"1148 52 CURVE SMOOTH",
"1124 38 OFFCURVE",
"1109 22 OFFCURVE",
"1109 -7 CURVE SMOOTH",
"1109 -42 OFFCURVE",
"1138 -71 OFFCURVE",
"1173 -71 CURVE SMOOTH",
"1182 -71 OFFCURVE",
"1191 -69 OFFCURVE",
"1199 -66 CURVE",
"1481 55 OFFCURVE",
"1664 333 OFFCURVE",
"1664 640 CURVE SMOOTH"
);
}
);
width = 1664;
}
);
unicode = F028;
},
{
glyphname = qrcode;
layers = (
{
layerId = "7AA7152B-8BA7-42A8-974E-3097BEDBB58A";
name = Regular;
paths = (
{
closed = 1;
nodes = (
"384 384 LINE",
"256 384 LINE",
"256 256 LINE",
"384 256 LINE"
);
},
{
closed = 1;
nodes = (
"384 1152 LINE",
"256 1152 LINE",
"256 1024 LINE",
"384 1024 LINE"
);
},
{
closed = 1;
nodes = (
"1152 1152 LINE",
"1024 1152 LINE",
"1024 1024 LINE",
"1152 1024 LINE"
);
},
{
closed = 1;
nodes = (
"128 129 LINE",
"128 512 LINE",
"512 512 LINE",
"512 129 LINE"
);
},
{
closed = 1;
nodes = (
"128 896 LINE",
"128 1280 LINE",
"512 1280 LINE",
"512 896 LINE"
);
},
{
closed = 1;
nodes = (
"896 896 LINE",
"896 1280 LINE",
"1280 1280 LINE",
"1280 896 LINE"
);
},
{
closed = 1;
nodes = (
"640 640 LINE",
"0 640 LINE",
"0 0 LINE",
"640 0 LINE"
);
},
{
closed = 1;
nodes = (
"1152 128 LINE",
"1024 128 LINE",
"1024 0 LINE",
"1152 0 LINE"
);
},
{
closed = 1;
nodes = (
"1408 128 LINE",
"1280 128 LINE",
"1280 0 LINE",
"1408 0 LINE"
);
},
{
closed = 1;
nodes = (
"1408 640 LINE",
"1280 640 LINE",
"1280 512 LINE",
"1152 512 LINE",
"1152 640 LINE",
"768 640 LINE",
"768 0 LINE",
"896 0 LINE",
"896 384 LINE",
"1024 384 LINE",
"1024 256 LINE",
"1408 256 LINE"
);
},
{
closed = 1;
nodes = (
"640 1408 LINE",
"0 1408 LINE",
"0 768 LINE",
"640 768 LINE"
);
},
{
closed = 1;
nodes = (
"1408 1408 LINE",
"768 1408 LINE",
"768 768 LINE",
"1408 768 LINE"
);
}
);
width = 1408;
}
);
unicode = F029;
},
{
glyphname = barcode;
layers = (
{
layerId = "7AA7152B-8BA7-42A8-974E-3097BEDBB58A";
name = Regular;
paths = (
{
closed = 1;
nodes = (
"63 471 OFFCURVE",
"63 940 OFFCURVE",
"63 1408 CURVE",
"42 1408 OFFCURVE",
"21 1408 OFFCURVE",
"0 1408 CURVE",
"0 939 OFFCURVE",
"0 469 OFFCURVE",
"0 0 CURVE",
"21 0 OFFCURVE",
"41 0 OFFCURVE",
"63 0 CURVE"
);
},
{
closed = 1;
nodes = (
"126 471 OFFCURVE",
"126 940 OFFCURVE",
"126 1408 CURVE",
"115 1408 OFFCURVE",
"105 1408 OFFCURVE",
"94 1408 CURVE",
"94 939 OFFCURVE",
"94 470 OFFCURVE",
"94 1 CURVE",
"106 1 OFFCURVE",
"115 1 OFFCURVE",
"126 1 CURVE"
);
},
{
closed = 1;
nodes = (
"220 471 OFFCURVE",
"220 940 OFFCURVE",
"220 1408 CURVE",
"210 1408 OFFCURVE",
"199 1408 OFFCURVE",
"189 1408 CURVE",
"189 939 OFFCURVE",
"189 470 OFFCURVE",
"189 1 CURVE",
"200 1 OFFCURVE",
"210 1 OFFCURVE",
"220 1 CURVE"
);
},
{
closed = 1;
nodes = (
"377 471 OFFCURVE",
"377 940 OFFCURVE",
"377 1408 CURVE",
"367 1408 OFFCURVE",
"356 1408 OFFCURVE",
"346 1408 CURVE",
"346 939 OFFCURVE",
"346 470 OFFCURVE",
"346 1 CURVE",
"358 1 OFFCURVE",
"367 1 OFFCURVE",
"377 1 CURVE"
);
},
{
closed = 1;
nodes = (
"534 471 OFFCURVE",
"534 940 OFFCURVE",
"534 1408 CURVE",
"514 1408 OFFCURVE",
"493 1408 OFFCURVE",
"472 1408 CURVE",
"472 939 OFFCURVE",
"472 470 OFFCURVE",
"472 1 CURVE",
"494 1 OFFCURVE",
"514 1 OFFCURVE",
"534 1 CURVE"
);
},
{
closed = 1;
nodes = (
"660 471 OFFCURVE",
"660 940 OFFCURVE",
"660 1408 CURVE",
"650 1408 OFFCURVE",
"639 1408 OFFCURVE",
"629 1408 CURVE",
"629 939 OFFCURVE",
"629 470 OFFCURVE",
"629 1 CURVE",
"640 1 OFFCURVE",
"650 1 OFFCURVE",
"660 1 CURVE"
);
},
{
closed = 1;
nodes = (
"723 471 OFFCURVE",
"723 940 OFFCURVE",
"723 1408 CURVE",
"713 1408 OFFCURVE",
"702 1408 OFFCURVE",
"692 1408 CURVE",
"692 939 OFFCURVE",
"692 470 OFFCURVE",
"692 1 CURVE",
"703 1 OFFCURVE",
"713 1 OFFCURVE",
"723 1 CURVE"
);
},
{
closed = 1;
nodes = (
"786 471 OFFCURVE",
"786 940 OFFCURVE",
"786 1408 CURVE",
"776 1408 OFFCURVE",
"765 1408 OFFCURVE",
"755 1408 CURVE",
"755 939 OFFCURVE",
"755 470 OFFCURVE",
"755 1 CURVE",
"766 1 OFFCURVE",
"776 1 OFFCURVE",
"786 1 CURVE"
);
},
{
closed = 1;
nodes = (
"943 471 OFFCURVE",
"943 940 OFFCURVE",
"943 1408 CURVE",
"922 1408 OFFCURVE",
"901 1408 OFFCURVE",
"880 1408 CURVE",
"880 939 OFFCURVE",
"880 470 OFFCURVE",
"880 1 CURVE",
"903 1 OFFCURVE",
"922 1 OFFCURVE",
"943 1 CURVE"
);
},
{
closed = 1;
nodes = (
"1100 471 OFFCURVE",
"1100 940 OFFCURVE",
"1100 1408 CURVE",
"1079 1408 OFFCURVE",
"1058 1408 OFFCURVE",
"1037 1408 CURVE",
"1037 939 OFFCURVE",
"1037 470 OFFCURVE",
"1037 1 CURVE",
"1060 1 OFFCURVE",
"1080 1 OFFCURVE",
"1100 1 CURVE"
);
},
{
closed = 1;
nodes = (
"1226 471 OFFCURVE",
"1226 940 OFFCURVE",
"1226 1408 CURVE",
"1205 1408 OFFCURVE",
"1184 1408 OFFCURVE",
"1163 1408 CURVE",
"1163 939 OFFCURVE",
"1163 470 OFFCURVE",
"1163 1 CURVE",
"1185 1 OFFCURVE",
"1205 1 OFFCURVE",
"1226 1 CURVE"
);
},
{
closed = 1;
nodes = (
"1352 471 OFFCURVE",
"1352 940 OFFCURVE",
"1352 1408 CURVE",
"1331 1408 OFFCURVE",
"1310 1408 OFFCURVE",
"1289 1408 CURVE",
"1289 939 OFFCURVE",
"1289 470 OFFCURVE",
"1289 1 CURVE",
"1311 1 OFFCURVE",
"1331 1 OFFCURVE",
"1352 1 CURVE"
);
},
{
closed = 1;
nodes = (
"1446 471 OFFCURVE",
"1446 940 OFFCURVE",
"1446 1408 CURVE",
"1425 1408 OFFCURVE",
"1404 1408 OFFCURVE",
"1383 1408 CURVE",
"1383 939 OFFCURVE",
"1383 470 OFFCURVE",
"1383 1 CURVE",
"1406 1 OFFCURVE",
"1425 1 OFFCURVE",
"1446 1 CURVE"
);
},
{
closed = 1;
nodes = (
"1635 471 OFFCURVE",
"1635 940 OFFCURVE",
"1635 1408 CURVE",
"1603 1408 OFFCURVE",
"1572 1408 OFFCURVE",
"1541 1408 CURVE",
"1541 939 OFFCURVE",
"1541 470 OFFCURVE",
"1541 1 CURVE",
"1573 1 OFFCURVE",
"1604 1 OFFCURVE",
"1635 1 CURVE"
);
},
{
closed = 1;
nodes = (
"1698 471 OFFCURVE",
"1698 940 OFFCURVE",
"1698 1408 CURVE",
"1687 1408 OFFCURVE",
"1677 1408 OFFCURVE",
"1666 1408 CURVE",
"1666 939 OFFCURVE",
"1666 470 OFFCURVE",
"1666 1 CURVE",
"1678 1 OFFCURVE",
"1687 1 OFFCURVE",
"1698 1 CURVE"
);
},
{
closed = 1;
nodes = (
"1792 469 OFFCURVE",
"1792 939 OFFCURVE",
"1792 1408 CURVE",
"1771 1408 OFFCURVE",
"1750 1408 OFFCURVE",
"1729 1408 CURVE",
"1729 939 OFFCURVE",
"1729 470 OFFCURVE",
"1729 0 CURVE",
"1752 0 OFFCURVE",
"1772 0 OFFCURVE",
"1792 0 CURVE"
);
}
);
width = 1792;
}
);
unicode = F02A;
},
{
glyphname = tag;
layers = (
{
layerId = "7AA7152B-8BA7-42A8-974E-3097BEDBB58A";
name = Regular;
paths = (
{
closed = 1;
nodes = (
"448 1017 OFFCURVE",
"391 960 OFFCURVE",
"320 960 CURVE SMOOTH",
"249 960 OFFCURVE",
"192 1017 OFFCURVE",
"192 1088 CURVE SMOOTH",
"192 1159 OFFCURVE",
"249 1216 OFFCURVE",
"320 1216 CURVE SMOOTH",
"391 1216 OFFCURVE",
"448 1159 OFFCURVE",
"448 1088 CURVE SMOOTH"
);
},
{
closed = 1;
nodes = (
"1515 546 OFFCURVE",
"1501 579 OFFCURVE",
"1478 603 CURVE SMOOTH",
"763 1317 LINE SMOOTH",
"712 1368 OFFCURVE",
"615 1408 OFFCURVE",
"544 1408 CURVE SMOOTH",
"128 1408 LINE SMOOTH",
"58 1408 OFFCURVE",
"0 1350 OFFCURVE",
"0 1280 CURVE SMOOTH",
"0 864 LINE SMOOTH",
"0 793 OFFCURVE",
"40 696 OFFCURVE",
"91 646 CURVE SMOOTH",
"806 -70 LINE SMOOTH",
"829 -93 OFFCURVE",
"862 -107 OFFCURVE",
"896 -107 CURVE SMOOTH",
"930 -107 OFFCURVE",
"963 -93 OFFCURVE",
"987 -70 CURVE SMOOTH",
"1478 422 LINE SMOOTH",
"1501 445 OFFCURVE",
"1515 478 OFFCURVE",
"1515 512 CURVE SMOOTH"
);
}
);
width = 1536;
}
);
unicode = F02B;
},
{
glyphname = tags;
layers = (
{
layerId = "7AA7152B-8BA7-42A8-974E-3097BEDBB58A";
name = Regular;
paths = (
{
closed = 1;
nodes = (
"448 1017 OFFCURVE",
"391 960 OFFCURVE",
"320 960 CURVE SMOOTH",
"249 960 OFFCURVE",
"192 1017 OFFCURVE",
"192 1088 CURVE SMOOTH",
"192 1159 OFFCURVE",
"249 1216 OFFCURVE",
"320 1216 CURVE SMOOTH",
"391 1216 OFFCURVE",
"448 1159 OFFCURVE",
"448 1088 CURVE SMOOTH"
);
},
{
closed = 1;
nodes = (
"1515 546 OFFCURVE",
"1501 579 OFFCURVE",
"1478 603 CURVE SMOOTH",
"763 1317 LINE SMOOTH",
"712 1368 OFFCURVE",
"615 1408 OFFCURVE",
"544 1408 CURVE SMOOTH",
"128 1408 LINE SMOOTH",
"58 1408 OFFCURVE",
"0 1350 OFFCURVE",
"0 1280 CURVE SMOOTH",
"0 864 LINE SMOOTH",
"0 793 OFFCURVE",
"40 696 OFFCURVE",
"91 646 CURVE SMOOTH",
"806 -70 LINE SMOOTH",
"829 -93 OFFCURVE",
"862 -107 OFFCURVE",
"896 -107 CURVE SMOOTH",
"930 -107 OFFCURVE",
"963 -93 OFFCURVE",
"987 -70 CURVE SMOOTH",
"1478 422 LINE SMOOTH",
"1501 445 OFFCURVE",
"1515 478 OFFCURVE",
"1515 512 CURVE SMOOTH"
);
},
{
closed = 1;
nodes = (
"1899 546 OFFCURVE",
"1885 579 OFFCURVE",
"1862 603 CURVE SMOOTH",
"1147 1317 LINE SMOOTH",
"1096 1368 OFFCURVE",
"999 1408 OFFCURVE",
"928 1408 CURVE SMOOTH",
"704 1408 LINE",
"775 1408 OFFCURVE",
"872 1368 OFFCURVE",
"923 1317 CURVE SMOOTH",
"1638 603 LINE SMOOTH",
"1661 579 OFFCURVE",
"1675 546 OFFCURVE",
"1675 512 CURVE SMOOTH",
"1675 478 OFFCURVE",
"1661 445 OFFCURVE",
"1638 422 CURVE SMOOTH",
"1168 -48 LINE",
"1202 -83 OFFCURVE",
"1228 -107 OFFCURVE",
"1280 -107 CURVE SMOOTH",
"1314 -107 OFFCURVE",
"1347 -93 OFFCURVE",
"1371 -70 CURVE SMOOTH",
"1862 422 LINE SMOOTH",
"1885 445 OFFCURVE",
"1899 478 OFFCURVE",
"1899 512 CURVE SMOOTH"
);
}
);
width = 1920;
}
);
unicode = F02C;
},
{
glyphname = book;
layers = (
{
layerId = "7AA7152B-8BA7-42A8-974E-3097BEDBB58A";
name = Regular;
paths = (
{
closed = 1;
nodes = (
"1624 1078 OFFCURVE",
"1603 1092 OFFCURVE",
"1580 1101 CURVE",
"1581 1083 OFFCURVE",
"1581 1063 OFFCURVE",
"1575 1044 CURVE SMOOTH",
"1275 57 LINE SMOOTH",
"1264 21 OFFCURVE",
"1221 0 OFFCURVE",
"1184 0 CURVE SMOOTH",
"261 0 LINE SMOOTH",
"206 0 OFFCURVE",
"137 12 OFFCURVE",
"117 70 CURVE SMOOTH",
"109 92 OFFCURVE",
"110 101 OFFCURVE",
"118 113 CURVE",
"127 125 OFFCURVE",
"143 128 OFFCURVE",
"156 128 CURVE SMOOTH",
"1025 128 LINE SMOOTH",
"1152 128 OFFCURVE",
"1178 162 OFFCURVE",
"1225 316 CURVE SMOOTH",
"1499 1222 LINE SMOOTH",
"1513 1269 OFFCURVE",
"1507 1316 OFFCURVE",
"1481 1352 CURVE SMOOTH",
"1456 1387 OFFCURVE",
"1414 1408 OFFCURVE",
"1367 1408 CURVE SMOOTH",
"606 1408 LINE SMOOTH",
"589 1408 OFFCURVE",
"572 1403 OFFCURVE",
"555 1399 CURVE",
"556 1402 LINE",
"429 1438 OFFCURVE",
"421 1301 OFFCURVE",
"379 1239 CURVE SMOOTH",
"363 1216 OFFCURVE",
"339 1196 OFFCURVE",
"335 1177 CURVE",
"332 1159 OFFCURVE",
"342 1142 OFFCURVE",
"340 1125 CURVE SMOOTH",
"334 1072 OFFCURVE",
"294 977 OFFCURVE",
"270 944 CURVE SMOOTH",
"255 924 OFFCURVE",
"233 914 OFFCURVE",
"226 891 CURVE",
"220 875 OFFCURVE",
"230 852 OFFCURVE",
"228 831 CURVE SMOOTH",
"223 784 OFFCURVE",
"188 695 OFFCURVE",
"161 649 CURVE SMOOTH",
"151 631 OFFCURVE",
"132 617 OFFCURVE",
"127 598 CURVE SMOOTH",
"122 581 OFFCURVE",
"132 559 OFFCURVE",
"127 540 CURVE",
"116 488 OFFCURVE",
"82 407 OFFCURVE",
"52 357 CURVE SMOOTH",
"36 330 OFFCURVE",
"15 313 OFFCURVE",
"11 289 CURVE SMOOTH",
"9 277 OFFCURVE",
"18 264 OFFCURVE",
"17 248 CURVE SMOOTH",
"16 224 OFFCURVE",
"12 204 OFFCURVE",
"10 184 CURVE",
"-4 146 OFFCURVE",
"-4 102 OFFCURVE",
"12 57 CURVE SMOOTH",
"49 -47 OFFCURVE",
"158 -128 OFFCURVE",
"260 -128 CURVE SMOOTH",
"1183 -128 LINE SMOOTH",
"1269 -128 OFFCURVE",
"1357 -62 OFFCURVE",
"1382 23 CURVE SMOOTH",
"1657 929 LINE SMOOTH",
"1671 975 OFFCURVE",
"1664 1022 OFFCURVE",
"1639 1058 CURVE"
);
},
{
closed = 1;
nodes = (
"596 1120 LINE SMOOTH",
"602 1138 OFFCURVE",
"621 1152 OFFCURVE",
"638 1152 CURVE SMOOTH",
"1246 1152 LINE SMOOTH",
"1264 1152 OFFCURVE",
"1274 1138 OFFCURVE",
"1268 1120 CURVE SMOOTH",
"1247 1056 LINE SMOOTH",
"1241 1038 OFFCURVE",
"1222 1024 OFFCURVE",
"1205 1024 CURVE SMOOTH",
"597 1024 LINE SMOOTH",
"579 1024 OFFCURVE",
"569 1038 OFFCURVE",
"575 1056 CURVE SMOOTH"
);
},
{
closed = 1;
nodes = (
"513 864 LINE SMOOTH",
"519 882 OFFCURVE",
"538 896 OFFCURVE",
"555 896 CURVE SMOOTH",
"1163 896 LINE SMOOTH",
"1181 896 OFFCURVE",
"1191 882 OFFCURVE",
"1185 864 CURVE SMOOTH",
"1164 800 LINE SMOOTH",
"1158 782 OFFCURVE",
"1139 768 OFFCURVE",
"1122 768 CURVE SMOOTH",
"514 768 LINE SMOOTH",
"496 768 OFFCURVE",
"486 782 OFFCURVE",
"492 800 CURVE SMOOTH"
);
}
);
width = 1664;
}
);
unicode = F02D;
},
{
glyphname = bookmark;
layers = (
{
layerId = "7AA7152B-8BA7-42A8-974E-3097BEDBB58A";
name = Regular;
paths = (
{
closed = 1;
nodes = (
"1133 1408 OFFCURVE",
"147 1408 OFFCURVE",
"116 1408 CURVE SMOOTH",
"101 1408 OFFCURVE",
"86 1405 OFFCURVE",
"72 1399 CURVE",
"28 1382 OFFCURVE",
"0 1341 OFFCURVE",
"0 1296 CURVE SMOOTH",
"0 7 LINE SMOOTH",
"0 -38 OFFCURVE",
"28 -79 OFFCURVE",
"72 -96 CURVE",
"86 -102 OFFCURVE",
"101 -105 OFFCURVE",
"116 -105 CURVE SMOOTH",
"147 -105 OFFCURVE",
"176 -93 OFFCURVE",
"199 -72 CURVE SMOOTH",
"640 352 LINE",
"1081 -72 LINE SMOOTH",
"1104 -93 OFFCURVE",
"1133 -104 OFFCURVE",
"1164 -104 CURVE SMOOTH",
"1179 -104 OFFCURVE",
"1194 -102 OFFCURVE",
"1208 -96 CURVE",
"1252 -79 OFFCURVE",
"1280 -38 OFFCURVE",
"1280 7 CURVE SMOOTH",
"1280 1296 LINE SMOOTH",
"1280 1341 OFFCURVE",
"1252 1382 OFFCURVE",
"1208 1399 CURVE",
"1194 1405 OFFCURVE",
"1179 1408 OFFCURVE",
"1164 1408 CURVE SMOOTH"
);
}
);
width = 1280;
}
);
unicode = F02E;
},
{
glyphname = print;
layers = (
{
layerId = "7AA7152B-8BA7-42A8-974E-3097BEDBB58A";
name = Regular;
paths = (
{
closed = 1;
nodes = (
"384 0 LINE",
"384 256 LINE",
"1280 256 LINE",
"1280 0 LINE"
);
},
{
closed = 1;
nodes = (
"384 640 LINE",
"384 1280 LINE",
"1024 1280 LINE",
"1024 1120 LINE SMOOTH",
"1024 1067 OFFCURVE",
"1067 1024 OFFCURVE",
"1120 1024 CURVE SMOOTH",
"1280 1024 LINE",
"1280 640 LINE"
);
},
{
closed = 1;
nodes = (
"1536 541 OFFCURVE",
"1507 512 OFFCURVE",
"1472 512 CURVE SMOOTH",
"1437 512 OFFCURVE",
"1408 541 OFFCURVE",
"1408 576 CURVE SMOOTH",
"1408 611 OFFCURVE",
"1437 640 OFFCURVE",
"1472 640 CURVE SMOOTH",
"1507 640 OFFCURVE",
"1536 611 OFFCURVE",
"1536 576 CURVE SMOOTH"
);
},
{
closed = 1;
nodes = (
"1664 576 LINE SMOOTH",
"1664 681 OFFCURVE",
"1577 768 OFFCURVE",
"1472 768 CURVE SMOOTH",
"1408 768 LINE",
"1408 1024 LINE SMOOTH",
"1408 1077 OFFCURVE",
"1378 1150 OFFCURVE",
"1340 1188 CURVE SMOOTH",
"1188 1340 LINE SMOOTH",
"1150 1378 OFFCURVE",
"1077 1408 OFFCURVE",
"1024 1408 CURVE SMOOTH",
"352 1408 LINE SMOOTH",
"299 1408 OFFCURVE",
"256 1365 OFFCURVE",
"256 1312 CURVE SMOOTH",
"256 768 LINE",
"192 768 LINE SMOOTH",
"87 768 OFFCURVE",
"0 681 OFFCURVE",
"0 576 CURVE SMOOTH",
"0 160 LINE SMOOTH",
"0 143 OFFCURVE",
"15 128 OFFCURVE",
"32 128 CURVE SMOOTH",
"256 128 LINE",
"256 -32 LINE SMOOTH",
"256 -85 OFFCURVE",
"299 -128 OFFCURVE",
"352 -128 CURVE SMOOTH",
"1312 -128 LINE SMOOTH",
"1365 -128 OFFCURVE",
"1408 -85 OFFCURVE",
"1408 -32 CURVE SMOOTH",
"1408 128 LINE",
"1632 128 LINE SMOOTH",
"1649 128 OFFCURVE",
"1664 143 OFFCURVE",
"1664 160 CURVE SMOOTH"
);
}
);
width = 1664;
}
);
unicode = F02F;
},
{
glyphname = camera;
layers = (
{
layerId = "7AA7152B-8BA7-42A8-974E-3097BEDBB58A";
name = Regular;
paths = (
{
closed = 1;
nodes = (
"801 864 OFFCURVE",
"672 735 OFFCURVE",
"672 576 CURVE SMOOTH",
"672 417 OFFCURVE",
"801 288 OFFCURVE",
"960 288 CURVE SMOOTH",
"1119 288 OFFCURVE",
"1248 417 OFFCURVE",
"1248 576 CURVE SMOOTH",
"1248 735 OFFCURVE",
"1119 864 OFFCURVE",
"960 864 CURVE SMOOTH"
);
},
{
closed = 1;
nodes = (
"1440 1280 LINE",
"1389 1416 LINE SMOOTH",
"1364 1482 OFFCURVE",
"1286 1536 OFFCURVE",
"1216 1536 CURVE SMOOTH",
"704 1536 LINE SMOOTH",
"634 1536 OFFCURVE",
"556 1482 OFFCURVE",
"531 1416 CURVE SMOOTH",
"480 1280 LINE",
"256 1280 LINE SMOOTH",
"115 1280 OFFCURVE",
"0 1165 OFFCURVE",
"0 1024 CURVE SMOOTH",
"0 128 LINE SMOOTH",
"0 -13 OFFCURVE",
"115 -128 OFFCURVE",
"256 -128 CURVE SMOOTH",
"1664 -128 LINE SMOOTH",
"1805 -128 OFFCURVE",
"1920 -13 OFFCURVE",
"1920 128 CURVE SMOOTH",
"1920 1024 LINE SMOOTH",
"1920 1165 OFFCURVE",
"1805 1280 OFFCURVE",
"1664 1280 CURVE SMOOTH"
);
},
{
closed = 1;
nodes = (
"713 128 OFFCURVE",
"512 329 OFFCURVE",
"512 576 CURVE SMOOTH",
"512 823 OFFCURVE",
"713 1024 OFFCURVE",
"960 1024 CURVE SMOOTH",
"1207 1024 OFFCURVE",
"1408 823 OFFCURVE",
"1408 576 CURVE SMOOTH",
"1408 329 OFFCURVE",
"1207 128 OFFCURVE",
"960 128 CURVE SMOOTH"
);
}
);
width = 1920;
}
);
unicode = F030;
},
{
glyphname = font;
layers = (
{
layerId = "7AA7152B-8BA7-42A8-974E-3097BEDBB58A";
name = Regular;
paths = (
{
closed = 1;
nodes = (
"725 977 LINE",
"796 832 OFFCURVE",
"857 677 OFFCURVE",
"909 525 CURVE",
"890 524 OFFCURVE",
"871 523 OFFCURVE",
"852 523 CURVE SMOOTH",
"753 523 OFFCURVE",
"654 526 OFFCURVE",
"555 527 CURVE"
);
},
{
closed = 1;
nodes = (
"63 -128 OFFCURVE",
"125 -125 OFFCURVE",
"188 -114 CURVE SMOOTH",
"202 -112 OFFCURVE",
"222 -106 OFFCURVE",
"236 -106 CURVE SMOOTH",
"352 -106 OFFCURVE",
"469 -126 OFFCURVE",
"585 -126 CURVE",
"586 -117 OFFCURVE",
"587 -108 OFFCURVE",
"587 -99 CURVE SMOOTH",
"587 -79 OFFCURVE",
"587 -60 OFFCURVE",
"586 -41 CURVE",
"529 -33 OFFCURVE",
"382 -30 OFFCURVE",
"382 47 CURVE SMOOTH",
"382 85 OFFCURVE",
"483 347 OFFCURVE",
"509 405 CURVE",
"959 403 LINE",
"975 362 OFFCURVE",
"1104 65 OFFCURVE",
"1104 29 CURVE SMOOTH",
"1104 -8 OFFCURVE",
"1051 -15 OFFCURVE",
"1024 -21 CURVE SMOOTH",
"893 -49 LINE",
"890 -75 OFFCURVE",
"889 -101 OFFCURVE",
"889 -127 CURVE",
"1020 -123 OFFCURVE",
"1151 -112 OFFCURVE",
"1282 -112 CURVE SMOOTH",
"1409 -112 OFFCURVE",
"1536 -128 OFFCURVE",
"1663 -128 CURVE",
"1663 -119 OFFCURVE",
"1664 -111 OFFCURVE",
"1664 -102 CURVE SMOOTH",
"1664 -83 OFFCURVE",
"1661 -64 OFFCURVE",
"1658 -45 CURVE",
"1611 -27 OFFCURVE",
"1519 -21 OFFCURVE",
"1486 5 CURVE SMOOTH",
"1472 16 OFFCURVE",
"1458 46 OFFCURVE",
"1451 62 CURVE",
"1401 164 OFFCURVE",
"1366 271 OFFCURVE",
"1321 375 CURVE SMOOTH",
"1245 551 OFFCURVE",
"1176 730 OFFCURVE",
"1101 907 CURVE SMOOTH",
"896 1387 LINE SMOOTH",
"893 1394 OFFCURVE",
"889 1401 OFFCURVE",
"885 1408 CURVE",
"832 1408 LINE",
"757 1408 LINE",
"477 684 LINE",
"240 68 LINE SMOOTH",
"198 -40 OFFCURVE",
"96 -20 OFFCURVE",
"2 -49 CURVE",
"0 -128 LINE"
);
}
);
width = 1664;
}
);
unicode = F031;
},
{
glyphname = bold;
layers = (
{
layerId = "7AA7152B-8BA7-42A8-974E-3097BEDBB58A";
name = Regular;
paths = (
{
closed = 1;
nodes = (
"531 73 OFFCURVE",
"540 260 OFFCURVE",
"540 329 CURVE SMOOTH",
"540 434 OFFCURVE",
"541 540 OFFCURVE",
"541 646 CURVE",
"569 656 OFFCURVE",
"612 656 OFFCURVE",
"642 656 CURVE SMOOTH",
"803 656 OFFCURVE",
"937 648 OFFCURVE",
"1030 498 CURVE SMOOTH",
"1063 445 OFFCURVE",
"1071 380 OFFCURVE",
"1071 318 CURVE SMOOTH",
"1071 74 OFFCURVE",
"923 -17 OFFCURVE",
"695 -17 CURVE SMOOTH",
"647 -17 OFFCURVE",
"599 -4 OFFCURVE",
"555 15 CURVE"
);
},
{
closed = 1;
nodes = (
"540 784 OFFCURVE",
"540 807 OFFCURVE",
"540 830 CURVE SMOOTH",
"540 883 OFFCURVE",
"541 936 OFFCURVE",
"541 989 CURVE SMOOTH",
"541 1090 OFFCURVE",
"533 1191 OFFCURVE",
"533 1292 CURVE",
"576 1299 OFFCURVE",
"619 1305 OFFCURVE",
"663 1305 CURVE SMOOTH",
"830 1305 OFFCURVE",
"1003 1238 OFFCURVE",
"1003 1043 CURVE SMOOTH",
"1003 812 OFFCURVE",
"856 754 OFFCURVE",
"650 754 CURVE SMOOTH",
"614 754 OFFCURVE",
"577 755 OFFCURVE",
"541 761 CURVE"
);
},
{
closed = 1;
nodes = (
"178 -121 OFFCURVE",
"359 -105 OFFCURVE",
"538 -105 CURVE SMOOTH",
"626 -105 OFFCURVE",
"714 -111 OFFCURVE",
"802 -111 CURVE SMOOTH",
"1095 -111 OFFCURVE",
"1408 3 OFFCURVE",
"1408 347 CURVE SMOOTH",
"1408 557 OFFCURVE",
"1239 686 OFFCURVE",
"1049 729 CURVE",
"1190 793 OFFCURVE",
"1326 860 OFFCURVE",
"1326 1039 CURVE SMOOTH",
"1326 1299 OFFCURVE",
"1077 1407 OFFCURVE",
"851 1407 CURVE SMOOTH",
"806 1407 OFFCURVE",
"760 1408 OFFCURVE",
"715 1408 CURVE SMOOTH",
"478 1408 OFFCURVE",
"240 1391 OFFCURVE",
"2 1387 CURVE",
"6 1304 LINE",
"39 1300 OFFCURVE",
"186 1293 OFFCURVE",
"201 1264 CURVE SMOOTH",
"225 1217 OFFCURVE",
"223 261 OFFCURVE",
"223 239 CURVE SMOOTH",
"223 172 OFFCURVE",
"228 68 OFFCURVE",
"193 9 CURVE",
"131 -17 OFFCURVE",
"66 -18 OFFCURVE",
"2 -34 CURVE",
"0 -128 LINE"
);
}
);
width = 1408;
}
);
unicode = F032;
},
{
glyphname = italic;
layers = (
{
layerId = "7AA7152B-8BA7-42A8-974E-3097BEDBB58A";
name = Regular;
paths = (
{
closed = 1;
nodes = (
"88 -121 OFFCURVE",
"175 -106 OFFCURVE",
"264 -106 CURVE SMOOTH",
"332 -106 OFFCURVE",
"401 -107 OFFCURVE",
"470 -108 CURVE SMOOTH",
"527 -109 OFFCURVE",
"586 -128 OFFCURVE",
"643 -128 CURVE SMOOTH",
"665 -128 OFFCURVE",
"686 -125 OFFCURVE",
"708 -125 CURVE",
"716 -92 OFFCURVE",
"722 -59 OFFCURVE",
"724 -26 CURVE",
"662 -16 OFFCURVE",
"600 -9 OFFCURVE",
"539 5 CURVE",
"538 23 LINE",
"534 65 OFFCURVE",
"583 264 OFFCURVE",
"593 312 CURVE SMOOTH",
"646 569 OFFCURVE",
"710 828 OFFCURVE",
"758 1087 CURVE SMOOTH",
"768 1144 OFFCURVE",
"773 1203 OFFCURVE",
"795 1257 CURVE",
"863 1284 OFFCURVE",
"936 1295 OFFCURVE",
"1005 1319 CURVE",
"1013 1348 OFFCURVE",
"1020 1378 OFFCURVE",
"1024 1408 CURVE",
"918 1402 OFFCURVE",
"812 1392 OFFCURVE",
"706 1392 CURVE SMOOTH",
"576 1392 OFFCURVE",
"445 1402 OFFCURVE",
"316 1408 CURVE",
"297 1305 LINE",
"357 1295 OFFCURVE",
"424 1303 OFFCURVE",
"479 1273 CURVE",
"479 1248 LINE",
"482 1168 OFFCURVE",
"264 187 OFFCURVE",
"251 119 CURVE SMOOTH",
"244 84 OFFCURVE",
"233 47 OFFCURVE",
"210 18 CURVE",
"150 -13 OFFCURVE",
"81 -21 OFFCURVE",
"17 -41 CURVE",
"0 -126 LINE"
);
}
);
width = 1024;
}
);
unicode = F033;
},
{
glyphname = text_height;
layers = (
{
layerId = "7AA7152B-8BA7-42A8-974E-3097BEDBB58A";
name = Regular;
paths = (
{
closed = 1;
nodes = (
"1664 128 LINE",
"1664 1152 LINE",
"1744 1152 LINE SMOOTH",
"1788 1152 OFFCURVE",
"1802 1180 OFFCURVE",
"1775 1215 CURVE SMOOTH",
"1649 1377 LINE SMOOTH",
"1622 1412 OFFCURVE",
"1578 1412 OFFCURVE",
"1551 1377 CURVE SMOOTH",
"1425 1215 LINE SMOOTH",
"1398 1180 OFFCURVE",
"1412 1152 OFFCURVE",
"1456 1152 CURVE SMOOTH",
"1536 1152 LINE",
"1536 128 LINE",
"1456 128 LINE SMOOTH",
"1412 128 OFFCURVE",
"1398 100 OFFCURVE",
"1425 65 CURVE SMOOTH",
"1551 -97 LINE SMOOTH",
"1578 -132 OFFCURVE",
"1622 -132 OFFCURVE",
"1649 -97 CURVE SMOOTH",
"1775 65 LINE SMOOTH",
"1802 100 OFFCURVE",
"1788 128 OFFCURVE",
"1744 128 CURVE SMOOTH"
);
},
{
closed = 1;
nodes = (
"81 1407 LINE",
"0 1406 LINE",
"0 1023 LINE",
"13 1006 OFFCURVE",
"38 990 OFFCURVE",
"56 979 CURVE",
"116 983 OFFCURVE",
"116 1183 OFFCURVE",
"164 1216 CURVE SMOOTH",
"193 1237 OFFCURVE",
"300 1254 OFFCURVE",
"337 1254 CURVE SMOOTH",
"354 1254 OFFCURVE",
"485 1257 OFFCURVE",
"499 1242 CURVE",
"511 1228 OFFCURVE",
"507 1156 OFFCURVE",
"507 1138 CURVE SMOOTH",
"507 1021 LINE SMOOTH",
"507 819 OFFCURVE",
"513 617 OFFCURVE",
"513 415 CURVE SMOOTH",
"513 352 OFFCURVE",
"516 81 OFFCURVE",
"494 32 CURVE",
"431 -5 OFFCURVE",
"294 -6 OFFCURVE",
"256 -67 CURVE",
"256 -76 LINE SMOOTH",
"256 -93 OFFCURVE",
"258 -111 OFFCURVE",
"259 -128 CURVE",
"360 -128 OFFCURVE",
"461 -110 OFFCURVE",
"562 -110 CURVE SMOOTH",
"705 -110 OFFCURVE",
"845 -132 OFFCURVE",
"987 -128 CURVE SMOOTH",
"1021 -127 LINE",
"1023 -117 OFFCURVE",
"1024 -107 OFFCURVE",
"1024 -98 CURVE SMOOTH",
"1024 -81 OFFCURVE",
"1021 -64 OFFCURVE",
"1019 -48 CURVE",
"941 -13 OFFCURVE",
"851 -7 OFFCURVE",
"775 32 CURVE",
"753 106 OFFCURVE",
"765 187 OFFCURVE",
"765 264 CURVE SMOOTH",
"765 545 OFFCURVE",
"762 826 OFFCURVE",
"761 1107 CURVE SMOOTH",
"760 1152 OFFCURVE",
"764 1199 OFFCURVE",
"769 1243 CURVE",
"859 1254 OFFCURVE",
"954 1250 OFFCURVE",
"1045 1250 CURVE SMOOTH",
"1076 1250 OFFCURVE",
"1099 1255 OFFCURVE",
"1120 1229 CURVE",
"1122 1227 OFFCURVE",
"1146 1092 OFFCURVE",
"1153 1072 CURVE SMOOTH",
"1168 1028 OFFCURVE",
"1184 984 OFFCURVE",
"1207 944 CURVE",
"1230 947 OFFCURVE",
"1253 954 OFFCURVE",
"1275 962 CURVE",
"1281 997 OFFCURVE",
"1280 1036 OFFCURVE",
"1280 1071 CURVE SMOOTH",
"1280 1183 OFFCURVE",
"1280 1295 OFFCURVE",
"1278 1407 CURVE",
"1269 1407 OFFCURVE",
"1259 1408 OFFCURVE",
"1250 1408 CURVE SMOOTH",
"1208 1407 LINE",
"1181 1369 OFFCURVE",
"1158 1378 OFFCURVE",
"1118 1378 CURVE SMOOTH",
"825 1378 LINE SMOOTH",
"753 1378 OFFCURVE",
"682 1379 OFFCURVE",
"610 1379 CURVE SMOOTH",
"522 1379 OFFCURVE",
"434 1375 OFFCURVE",
"346 1375 CURVE SMOOTH",
"325 1375 OFFCURVE",
"142 1377 OFFCURVE",
"135 1380 CURVE"
);
}
);
width = 1792;
}
);
unicode = F034;
},
{
glyphname = text_width;
layers = (
{
layerId = "7AA7152B-8BA7-42A8-974E-3097BEDBB58A";
name = Regular;
paths = (
{
closed = 1;
nodes = (
"81 1407 LINE",
"0 1406 LINE",
"0 1023 LINE",
"13 1006 OFFCURVE",
"38 990 OFFCURVE",
"56 979 CURVE",
"116 984 OFFCURVE",
"117 1185 OFFCURVE",
"164 1216 CURVE SMOOTH",
"188 1232 OFFCURVE",
"423 1254 OFFCURVE",
"465 1254 CURVE SMOOTH",
"482 1254 OFFCURVE",
"613 1257 OFFCURVE",
"627 1242 CURVE SMOOTH",
"642 1225 OFFCURVE",
"635 990 OFFCURVE",
"635 949 CURVE SMOOTH",
"635 934 OFFCURVE",
"640 919 OFFCURVE",
"640 905 CURVE SMOOTH",
"640 817 OFFCURVE",
"647 344 OFFCURVE",
"622 288 CURVE",
"559 251 OFFCURVE",
"422 250 OFFCURVE",
"384 189 CURVE",
"384 180 LINE SMOOTH",
"384 163 OFFCURVE",
"386 145 OFFCURVE",
"387 128 CURVE",
"488 128 OFFCURVE",
"589 146 OFFCURVE",
"690 146 CURVE SMOOTH",
"833 146 OFFCURVE",
"973 124 OFFCURVE",
"1115 128 CURVE SMOOTH",
"1149 129 LINE",
"1151 139 OFFCURVE",
"1152 149 OFFCURVE",
"1152 158 CURVE SMOOTH",
"1152 175 OFFCURVE",
"1149 192 OFFCURVE",
"1147 208 CURVE",
"1069 243 OFFCURVE",
"979 249 OFFCURVE",
"903 288 CURVE",
"881 362 OFFCURVE",
"893 443 OFFCURVE",
"893 520 CURVE SMOOTH",
"893 682 OFFCURVE",
"891 844 OFFCURVE",
"890 1007 CURVE",
"890 955 LINE",
"889 1107 LINE SMOOTH",
"888 1152 OFFCURVE",
"892 1199 OFFCURVE",
"897 1243 CURVE",
"1018 1257 OFFCURVE",
"1160 1250 OFFCURVE",
"1283 1250 CURVE SMOOTH",
"1293 1250 OFFCURVE",
"1341 1251 OFFCURVE",
"1349 1248 CURVE SMOOTH",
"1360 1244 OFFCURVE",
"1369 1238 OFFCURVE",
"1376 1229 CURVE",
"1377 1227 OFFCURVE",
"1402 1092 OFFCURVE",
"1409 1072 CURVE SMOOTH",
"1424 1028 OFFCURVE",
"1440 984 OFFCURVE",
"1463 944 CURVE",
"1486 947 OFFCURVE",
"1509 954 OFFCURVE",
"1531 962 CURVE",
"1537 997 OFFCURVE",
"1536 1035 OFFCURVE",
"1536 1071 CURVE SMOOTH",
"1536 1183 OFFCURVE",
"1536 1295 OFFCURVE",
"1534 1407 CURVE",
"1525 1407 OFFCURVE",
"1515 1408 OFFCURVE",
"1506 1408 CURVE SMOOTH",
"1464 1407 LINE",
"1451 1389 OFFCURVE",
"1430 1375 OFFCURVE",
"1408 1376 CURVE SMOOTH",
"1143 1385 OFFCURVE",
"875 1379 OFFCURVE",
"610 1379 CURVE SMOOTH",
"522 1379 OFFCURVE",
"434 1375 OFFCURVE",
"346 1375 CURVE SMOOTH",
"325 1375 OFFCURVE",
"142 1377 OFFCURVE",
"135 1380 CURVE"
);
},
{
closed = 1;
nodes = (
"1264 125 OFFCURVE",
"1280 18 OFFCURVE",
"1280 0 CURVE",
"256 0 LINE",
"256 18 OFFCURVE",
"272 125 OFFCURVE",
"226 125 CURVE SMOOTH",
"191 125 OFFCURVE",
"58 6 OFFCURVE",
"31 -15 CURVE SMOOTH",
"16 -27 OFFCURVE",
"5 -44 OFFCURVE",
"5 -64 CURVE SMOOTH",
"5 -84 OFFCURVE",
"16 -101 OFFCURVE",
"31 -113 CURVE SMOOTH",
"58 -134 OFFCURVE",
"191 -253 OFFCURVE",
"226 -253 CURVE SMOOTH",
"272 -253 OFFCURVE",
"256 -146 OFFCURVE",
"256 -128 CURVE",
"1280 -128 LINE",
"1280 -146 OFFCURVE",
"1264 -253 OFFCURVE",
"1310 -253 CURVE SMOOTH",
"1345 -253 OFFCURVE",
"1478 -134 OFFCURVE",
"1505 -113 CURVE SMOOTH",
"1520 -101 OFFCURVE",
"1531 -84 OFFCURVE",
"1531 -64 CURVE SMOOTH",
"1531 -44 OFFCURVE",
"1520 -27 OFFCURVE",
"1505 -15 CURVE SMOOTH",
"1478 6 OFFCURVE",
"1345 125 OFFCURVE",
"1310 125 CURVE SMOOTH"
);
}
);
width = 1536;
}
);
unicode = F035;
},
{
glyphname = align_left;
layers = (
{
layerId = "7AA7152B-8BA7-42A8-974E-3097BEDBB58A";
name = Regular;
paths = (
{
closed = 1;
nodes = (
"1792 192 LINE SMOOTH",
"1792 227 OFFCURVE",
"1763 256 OFFCURVE",
"1728 256 CURVE SMOOTH",
"64 256 LINE SMOOTH",
"29 256 OFFCURVE",
"0 227 OFFCURVE",
"0 192 CURVE SMOOTH",
"0 64 LINE SMOOTH",
"0 29 OFFCURVE",
"29 0 OFFCURVE",
"64 0 CURVE SMOOTH",
"1728 0 LINE SMOOTH",
"1763 0 OFFCURVE",
"1792 29 OFFCURVE",
"1792 64 CURVE SMOOTH"
);
},
{
closed = 1;
nodes = (
"1408 576 LINE SMOOTH",
"1408 611 OFFCURVE",
"1379 640 OFFCURVE",
"1344 640 CURVE SMOOTH",
"64 640 LINE SMOOTH",
"29 640 OFFCURVE",
"0 611 OFFCURVE",
"0 576 CURVE SMOOTH",
"0 448 LINE SMOOTH",
"0 413 OFFCURVE",
"29 384 OFFCURVE",
"64 384 CURVE SMOOTH",
"1344 384 LINE SMOOTH",
"1379 384 OFFCURVE",
"1408 413 OFFCURVE",
"1408 448 CURVE SMOOTH"
);
},
{
closed = 1;
nodes = (
"1664 960 LINE SMOOTH",
"1664 995 OFFCURVE",
"1635 1024 OFFCURVE",
"1600 1024 CURVE SMOOTH",
"64 1024 LINE SMOOTH",
"29 1024 OFFCURVE",
"0 995 OFFCURVE",
"0 960 CURVE SMOOTH",
"0 832 LINE SMOOTH",
"0 797 OFFCURVE",
"29 768 OFFCURVE",
"64 768 CURVE SMOOTH",
"1600 768 LINE SMOOTH",
"1635 768 OFFCURVE",
"1664 797 OFFCURVE",
"1664 832 CURVE SMOOTH"
);
},
{
closed = 1;
nodes = (
"1280 1344 LINE SMOOTH",
"1280 1379 OFFCURVE",
"1251 1408 OFFCURVE",
"1216 1408 CURVE SMOOTH",
"64 1408 LINE SMOOTH",
"29 1408 OFFCURVE",
"0 1379 OFFCURVE",
"0 1344 CURVE SMOOTH",
"0 1216 LINE SMOOTH",
"0 1181 OFFCURVE",
"29 1152 OFFCURVE",
"64 1152 CURVE SMOOTH",
"1216 1152 LINE SMOOTH",
"1251 1152 OFFCURVE",
"1280 1181 OFFCURVE",
"1280 1216 CURVE SMOOTH"
);
}
);
width = 1792;
}
);
unicode = F036;
},
{
glyphname = align_center;
layers = (
{
layerId = "7AA7152B-8BA7-42A8-974E-3097BEDBB58A";
name = Regular;
paths = (
{
closed = 1;
nodes = (
"1792 192 LINE SMOOTH",
"1792 227 OFFCURVE",
"1763 256 OFFCURVE",
"1728 256 CURVE SMOOTH",
"64 256 LINE SMOOTH",
"29 256 OFFCURVE",
"0 227 OFFCURVE",
"0 192 CURVE SMOOTH",
"0 64 LINE SMOOTH",
"0 29 OFFCURVE",
"29 0 OFFCURVE",
"64 0 CURVE SMOOTH",
"1728 0 LINE SMOOTH",
"1763 0 OFFCURVE",
"1792 29 OFFCURVE",
"1792 64 CURVE SMOOTH"
);
},
{
closed = 1;
nodes = (
"1408 576 LINE SMOOTH",
"1408 611 OFFCURVE",
"1379 640 OFFCURVE",
"1344 640 CURVE SMOOTH",
"448 640 LINE SMOOTH",
"413 640 OFFCURVE",
"384 611 OFFCURVE",
"384 576 CURVE SMOOTH",
"384 448 LINE SMOOTH",
"384 413 OFFCURVE",
"413 384 OFFCURVE",
"448 384 CURVE SMOOTH",
"1344 384 LINE SMOOTH",
"1379 384 OFFCURVE",
"1408 413 OFFCURVE",
"1408 448 CURVE SMOOTH"
);
},
{
closed = 1;
nodes = (
"1664 960 LINE SMOOTH",
"1664 995 OFFCURVE",
"1635 1024 OFFCURVE",
"1600 1024 CURVE SMOOTH",
"192 1024 LINE SMOOTH",
"157 1024 OFFCURVE",
"128 995 OFFCURVE",
"128 960 CURVE SMOOTH",
"128 832 LINE SMOOTH",
"128 797 OFFCURVE",
"157 768 OFFCURVE",
"192 768 CURVE SMOOTH",
"1600 768 LINE SMOOTH",
"1635 768 OFFCURVE",
"1664 797 OFFCURVE",
"1664 832 CURVE SMOOTH"
);
},
{
closed = 1;
nodes = (
"1280 1344 LINE SMOOTH",
"1280 1379 OFFCURVE",
"1251 1408 OFFCURVE",
"1216 1408 CURVE SMOOTH",
"576 1408 LINE SMOOTH",
"541 1408 OFFCURVE",
"512 1379 OFFCURVE",
"512 1344 CURVE SMOOTH",
"512 1216 LINE SMOOTH",
"512 1181 OFFCURVE",
"541 1152 OFFCURVE",
"576 1152 CURVE SMOOTH",
"1216 1152 LINE SMOOTH",
"1251 1152 OFFCURVE",
"1280 1181 OFFCURVE",
"1280 1216 CURVE SMOOTH"
);
}
);
width = 1792;
}
);
unicode = F037;
},
{
glyphname = align_right;
layers = (
{
layerId = "7AA7152B-8BA7-42A8-974E-3097BEDBB58A";
name = Regular;
paths = (
{
closed = 1;
nodes = (
"1792 192 LINE SMOOTH",
"1792 227 OFFCURVE",
"1763 256 OFFCURVE",
"1728 256 CURVE SMOOTH",
"64 256 LINE SMOOTH",
"29 256 OFFCURVE",
"0 227 OFFCURVE",
"0 192 CURVE SMOOTH",
"0 64 LINE SMOOTH",
"0 29 OFFCURVE",
"29 0 OFFCURVE",
"64 0 CURVE SMOOTH",
"1728 0 LINE SMOOTH",
"1763 0 OFFCURVE",
"1792 29 OFFCURVE",
"1792 64 CURVE SMOOTH"
);
},
{
closed = 1;
nodes = (
"1792 576 LINE SMOOTH",
"1792 611 OFFCURVE",
"1763 640 OFFCURVE",
"1728 640 CURVE SMOOTH",
"448 640 LINE SMOOTH",
"413 640 OFFCURVE",
"384 611 OFFCURVE",
"384 576 CURVE SMOOTH",
"384 448 LINE SMOOTH",
"384 413 OFFCURVE",
"413 384 OFFCURVE",
"448 384 CURVE SMOOTH",
"1728 384 LINE SMOOTH",
"1763 384 OFFCURVE",
"1792 413 OFFCURVE",
"1792 448 CURVE SMOOTH"
);
},
{
closed = 1;
nodes = (
"1792 960 LINE SMOOTH",
"1792 995 OFFCURVE",
"1763 1024 OFFCURVE",
"1728 1024 CURVE SMOOTH",
"192 1024 LINE SMOOTH",
"157 1024 OFFCURVE",
"128 995 OFFCURVE",
"128 960 CURVE SMOOTH",
"128 832 LINE SMOOTH",
"128 797 OFFCURVE",
"157 768 OFFCURVE",
"192 768 CURVE SMOOTH",
"1728 768 LINE SMOOTH",
"1763 768 OFFCURVE",
"1792 797 OFFCURVE",
"1792 832 CURVE SMOOTH"
);
},
{
closed = 1;
nodes = (
"1792 1344 LINE SMOOTH",
"1792 1379 OFFCURVE",
"1763 1408 OFFCURVE",
"1728 1408 CURVE SMOOTH",
"576 1408 LINE SMOOTH",
"541 1408 OFFCURVE",
"512 1379 OFFCURVE",
"512 1344 CURVE SMOOTH",
"512 1216 LINE SMOOTH",
"512 1181 OFFCURVE",
"541 1152 OFFCURVE",
"576 1152 CURVE SMOOTH",
"1728 1152 LINE SMOOTH",
"1763 1152 OFFCURVE",
"1792 1181 OFFCURVE",
"1792 1216 CURVE SMOOTH"
);
}
);
width = 1792;
}
);
unicode = F038;
},
{
glyphname = align_justify;
layers = (
{
layerId = "7AA7152B-8BA7-42A8-974E-3097BEDBB58A";
name = Regular;
paths = (
{
closed = 1;
nodes = (
"1792 192 LINE SMOOTH",
"1792 227 OFFCURVE",
"1763 256 OFFCURVE",
"1728 256 CURVE SMOOTH",
"64 256 LINE SMOOTH",
"29 256 OFFCURVE",
"0 227 OFFCURVE",
"0 192 CURVE SMOOTH",
"0 64 LINE SMOOTH",
"0 29 OFFCURVE",
"29 0 OFFCURVE",
"64 0 CURVE SMOOTH",
"1728 0 LINE SMOOTH",
"1763 0 OFFCURVE",
"1792 29 OFFCURVE",
"1792 64 CURVE SMOOTH"
);
},
{
closed = 1;
nodes = (
"1792 576 LINE SMOOTH",
"1792 611 OFFCURVE",
"1763 640 OFFCURVE",
"1728 640 CURVE SMOOTH",
"64 640 LINE SMOOTH",
"29 640 OFFCURVE",
"0 611 OFFCURVE",
"0 576 CURVE SMOOTH",
"0 448 LINE SMOOTH",
"0 413 OFFCURVE",
"29 384 OFFCURVE",
"64 384 CURVE SMOOTH",
"1728 384 LINE SMOOTH",
"1763 384 OFFCURVE",
"1792 413 OFFCURVE",
"1792 448 CURVE SMOOTH"
);
},
{
closed = 1;
nodes = (
"1792 960 LINE SMOOTH",
"1792 995 OFFCURVE",
"1763 1024 OFFCURVE",
"1728 1024 CURVE SMOOTH",
"64 1024 LINE SMOOTH",
"29 1024 OFFCURVE",
"0 995 OFFCURVE",
"0 960 CURVE SMOOTH",
"0 832 LINE SMOOTH",
"0 797 OFFCURVE",
"29 768 OFFCURVE",
"64 768 CURVE SMOOTH",
"1728 768 LINE SMOOTH",
"1763 768 OFFCURVE",
"1792 797 OFFCURVE",
"1792 832 CURVE SMOOTH"
);
},
{
closed = 1;
nodes = (
"1792 1344 LINE SMOOTH",
"1792 1379 OFFCURVE",
"1763 1408 OFFCURVE",
"1728 1408 CURVE SMOOTH",
"64 1408 LINE SMOOTH",
"29 1408 OFFCURVE",
"0 1379 OFFCURVE",
"0 1344 CURVE SMOOTH",
"0 1216 LINE SMOOTH",
"0 1181 OFFCURVE",
"29 1152 OFFCURVE",
"64 1152 CURVE SMOOTH",
"1728 1152 LINE SMOOTH",
"1763 1152 OFFCURVE",
"1792 1181 OFFCURVE",
"1792 1216 CURVE SMOOTH"
);
}
);
width = 1792;
}
);
unicode = F039;
},
{
glyphname = list;
layers = (
{
layerId = "7AA7152B-8BA7-42A8-974E-3097BEDBB58A";
name = Regular;
paths = (
{
closed = 1;
nodes = (
"256 224 LINE SMOOTH",
"256 241 OFFCURVE",
"241 256 OFFCURVE",
"224 256 CURVE SMOOTH",
"32 256 LINE SMOOTH",
"15 256 OFFCURVE",
"0 241 OFFCURVE",
"0 224 CURVE SMOOTH",
"0 32 LINE SMOOTH",
"0 15 OFFCURVE",
"15 0 OFFCURVE",
"32 0 CURVE SMOOTH",
"224 0 LINE SMOOTH",
"241 0 OFFCURVE",
"256 15 OFFCURVE",
"256 32 CURVE SMOOTH"
);
},
{
closed = 1;
nodes = (
"256 608 LINE SMOOTH",
"256 625 OFFCURVE",
"241 640 OFFCURVE",
"224 640 CURVE SMOOTH",
"32 640 LINE SMOOTH",
"15 640 OFFCURVE",
"0 625 OFFCURVE",
"0 608 CURVE SMOOTH",
"0 416 LINE SMOOTH",
"0 399 OFFCURVE",
"15 384 OFFCURVE",
"32 384 CURVE SMOOTH",
"224 384 LINE SMOOTH",
"241 384 OFFCURVE",
"256 399 OFFCURVE",
"256 416 CURVE SMOOTH"
);
},
{
closed = 1;
nodes = (
"256 992 LINE SMOOTH",
"256 1009 OFFCURVE",
"241 1024 OFFCURVE",
"224 1024 CURVE SMOOTH",
"32 1024 LINE SMOOTH",
"15 1024 OFFCURVE",
"0 1009 OFFCURVE",
"0 992 CURVE SMOOTH",
"0 800 LINE SMOOTH",
"0 783 OFFCURVE",
"15 768 OFFCURVE",
"32 768 CURVE SMOOTH",
"224 768 LINE SMOOTH",
"241 768 OFFCURVE",
"256 783 OFFCURVE",
"256 800 CURVE SMOOTH"
);
},
{
closed = 1;
nodes = (
"1792 224 LINE SMOOTH",
"1792 241 OFFCURVE",
"1777 256 OFFCURVE",
"1760 256 CURVE SMOOTH",
"416 256 LINE SMOOTH",
"399 256 OFFCURVE",
"384 241 OFFCURVE",
"384 224 CURVE SMOOTH",
"384 32 LINE SMOOTH",
"384 15 OFFCURVE",
"399 0 OFFCURVE",
"416 0 CURVE SMOOTH",
"1760 0 LINE SMOOTH",
"1777 0 OFFCURVE",
"1792 15 OFFCURVE",
"1792 32 CURVE SMOOTH"
);
},
{
closed = 1;
nodes = (
"256 1376 LINE SMOOTH",
"256 1393 OFFCURVE",
"241 1408 OFFCURVE",
"224 1408 CURVE SMOOTH",
"32 1408 LINE SMOOTH",
"15 1408 OFFCURVE",
"0 1393 OFFCURVE",
"0 1376 CURVE SMOOTH",
"0 1184 LINE SMOOTH",
"0 1167 OFFCURVE",
"15 1152 OFFCURVE",
"32 1152 CURVE SMOOTH",
"224 1152 LINE SMOOTH",
"241 1152 OFFCURVE",
"256 1167 OFFCURVE",
"256 1184 CURVE SMOOTH"
);
},
{
closed = 1;
nodes = (
"1792 608 LINE SMOOTH",
"1792 625 OFFCURVE",
"1777 640 OFFCURVE",
"1760 640 CURVE SMOOTH",
"416 640 LINE SMOOTH",
"399 640 OFFCURVE",
"384 625 OFFCURVE",
"384 608 CURVE SMOOTH",
"384 416 LINE SMOOTH",
"384 399 OFFCURVE",
"399 384 OFFCURVE",
"416 384 CURVE SMOOTH",
"1760 384 LINE SMOOTH",
"1777 384 OFFCURVE",
"1792 399 OFFCURVE",
"1792 416 CURVE SMOOTH"
);
},
{
closed = 1;
nodes = (
"1792 992 LINE SMOOTH",
"1792 1009 OFFCURVE",
"1777 1024 OFFCURVE",
"1760 1024 CURVE SMOOTH",
"416 1024 LINE SMOOTH",
"399 1024 OFFCURVE",
"384 1009 OFFCURVE",
"384 992 CURVE SMOOTH",
"384 800 LINE SMOOTH",
"384 783 OFFCURVE",
"399 768 OFFCURVE",
"416 768 CURVE SMOOTH",
"1760 768 LINE SMOOTH",
"1777 768 OFFCURVE",
"1792 783 OFFCURVE",
"1792 800 CURVE SMOOTH"
);
},
{
closed = 1;
nodes = (
"1792 1376 LINE SMOOTH",
"1792 1393 OFFCURVE",
"1777 1408 OFFCURVE",
"1760 1408 CURVE SMOOTH",
"416 1408 LINE SMOOTH",
"399 1408 OFFCURVE",
"384 1393 OFFCURVE",
"384 1376 CURVE SMOOTH",
"384 1184 LINE SMOOTH",
"384 1167 OFFCURVE",
"399 1152 OFFCURVE",
"416 1152 CURVE SMOOTH",
"1760 1152 LINE SMOOTH",
"1777 1152 OFFCURVE",
"1792 1167 OFFCURVE",
"1792 1184 CURVE SMOOTH"
);
}
);
width = 1792;
}
);
unicode = F03A;
},
{
glyphname = indent_left;
layers = (
{
layerId = "7AA7152B-8BA7-42A8-974E-3097BEDBB58A";
name = Regular;
paths = (
{
closed = 1;
nodes = (
"384 992 LINE SMOOTH",
"384 1009 OFFCURVE",
"369 1024 OFFCURVE",
"352 1024 CURVE SMOOTH",
"344 1024 OFFCURVE",
"335 1021 OFFCURVE",
"329 1015 CURVE SMOOTH",
"41 727 LINE SMOOTH",
"35 721 OFFCURVE",
"32 712 OFFCURVE",
"32 704 CURVE SMOOTH",
"32 696 OFFCURVE",
"35 687 OFFCURVE",
"41 681 CURVE SMOOTH",
"329 393 LINE SMOOTH",
"335 387 OFFCURVE",
"344 384 OFFCURVE",
"352 384 CURVE SMOOTH",
"369 384 OFFCURVE",
"384 399 OFFCURVE",
"384 416 CURVE SMOOTH"
);
},
{
closed = 1;
nodes = (
"1792 224 LINE SMOOTH",
"1792 241 OFFCURVE",
"1777 256 OFFCURVE",
"1760 256 CURVE SMOOTH",
"32 256 LINE SMOOTH",
"15 256 OFFCURVE",
"0 241 OFFCURVE",
"0 224 CURVE SMOOTH",
"0 32 LINE SMOOTH",
"0 15 OFFCURVE",
"15 0 OFFCURVE",
"32 0 CURVE SMOOTH",
"1760 0 LINE SMOOTH",
"1777 0 OFFCURVE",
"1792 15 OFFCURVE",
"1792 32 CURVE SMOOTH"
);
},
{
closed = 1;
nodes = (
"1792 608 LINE SMOOTH",
"1792 625 OFFCURVE",
"1777 640 OFFCURVE",
"1760 640 CURVE SMOOTH",
"672 640 LINE SMOOTH",
"655 640 OFFCURVE",
"640 625 OFFCURVE",
"640 608 CURVE SMOOTH",
"640 416 LINE SMOOTH",
"640 399 OFFCURVE",
"655 384 OFFCURVE",
"672 384 CURVE SMOOTH",
"1760 384 LINE SMOOTH",
"1777 384 OFFCURVE",
"1792 399 OFFCURVE",
"1792 416 CURVE SMOOTH"
);
},
{
closed = 1;
nodes = (
"1792 992 LINE SMOOTH",
"1792 1009 OFFCURVE",
"1777 1024 OFFCURVE",
"1760 1024 CURVE SMOOTH",
"672 1024 LINE SMOOTH",
"655 1024 OFFCURVE",
"640 1009 OFFCURVE",
"640 992 CURVE SMOOTH",
"640 800 LINE SMOOTH",
"640 783 OFFCURVE",
"655 768 OFFCURVE",
"672 768 CURVE SMOOTH",
"1760 768 LINE SMOOTH",
"1777 768 OFFCURVE",
"1792 783 OFFCURVE",
"1792 800 CURVE SMOOTH"
);
},
{
closed = 1;
nodes = (
"1792 1376 LINE SMOOTH",
"1792 1393 OFFCURVE",
"1777 1408 OFFCURVE",
"1760 1408 CURVE SMOOTH",
"32 1408 LINE SMOOTH",
"15 1408 OFFCURVE",
"0 1393 OFFCURVE",
"0 1376 CURVE SMOOTH",
"0 1184 LINE SMOOTH",
"0 1167 OFFCURVE",
"15 1152 OFFCURVE",
"32 1152 CURVE SMOOTH",
"1760 1152 LINE SMOOTH",
"1777 1152 OFFCURVE",
"1792 1167 OFFCURVE",
"1792 1184 CURVE SMOOTH"
);
}
);
width = 1792;
}
);
unicode = F03B;
},
{
glyphname = indent_right;
layers = (
{
layerId = "7AA7152B-8BA7-42A8-974E-3097BEDBB58A";
name = Regular;
paths = (
{
closed = 1;
nodes = (
"352 712 OFFCURVE",
"349 721 OFFCURVE",
"343 727 CURVE SMOOTH",
"55 1015 LINE SMOOTH",
"49 1021 OFFCURVE",
"40 1024 OFFCURVE",
"32 1024 CURVE SMOOTH",
"15 1024 OFFCURVE",
"0 1009 OFFCURVE",
"0 992 CURVE SMOOTH",
"0 416 LINE SMOOTH",
"0 399 OFFCURVE",
"15 384 OFFCURVE",
"32 384 CURVE SMOOTH",
"40 384 OFFCURVE",
"49 387 OFFCURVE",
"55 393 CURVE SMOOTH",
"343 681 LINE SMOOTH",
"349 687 OFFCURVE",
"352 696 OFFCURVE",
"352 704 CURVE SMOOTH"
);
},
{
closed = 1;
nodes = (
"1792 224 LINE SMOOTH",
"1792 241 OFFCURVE",
"1777 256 OFFCURVE",
"1760 256 CURVE SMOOTH",
"32 256 LINE SMOOTH",
"15 256 OFFCURVE",
"0 241 OFFCURVE",
"0 224 CURVE SMOOTH",
"0 32 LINE SMOOTH",
"0 15 OFFCURVE",
"15 0 OFFCURVE",
"32 0 CURVE SMOOTH",
"1760 0 LINE SMOOTH",
"1777 0 OFFCURVE",
"1792 15 OFFCURVE",
"1792 32 CURVE SMOOTH"
);
},
{
closed = 1;
nodes = (
"1792 608 LINE SMOOTH",
"1792 625 OFFCURVE",
"1777 640 OFFCURVE",
"1760 640 CURVE SMOOTH",
"672 640 LINE SMOOTH",
"655 640 OFFCURVE",
"640 625 OFFCURVE",
"640 608 CURVE SMOOTH",
"640 416 LINE SMOOTH",
"640 399 OFFCURVE",
"655 384 OFFCURVE",
"672 384 CURVE SMOOTH",
"1760 384 LINE SMOOTH",
"1777 384 OFFCURVE",
"1792 399 OFFCURVE",
"1792 416 CURVE SMOOTH"
);
},
{
closed = 1;
nodes = (
"1792 992 LINE SMOOTH",
"1792 1009 OFFCURVE",
"1777 1024 OFFCURVE",
"1760 1024 CURVE SMOOTH",
"672 1024 LINE SMOOTH",
"655 1024 OFFCURVE",
"640 1009 OFFCURVE",
"640 992 CURVE SMOOTH",
"640 800 LINE SMOOTH",
"640 783 OFFCURVE",
"655 768 OFFCURVE",
"672 768 CURVE SMOOTH",
"1760 768 LINE SMOOTH",
"1777 768 OFFCURVE",
"1792 783 OFFCURVE",
"1792 800 CURVE SMOOTH"
);
},
{
closed = 1;
nodes = (
"1792 1376 LINE SMOOTH",
"1792 1393 OFFCURVE",
"1777 1408 OFFCURVE",
"1760 1408 CURVE SMOOTH",
"32 1408 LINE SMOOTH",
"15 1408 OFFCURVE",
"0 1393 OFFCURVE",
"0 1376 CURVE SMOOTH",
"0 1184 LINE SMOOTH",
"0 1167 OFFCURVE",
"15 1152 OFFCURVE",
"32 1152 CURVE SMOOTH",
"1760 1152 LINE SMOOTH",
"1777 1152 OFFCURVE",
"1792 1167 OFFCURVE",
"1792 1184 CURVE SMOOTH"
);
}
);
width = 1792;
}
);
unicode = F03C;
},
{
glyphname = facetime_video;
layers = (
{
layerId = "7AA7152B-8BA7-42A8-974E-3097BEDBB58A";
name = Regular;
paths = (
{
closed = 1;
nodes = (
"1792 1184 LINE SMOOTH",
"1792 1210 OFFCURVE",
"1776 1233 OFFCURVE",
"1753 1243 CURVE",
"1745 1246 OFFCURVE",
"1736 1248 OFFCURVE",
"1728 1248 CURVE SMOOTH",
"1711 1248 OFFCURVE",
"1695 1242 OFFCURVE",
"1683 1229 CURVE",
"1280 827 LINE",
"1280 992 LINE SMOOTH",
"1280 1151 OFFCURVE",
"1151 1280 OFFCURVE",
"992 1280 CURVE SMOOTH",
"288 1280 LINE SMOOTH",
"129 1280 OFFCURVE",
"0 1151 OFFCURVE",
"0 992 CURVE SMOOTH",
"0 288 LINE SMOOTH",
"0 129 OFFCURVE",
"129 0 OFFCURVE",
"288 0 CURVE SMOOTH",
"992 0 LINE SMOOTH",
"1151 0 OFFCURVE",
"1280 129 OFFCURVE",
"1280 288 CURVE SMOOTH",
"1280 454 LINE",
"1683 51 LINE",
"1695 38 OFFCURVE",
"1711 32 OFFCURVE",
"1728 32 CURVE SMOOTH",
"1736 32 OFFCURVE",
"1745 34 OFFCURVE",
"1753 37 CURVE",
"1776 47 OFFCURVE",
"1792 70 OFFCURVE",
"1792 96 CURVE SMOOTH"
);
}
);
width = 1792;
}
);
unicode = F03D;
},
{
glyphname = picture;
layers = (
{
layerId = "7AA7152B-8BA7-42A8-974E-3097BEDBB58A";
name = Regular;
paths = (
{
closed = 1;
nodes = (
"640 1066 OFFCURVE",
"554 1152 OFFCURVE",
"448 1152 CURVE SMOOTH",
"342 1152 OFFCURVE",
"256 1066 OFFCURVE",
"256 960 CURVE SMOOTH",
"256 854 OFFCURVE",
"342 768 OFFCURVE",
"448 768 CURVE SMOOTH",
"554 768 OFFCURVE",
"640 854 OFFCURVE",
"640 960 CURVE SMOOTH"
);
},
{
closed = 1;
nodes = (
"1664 576 LINE",
"1248 992 LINE",
"736 480 LINE",
"576 640 LINE",
"256 320 LINE",
"256 128 LINE",
"1664 128 LINE"
);
},
{
closed = 1;
nodes = (
"1777 1280 OFFCURVE",
"1792 1265 OFFCURVE",
"1792 1248 CURVE SMOOTH",
"1792 32 LINE SMOOTH",
"1792 15 OFFCURVE",
"1777 0 OFFCURVE",
"1760 0 CURVE SMOOTH",
"160 0 LINE SMOOTH",
"143 0 OFFCURVE",
"128 15 OFFCURVE",
"128 32 CURVE SMOOTH",
"128 1248 LINE SMOOTH",
"128 1265 OFFCURVE",
"143 1280 OFFCURVE",
"160 1280 CURVE SMOOTH",
"1760 1280 LINE SMOOTH"
);
},
{
closed = 1;
nodes = (
"1920 1248 LINE SMOOTH",
"1920 1336 OFFCURVE",
"1848 1408 OFFCURVE",
"1760 1408 CURVE SMOOTH",
"1760 1408 LINE",
"160 1408 LINE SMOOTH",
"72 1408 OFFCURVE",
"0 1336 OFFCURVE",
"0 1248 CURVE SMOOTH",
"0 32 LINE SMOOTH",
"0 -56 OFFCURVE",
"72 -128 OFFCURVE",
"160 -128 CURVE SMOOTH",
"1760 -128 LINE SMOOTH",
"1848 -128 OFFCURVE",
"1920 -56 OFFCURVE",
"1920 32 CURVE SMOOTH"
);
}
);
width = 1920;
}
);
unicode = F03E;
},
{
glyphname = pencil;
layers = (
{
layerId = "7AA7152B-8BA7-42A8-974E-3097BEDBB58A";
name = Regular;
paths = (
{
closed = 1;
nodes = (
"363 0 LINE",
"256 0 LINE",
"256 128 LINE",
"128 128 LINE",
"128 235 LINE",
"219 326 LINE",
"454 91 LINE"
);
},
{
closed = 1;
nodes = (
"886 922 OFFCURVE",
"884 916 OFFCURVE",
"879 911 CURVE SMOOTH",
"337 369 LINE SMOOTH",
"332 364 OFFCURVE",
"326 362 OFFCURVE",
"320 362 CURVE SMOOTH",
"307 362 OFFCURVE",
"298 371 OFFCURVE",
"298 384 CURVE SMOOTH",
"298 390 OFFCURVE",
"300 396 OFFCURVE",
"305 401 CURVE SMOOTH",
"847 943 LINE SMOOTH",
"852 948 OFFCURVE",
"858 950 OFFCURVE",
"864 950 CURVE SMOOTH",
"877 950 OFFCURVE",
"886 941 OFFCURVE",
"886 928 CURVE SMOOTH"
);
},
{
closed = 1;
nodes = (
"832 1120 LINE",
"0 288 LINE",
"0 -128 LINE",
"416 -128 LINE",
"1248 704 LINE"
);
},
{
closed = 1;
nodes = (
"1515 1058 OFFCURVE",
"1501 1091 OFFCURVE",
"1478 1115 CURVE SMOOTH",
"1243 1349 LINE SMOOTH",
"1219 1373 OFFCURVE",
"1186 1387 OFFCURVE",
"1152 1387 CURVE SMOOTH",
"1118 1387 OFFCURVE",
"1085 1373 OFFCURVE",
"1062 1349 CURVE SMOOTH",
"896 1184 LINE",
"1312 768 LINE",
"1478 934 LINE SMOOTH",
"1501 957 OFFCURVE",
"1515 990 OFFCURVE",
"1515 1024 CURVE SMOOTH"
);
}
);
width = 1536;
}
);
unicode = F040;
},
{
glyphname = map_marker;
layers = (
{
layerId = "7AA7152B-8BA7-42A8-974E-3097BEDBB58A";
name = Regular;
paths = (
{
closed = 1;
nodes = (
"768 755 OFFCURVE",
"653 640 OFFCURVE",
"512 640 CURVE SMOOTH",
"371 640 OFFCURVE",
"256 755 OFFCURVE",
"256 896 CURVE SMOOTH",
"256 1037 OFFCURVE",
"371 1152 OFFCURVE",
"512 1152 CURVE SMOOTH",
"653 1152 OFFCURVE",
"768 1037 OFFCURVE",
"768 896 CURVE SMOOTH"
);
},
{
closed = 1;
nodes = (
"1024 1179 OFFCURVE",
"795 1408 OFFCURVE",
"512 1408 CURVE SMOOTH",
"229 1408 OFFCURVE",
"0 1179 OFFCURVE",
"0 896 CURVE SMOOTH",
"0 835 OFFCURVE",
"7 772 OFFCURVE",
"33 717 CURVE SMOOTH",
"398 -57 LINE SMOOTH",
"418 -101 OFFCURVE",
"464 -128 OFFCURVE",
"512 -128 CURVE SMOOTH",
"560 -128 OFFCURVE",
"606 -101 OFFCURVE",
"627 -57 CURVE SMOOTH",
"991 717 LINE SMOOTH",
"1017 772 OFFCURVE",
"1024 835 OFFCURVE",
"1024 896 CURVE SMOOTH"
);
}
);
width = 1024;
}
);
unicode = F041;
},
{
glyphname = adjust;
layers = (
{
layerId = "7AA7152B-8BA7-42A8-974E-3097BEDBB58A";
name = Regular;
paths = (
{
closed = 1;
nodes = (
"468 96 OFFCURVE",
"224 340 OFFCURVE",
"224 640 CURVE SMOOTH",
"224 940 OFFCURVE",
"468 1184 OFFCURVE",
"768 1184 CURVE",
"768 96 LINE"
);
},
{
closed = 1;
nodes = (
"1536 1064 OFFCURVE",
"1192 1408 OFFCURVE",
"768 1408 CURVE SMOOTH",
"344 1408 OFFCURVE",
"0 1064 OFFCURVE",
"0 640 CURVE SMOOTH",
"0 216 OFFCURVE",
"344 -128 OFFCURVE",
"768 -128 CURVE SMOOTH",
"1192 -128 OFFCURVE",
"1536 216 OFFCURVE",
"1536 640 CURVE SMOOTH"
);
}
);
width = 1536;
}
);
unicode = F042;
},
{
glyphname = tint;
layers = (
{
layerId = "7AA7152B-8BA7-42A8-974E-3097BEDBB58A";
name = Regular;
paths = (
{
closed = 1;
nodes = (
"512 313 OFFCURVE",
"455 256 OFFCURVE",
"384 256 CURVE SMOOTH",
"313 256 OFFCURVE",
"256 313 OFFCURVE",
"256 384 CURVE SMOOTH",
"256 409 OFFCURVE",
"264 433 OFFCURVE",
"276 453 CURVE",
"289 473 OFFCURVE",
"342 541 OFFCURVE",
"363 608 CURVE",
"366 619 OFFCURVE",
"376 624 OFFCURVE",
"384 624 CURVE SMOOTH",
"392 624 OFFCURVE",
"402 619 OFFCURVE",
"405 608 CURVE",
"426 541 OFFCURVE",
"479 473 OFFCURVE",
"492 453 CURVE",
"504 433 OFFCURVE",
"512 409 OFFCURVE",
"512 384 CURVE SMOOTH"
);
},
{
closed = 1;
nodes = (
"1024 613 OFFCURVE",
"994 707 OFFCURVE",
"943 787 CURVE SMOOTH",
"892 867 OFFCURVE",
"678 1138 OFFCURVE",
"597 1408 CURVE SMOOTH",
"585 1451 OFFCURVE",
"544 1472 OFFCURVE",
"512 1472 CURVE SMOOTH",
"480 1472 OFFCURVE",
"440 1451 OFFCURVE",
"427 1408 CURVE SMOOTH",
"346 1138 OFFCURVE",
"132 867 OFFCURVE",
"81 787 CURVE SMOOTH",
"31 707 OFFCURVE",
"0 613 OFFCURVE",
"0 512 CURVE SMOOTH",
"0 229 OFFCURVE",
"229 0 OFFCURVE",
"512 0 CURVE SMOOTH",
"795 0 OFFCURVE",
"1024 229 OFFCURVE",
"1024 512 CURVE SMOOTH"
);
}
);
width = 1024;
}
);
unicode = F043;
},
{
glyphname = edit;
layers = (
{
layerId = "7AA7152B-8BA7-42A8-974E-3097BEDBB58A";
name = Regular;
paths = (
{
closed = 1;
nodes = (
"888 352 LINE",
"832 352 LINE",
"832 448 LINE",
"736 448 LINE",
"736 504 LINE",
"852 620 LINE",
"1004 468 LINE"
);
},
{
closed = 1;
nodes = (
"1337 1063 OFFCURVE",
"1336 1048 OFFCURVE",
"1327 1039 CURVE SMOOTH",
"977 689 LINE SMOOTH",
"968 680 OFFCURVE",
"953 679 OFFCURVE",
"944 688 CURVE SMOOTH",
"935 697 OFFCURVE",
"936 712 OFFCURVE",
"945 721 CURVE SMOOTH",
"1295 1071 LINE SMOOTH",
"1304 1080 OFFCURVE",
"1319 1081 OFFCURVE",
"1328 1072 CURVE SMOOTH"
);
},
{
closed = 1;
nodes = (
"1408 478 LINE SMOOTH",
"1408 491 OFFCURVE",
"1400 502 OFFCURVE",
"1388 507 CURVE SMOOTH",
"1376 512 OFFCURVE",
"1363 510 OFFCURVE",
"1353 500 CURVE SMOOTH",
"1289 436 LINE SMOOTH",
"1283 430 OFFCURVE",
"1280 422 OFFCURVE",
"1280 414 CURVE SMOOTH",
"1280 288 LINE SMOOTH",
"1280 200 OFFCURVE",
"1208 128 OFFCURVE",
"1120 128 CURVE SMOOTH",
"288 128 LINE SMOOTH",
"200 128 OFFCURVE",
"128 200 OFFCURVE",
"128 288 CURVE SMOOTH",
"128 1120 LINE SMOOTH",
"128 1208 OFFCURVE",
"200 1280 OFFCURVE",
"288 1280 CURVE SMOOTH",
"1120 1280 LINE SMOOTH",
"1135 1280 OFFCURVE",
"1150 1278 OFFCURVE",
"1165 1274 CURVE",
"1176 1270 OFFCURVE",
"1188 1273 OFFCURVE",
"1197 1282 CURVE SMOOTH",
"1246 1331 LINE SMOOTH",
"1254 1339 OFFCURVE",
"1257 1349 OFFCURVE",
"1255 1360 CURVE SMOOTH",
"1253 1370 OFFCURVE",
"1246 1379 OFFCURVE",
"1237 1383 CURVE SMOOTH",
"1200 1400 OFFCURVE",
"1160 1408 OFFCURVE",
"1120 1408 CURVE SMOOTH",
"288 1408 LINE SMOOTH",
"129 1408 OFFCURVE",
"0 1279 OFFCURVE",
"0 1120 CURVE SMOOTH",
"0 288 LINE SMOOTH",
"0 129 OFFCURVE",
"129 0 OFFCURVE",
"288 0 CURVE SMOOTH",
"1120 0 LINE SMOOTH",
"1279 0 OFFCURVE",
"1408 129 OFFCURVE",
"1408 288 CURVE SMOOTH"
);
},
{
closed = 1;
nodes = (
"1312 1216 LINE",
"640 544 LINE",
"640 256 LINE",
"928 256 LINE",
"1600 928 LINE"
);
},
{
closed = 1;
nodes = (
"1793 1121 OFFCURVE",
"1793 1183 OFFCURVE",
"1756 1220 CURVE SMOOTH",
"1604 1372 LINE SMOOTH",
"1567 1409 OFFCURVE",
"1505 1409 OFFCURVE",
"1468 1372 CURVE SMOOTH",
"1376 1280 LINE",
"1664 992 LINE",
"1756 1084 LINE SMOOTH"
);
}
);
width = 1792;
}
);
unicode = F044;
},
{
glyphname = share;
layers = (
{
layerId = "7AA7152B-8BA7-42A8-974E-3097BEDBB58A";
name = Regular;
paths = (
{
closed = 1;
nodes = (
"1408 547 LINE SMOOTH",
"1408 560 OFFCURVE",
"1399 571 OFFCURVE",
"1387 576 CURVE SMOOTH",
"1375 581 OFFCURVE",
"1361 577 OFFCURVE",
"1352 568 CURVE SMOOTH",
"1336 553 OFFCURVE",
"1318 540 OFFCURVE",
"1298 531 CURVE",
"1287 525 OFFCURVE",
"1280 514 OFFCURVE",
"1280 502 CURVE SMOOTH",
"1280 288 LINE SMOOTH",
"1280 200 OFFCURVE",
"1208 128 OFFCURVE",
"1120 128 CURVE SMOOTH",
"288 128 LINE SMOOTH",
"200 128 OFFCURVE",
"128 200 OFFCURVE",
"128 288 CURVE SMOOTH",
"128 1120 LINE SMOOTH",
"128 1208 OFFCURVE",
"200 1280 OFFCURVE",
"288 1280 CURVE SMOOTH",
"400 1280 LINE SMOOTH",
"406 1280 OFFCURVE",
"411 1282 OFFCURVE",
"416 1284 CURVE",
"454 1307 OFFCURVE",
"499 1327 OFFCURVE",
"549 1344 CURVE",
"564 1347 OFFCURVE",
"575 1360 OFFCURVE",
"575 1376 CURVE SMOOTH",
"575 1394 OFFCURVE",
"560 1408 OFFCURVE",
"543 1408 CURVE SMOOTH",
"543 1408 OFFCURVE",
"543 1408 OFFCURVE",
"543 1408 CURVE SMOOTH",
"543 1408 OFFCURVE",
"543 1408 OFFCURVE",
"543 1408 CURVE SMOOTH",
"288 1408 LINE SMOOTH",
"129 1408 OFFCURVE",
"0 1279 OFFCURVE",
"0 1120 CURVE SMOOTH",
"0 288 LINE SMOOTH",
"0 129 OFFCURVE",
"129 0 OFFCURVE",
"288 0 CURVE SMOOTH",
"1120 0 LINE SMOOTH",
"1279 0 OFFCURVE",
"1408 129 OFFCURVE",
"1408 288 CURVE SMOOTH"
);
},
{
closed = 1;
nodes = (
"1670 1068 OFFCURVE",
"1670 1108 OFFCURVE",
"1645 1133 CURVE SMOOTH",
"1261 1517 LINE SMOOTH",
"1249 1529 OFFCURVE",
"1233 1536 OFFCURVE",
"1216 1536 CURVE SMOOTH",
"1208 1536 OFFCURVE",
"1199 1534 OFFCURVE",
"1191 1531 CURVE",
"1168 1521 OFFCURVE",
"1152 1498 OFFCURVE",
"1152 1472 CURVE SMOOTH",
"1152 1280 LINE",
"992 1280 LINE SMOOTH",
"340 1280 OFFCURVE",
"256 972 OFFCURVE",
"256 704 CURVE SMOOTH",
"256 504 OFFCURVE",
"415 279 OFFCURVE",
"422 269 CURVE SMOOTH",
"428 261 OFFCURVE",
"438 256 OFFCURVE",
"448 256 CURVE SMOOTH",
"452 256 OFFCURVE",
"456 257 OFFCURVE",
"460 258 CURVE",
"473 264 OFFCURVE",
"482 278 OFFCURVE",
"480 292 CURVE SMOOTH",
"449 522 OFFCURVE",
"473 672 OFFCURVE",
"554 765 CURVE SMOOTH",
"632 854 OFFCURVE",
"772 896 OFFCURVE",
"992 896 CURVE SMOOTH",
"1152 896 LINE",
"1152 704 LINE SMOOTH",
"1152 678 OFFCURVE",
"1168 655 OFFCURVE",
"1191 645 CURVE",
"1199 642 OFFCURVE",
"1208 640 OFFCURVE",
"1216 640 CURVE SMOOTH",
"1233 640 OFFCURVE",
"1249 646 OFFCURVE",
"1261 659 CURVE",
"1645 1043 LINE SMOOTH"
);
}
);
width = 1664;
}
);
unicode = F045;
},
{
glyphname = check;
layers = (
{
layerId = "7AA7152B-8BA7-42A8-974E-3097BEDBB58A";
name = Regular;
paths = (
{
closed = 1;
nodes = (
"1408 606 LINE SMOOTH",
"1408 619 OFFCURVE",
"1400 630 OFFCURVE",
"1388 635 CURVE",
"1384 637 OFFCURVE",
"1380 638 OFFCURVE",
"1376 638 CURVE SMOOTH",
"1368 638 OFFCURVE",
"1360 635 OFFCURVE",
"1353 628 CURVE SMOOTH",
"1289 564 LINE SMOOTH",
"1283 558 OFFCURVE",
"1280 550 OFFCURVE",
"1280 542 CURVE SMOOTH",
"1280 288 LINE SMOOTH",
"1280 200 OFFCURVE",
"1208 128 OFFCURVE",
"1120 128 CURVE SMOOTH",
"288 128 LINE SMOOTH",
"200 128 OFFCURVE",
"128 200 OFFCURVE",
"128 288 CURVE SMOOTH",
"128 1120 LINE SMOOTH",
"128 1208 OFFCURVE",
"200 1280 OFFCURVE",
"288 1280 CURVE SMOOTH",
"1120 1280 LINE SMOOTH",
"1135 1280 OFFCURVE",
"1150 1278 OFFCURVE",
"1165 1274 CURVE",
"1168 1273 OFFCURVE",
"1171 1272 OFFCURVE",
"1174 1272 CURVE SMOOTH",
"1182 1272 OFFCURVE",
"1191 1276 OFFCURVE",
"1197 1282 CURVE SMOOTH",
"1246 1331 LINE SMOOTH",
"1254 1339 OFFCURVE",
"1257 1349 OFFCURVE",
"1255 1360 CURVE SMOOTH",
"1253 1370 OFFCURVE",
"1246 1379 OFFCURVE",
"1237 1383 CURVE SMOOTH",
"1200 1400 OFFCURVE",
"1160 1408 OFFCURVE",
"1120 1408 CURVE SMOOTH",
"288 1408 LINE SMOOTH",
"129 1408 OFFCURVE",
"0 1279 OFFCURVE",
"0 1120 CURVE SMOOTH",
"0 288 LINE SMOOTH",
"0 129 OFFCURVE",
"129 0 OFFCURVE",
"288 0 CURVE SMOOTH",
"1120 0 LINE SMOOTH",
"1279 0 OFFCURVE",
"1408 129 OFFCURVE",
"1408 288 CURVE SMOOTH"
);
},
{
closed = 1;
nodes = (
"1671 1127 OFFCURVE",
"1671 1177 OFFCURVE",
"1639 1209 CURVE SMOOTH",
"1529 1319 LINE SMOOTH",
"1497 1351 OFFCURVE",
"1447 1351 OFFCURVE",
"1415 1319 CURVE SMOOTH",
"768 672 LINE",
"505 935 LINE SMOOTH",
"473 967 OFFCURVE",
"423 967 OFFCURVE",
"391 935 CURVE SMOOTH",
"281 825 LINE SMOOTH",
"249 793 OFFCURVE",
"249 743 OFFCURVE",
"281 711 CURVE SMOOTH",
"711 281 LINE SMOOTH",
"743 249 OFFCURVE",
"793 249 OFFCURVE",
"825 281 CURVE SMOOTH",
"1639 1095 LINE SMOOTH"
);
}
);
width = 1664;
}
);
unicode = F046;
},
{
glyphname = move;
layers = (
{
layerId = "7AA7152B-8BA7-42A8-974E-3097BEDBB58A";
name = Regular;
paths = (
{
closed = 1;
nodes = (
"1792 657 OFFCURVE",
"1785 673 OFFCURVE",
"1773 685 CURVE SMOOTH",
"1517 941 LINE SMOOTH",
"1505 953 OFFCURVE",
"1489 960 OFFCURVE",
"1472 960 CURVE SMOOTH",
"1437 960 OFFCURVE",
"1408 931 OFFCURVE",
"1408 896 CURVE SMOOTH",
"1408 768 LINE",
"1024 768 LINE",
"1024 1152 LINE",
"1152 1152 LINE SMOOTH",
"1187 1152 OFFCURVE",
"1216 1181 OFFCURVE",
"1216 1216 CURVE SMOOTH",
"1216 1233 OFFCURVE",
"1209 1249 OFFCURVE",
"1197 1261 CURVE SMOOTH",
"941 1517 LINE SMOOTH",
"929 1529 OFFCURVE",
"913 1536 OFFCURVE",
"896 1536 CURVE SMOOTH",
"879 1536 OFFCURVE",
"863 1529 OFFCURVE",
"851 1517 CURVE SMOOTH",
"595 1261 LINE SMOOTH",
"583 1249 OFFCURVE",
"576 1233 OFFCURVE",
"576 1216 CURVE SMOOTH",
"576 1181 OFFCURVE",
"605 1152 OFFCURVE",
"640 1152 CURVE SMOOTH",
"768 1152 LINE",
"768 768 LINE",
"384 768 LINE",
"384 896 LINE SMOOTH",
"384 931 OFFCURVE",
"355 960 OFFCURVE",
"320 960 CURVE SMOOTH",
"303 960 OFFCURVE",
"287 953 OFFCURVE",
"275 941 CURVE SMOOTH",
"19 685 LINE SMOOTH",
"7 673 OFFCURVE",
"0 657 OFFCURVE",
"0 640 CURVE SMOOTH",
"0 623 OFFCURVE",
"7 607 OFFCURVE",
"19 595 CURVE SMOOTH",
"275 339 LINE SMOOTH",
"287 327 OFFCURVE",
"303 320 OFFCURVE",
"320 320 CURVE SMOOTH",
"355 320 OFFCURVE",
"384 349 OFFCURVE",
"384 384 CURVE SMOOTH",
"384 512 LINE",
"768 512 LINE",
"768 128 LINE",
"640 128 LINE SMOOTH",
"605 128 OFFCURVE",
"576 99 OFFCURVE",
"576 64 CURVE SMOOTH",
"576 47 OFFCURVE",
"583 31 OFFCURVE",
"595 19 CURVE SMOOTH",
"851 -237 LINE SMOOTH",
"863 -249 OFFCURVE",
"879 -256 OFFCURVE",
"896 -256 CURVE SMOOTH",
"913 -256 OFFCURVE",
"929 -249 OFFCURVE",
"941 -237 CURVE SMOOTH",
"1197 19 LINE SMOOTH",
"1209 31 OFFCURVE",
"1216 47 OFFCURVE",
"1216 64 CURVE SMOOTH",
"1216 99 OFFCURVE",
"1187 128 OFFCURVE",
"1152 128 CURVE SMOOTH",
"1024 128 LINE",
"1024 512 LINE",
"1408 512 LINE",
"1408 384 LINE SMOOTH",
"1408 349 OFFCURVE",
"1437 320 OFFCURVE",
"1472 320 CURVE SMOOTH",
"1489 320 OFFCURVE",
"1505 327 OFFCURVE",
"1517 339 CURVE SMOOTH",
"1773 595 LINE SMOOTH",
"1785 607 OFFCURVE",
"1792 623 OFFCURVE",
"1792 640 CURVE SMOOTH"
);
}
);
width = 1792;
}
);
unicode = F047;
},
{
glyphname = step_backward;
layers = (
{
layerId = "7AA7152B-8BA7-42A8-974E-3097BEDBB58A";
name = Regular;
paths = (
{
closed = 1;
nodes = (
"269 685 LINE SMOOTH",
"263 679 OFFCURVE",
"259 673 OFFCURVE",
"256 666 CURVE",
"256 1344 LINE SMOOTH",
"256 1379 OFFCURVE",
"227 1408 OFFCURVE",
"192 1408 CURVE SMOOTH",
"64 1408 LINE SMOOTH",
"29 1408 OFFCURVE",
"0 1379 OFFCURVE",
"0 1344 CURVE SMOOTH",
"0 -64 LINE SMOOTH",
"0 -99 OFFCURVE",
"29 -128 OFFCURVE",
"64 -128 CURVE SMOOTH",
"192 -128 LINE SMOOTH",
"227 -128 OFFCURVE",
"256 -99 OFFCURVE",
"256 -64 CURVE SMOOTH",
"256 614 LINE",
"259 607 OFFCURVE",
"263 601 OFFCURVE",
"269 595 CURVE SMOOTH",
"979 -115 LINE SMOOTH",
"1004 -140 OFFCURVE",
"1024 -131 OFFCURVE",
"1024 -96 CURVE SMOOTH",
"1024 1376 LINE SMOOTH",
"1024 1411 OFFCURVE",
"1004 1420 OFFCURVE",
"979 1395 CURVE SMOOTH"
);
}
);
width = 1024;
}
);
unicode = F048;
},
{
glyphname = fast_backward;
layers = (
{
layerId = "7AA7152B-8BA7-42A8-974E-3097BEDBB58A";
name = Regular;
paths = (
{
closed = 1;
nodes = (
"1037 685 LINE SMOOTH",
"1031 679 OFFCURVE",
"1027 673 OFFCURVE",
"1024 666 CURVE",
"1024 1376 LINE SMOOTH",
"1024 1411 OFFCURVE",
"1004 1420 OFFCURVE",
"979 1395 CURVE SMOOTH",
"269 685 LINE SMOOTH",
"263 679 OFFCURVE",
"259 673 OFFCURVE",
"256 666 CURVE",
"256 1344 LINE SMOOTH",
"256 1379 OFFCURVE",
"227 1408 OFFCURVE",
"192 1408 CURVE SMOOTH",
"64 1408 LINE SMOOTH",
"29 1408 OFFCURVE",
"0 1379 OFFCURVE",
"0 1344 CURVE SMOOTH",
"0 -64 LINE SMOOTH",
"0 -99 OFFCURVE",
"29 -128 OFFCURVE",
"64 -128 CURVE SMOOTH",
"192 -128 LINE SMOOTH",
"227 -128 OFFCURVE",
"256 -99 OFFCURVE",
"256 -64 CURVE SMOOTH",
"256 614 LINE",
"259 607 OFFCURVE",
"263 601 OFFCURVE",
"269 595 CURVE SMOOTH",
"979 -115 LINE SMOOTH",
"1004 -140 OFFCURVE",
"1024 -131 OFFCURVE",
"1024 -96 CURVE SMOOTH",
"1024 614 LINE",
"1027 607 OFFCURVE",
"1031 601 OFFCURVE",
"1037 595 CURVE SMOOTH",
"1747 -115 LINE SMOOTH",
"1772 -140 OFFCURVE",
"1792 -131 OFFCURVE",
"1792 -96 CURVE SMOOTH",
"1792 1376 LINE SMOOTH",
"1792 1411 OFFCURVE",
"1772 1420 OFFCURVE",
"1747 1395 CURVE SMOOTH"
);
}
);
width = 1792;
}
);
unicode = F049;
},
{
glyphname = backward;
layers = (
{
layerId = "7AA7152B-8BA7-42A8-974E-3097BEDBB58A";
name = Regular;
paths = (
{
closed = 1;
nodes = (
"909 685 LINE SMOOTH",
"903 679 OFFCURVE",
"899 673 OFFCURVE",
"896 666 CURVE",
"896 1376 LINE SMOOTH",
"896 1411 OFFCURVE",
"876 1420 OFFCURVE",
"851 1395 CURVE SMOOTH",
"141 685 LINE SMOOTH",
"116 660 OFFCURVE",
"116 620 OFFCURVE",
"141 595 CURVE SMOOTH",
"851 -115 LINE SMOOTH",
"876 -140 OFFCURVE",
"896 -131 OFFCURVE",
"896 -96 CURVE SMOOTH",
"896 614 LINE",
"899 607 OFFCURVE",
"903 601 OFFCURVE",
"909 595 CURVE SMOOTH",
"1619 -115 LINE SMOOTH",
"1644 -140 OFFCURVE",
"1664 -131 OFFCURVE",
"1664 -96 CURVE SMOOTH",
"1664 1376 LINE SMOOTH",
"1664 1411 OFFCURVE",
"1644 1420 OFFCURVE",
"1619 1395 CURVE SMOOTH"
);
}
);
width = 1664;
}
);
unicode = F04A;
},
{
glyphname = play;
layers = (
{
layerId = "7AA7152B-8BA7-42A8-974E-3097BEDBB58A";
name = Regular;
paths = (
{
closed = 1;
nodes = (
"1384 609 LINE SMOOTH",
"1415 626 OFFCURVE",
"1415 654 OFFCURVE",
"1384 671 CURVE SMOOTH",
"56 1409 LINE SMOOTH",
"25 1426 OFFCURVE",
"0 1411 OFFCURVE",
"0 1376 CURVE SMOOTH",
"0 -96 LINE SMOOTH",
"0 -131 OFFCURVE",
"25 -146 OFFCURVE",
"56 -129 CURVE SMOOTH"
);
}
);
width = 1408;
}
);
unicode = F04B;
},
{
glyphname = pause;
layers = (
{
layerId = "7AA7152B-8BA7-42A8-974E-3097BEDBB58A";
name = Regular;
paths = (
{
closed = 1;
nodes = (
"1536 1344 LINE SMOOTH",
"1536 1379 OFFCURVE",
"1507 1408 OFFCURVE",
"1472 1408 CURVE SMOOTH",
"960 1408 LINE SMOOTH",
"925 1408 OFFCURVE",
"896 1379 OFFCURVE",
"896 1344 CURVE SMOOTH",
"896 -64 LINE SMOOTH",
"896 -99 OFFCURVE",
"925 -128 OFFCURVE",
"960 -128 CURVE SMOOTH",
"1472 -128 LINE SMOOTH",
"1507 -128 OFFCURVE",
"1536 -99 OFFCURVE",
"1536 -64 CURVE SMOOTH"
);
},
{
closed = 1;
nodes = (
"640 1344 LINE SMOOTH",
"640 1379 OFFCURVE",
"611 1408 OFFCURVE",
"576 1408 CURVE SMOOTH",
"64 1408 LINE SMOOTH",
"29 1408 OFFCURVE",
"0 1379 OFFCURVE",
"0 1344 CURVE SMOOTH",
"0 -64 LINE SMOOTH",
"0 -99 OFFCURVE",
"29 -128 OFFCURVE",
"64 -128 CURVE SMOOTH",
"576 -128 LINE SMOOTH",
"611 -128 OFFCURVE",
"640 -99 OFFCURVE",
"640 -64 CURVE SMOOTH"
);
}
);
width = 1536;
}
);
unicode = F04C;
},
{
glyphname = stop;
layers = (
{
layerId = "7AA7152B-8BA7-42A8-974E-3097BEDBB58A";
name = Regular;
paths = (
{
closed = 1;
nodes = (
"1536 1344 LINE SMOOTH",
"1536 1379 OFFCURVE",
"1507 1408 OFFCURVE",
"1472 1408 CURVE SMOOTH",
"64 1408 LINE SMOOTH",
"29 1408 OFFCURVE",
"0 1379 OFFCURVE",
"0 1344 CURVE SMOOTH",
"0 -64 LINE SMOOTH",
"0 -99 OFFCURVE",
"29 -128 OFFCURVE",
"64 -128 CURVE SMOOTH",
"1472 -128 LINE SMOOTH",
"1507 -128 OFFCURVE",
"1536 -99 OFFCURVE",
"1536 -64 CURVE SMOOTH"
);
}
);
width = 1536;
}
);
unicode = F04D;
},
{
glyphname = forward;
layers = (
{
layerId = "7AA7152B-8BA7-42A8-974E-3097BEDBB58A";
name = Regular;
paths = (
{
closed = 1;
nodes = (
"755 595 LINE SMOOTH",
"761 601 OFFCURVE",
"765 607 OFFCURVE",
"768 614 CURVE",
"768 -96 LINE SMOOTH",
"768 -131 OFFCURVE",
"788 -140 OFFCURVE",
"813 -115 CURVE SMOOTH",
"1523 595 LINE SMOOTH",
"1548 620 OFFCURVE",
"1548 660 OFFCURVE",
"1523 685 CURVE SMOOTH",
"813 1395 LINE SMOOTH",
"788 1420 OFFCURVE",
"768 1411 OFFCURVE",
"768 1376 CURVE SMOOTH",
"768 666 LINE",
"765 673 OFFCURVE",
"761 679 OFFCURVE",
"755 685 CURVE SMOOTH",
"45 1395 LINE SMOOTH",
"20 1420 OFFCURVE",
"0 1411 OFFCURVE",
"0 1376 CURVE SMOOTH",
"0 -96 LINE SMOOTH",
"0 -131 OFFCURVE",
"20 -140 OFFCURVE",
"45 -115 CURVE SMOOTH"
);
}
);
width = 1664;
}
);
unicode = F04E;
},
{
glyphname = fast_forward;
layers = (
{
layerId = "7AA7152B-8BA7-42A8-974E-3097BEDBB58A";
name = Regular;
paths = (
{
closed = 1;
nodes = (
"755 595 LINE SMOOTH",
"761 601 OFFCURVE",
"765 607 OFFCURVE",
"768 614 CURVE",
"768 -96 LINE SMOOTH",
"768 -131 OFFCURVE",
"788 -140 OFFCURVE",
"813 -115 CURVE SMOOTH",
"1523 595 LINE SMOOTH",
"1529 601 OFFCURVE",
"1533 607 OFFCURVE",
"1536 614 CURVE",
"1536 -64 LINE SMOOTH",
"1536 -99 OFFCURVE",
"1565 -128 OFFCURVE",
"1600 -128 CURVE SMOOTH",
"1728 -128 LINE SMOOTH",
"1763 -128 OFFCURVE",
"1792 -99 OFFCURVE",
"1792 -64 CURVE SMOOTH",
"1792 1344 LINE SMOOTH",
"1792 1379 OFFCURVE",
"1763 1408 OFFCURVE",
"1728 1408 CURVE SMOOTH",
"1600 1408 LINE SMOOTH",
"1565 1408 OFFCURVE",
"1536 1379 OFFCURVE",
"1536 1344 CURVE SMOOTH",
"1536 666 LINE",
"1533 673 OFFCURVE",
"1529 679 OFFCURVE",
"1523 685 CURVE SMOOTH",
"813 1395 LINE SMOOTH",
"788 1420 OFFCURVE",
"768 1411 OFFCURVE",
"768 1376 CURVE SMOOTH",
"768 666 LINE",
"765 673 OFFCURVE",
"761 679 OFFCURVE",
"755 685 CURVE SMOOTH",
"45 1395 LINE SMOOTH",
"20 1420 OFFCURVE",
"0 1411 OFFCURVE",
"0 1376 CURVE SMOOTH",
"0 -96 LINE SMOOTH",
"0 -131 OFFCURVE",
"20 -140 OFFCURVE",
"45 -115 CURVE SMOOTH"
);
}
);
width = 1792;
}
);
unicode = F050;
},
{
glyphname = step_forward;
layers = (
{
layerId = "7AA7152B-8BA7-42A8-974E-3097BEDBB58A";
name = Regular;
paths = (
{
closed = 1;
nodes = (
"755 595 LINE SMOOTH",
"761 601 OFFCURVE",
"765 607 OFFCURVE",
"768 614 CURVE",
"768 -64 LINE SMOOTH",
"768 -99 OFFCURVE",
"797 -128 OFFCURVE",
"832 -128 CURVE SMOOTH",
"960 -128 LINE SMOOTH",
"995 -128 OFFCURVE",
"1024 -99 OFFCURVE",
"1024 -64 CURVE SMOOTH",
"1024 1344 LINE SMOOTH",
"1024 1379 OFFCURVE",
"995 1408 OFFCURVE",
"960 1408 CURVE SMOOTH",
"832 1408 LINE SMOOTH",
"797 1408 OFFCURVE",
"768 1379 OFFCURVE",
"768 1344 CURVE SMOOTH",
"768 666 LINE",
"765 673 OFFCURVE",
"761 679 OFFCURVE",
"755 685 CURVE SMOOTH",
"45 1395 LINE SMOOTH",
"20 1420 OFFCURVE",
"0 1411 OFFCURVE",
"0 1376 CURVE SMOOTH",
"0 -96 LINE SMOOTH",
"0 -131 OFFCURVE",
"20 -140 OFFCURVE",
"45 -115 CURVE SMOOTH"
);
}
);
width = 1024;
}
);
unicode = F051;
},
{
glyphname = eject;
layers = (
{
layerId = "7AA7152B-8BA7-42A8-974E-3097BEDBB58A";
name = Regular;
paths = (
{
closed = 1;
nodes = (
"14 557 LINE SMOOTH",
"-11 532 OFFCURVE",
"-2 512 OFFCURVE",
"33 512 CURVE SMOOTH",
"1505 512 LINE SMOOTH",
"1540 512 OFFCURVE",
"1549 532 OFFCURVE",
"1524 557 CURVE SMOOTH",
"814 1267 LINE SMOOTH",
"789 1292 OFFCURVE",
"749 1292 OFFCURVE",
"724 1267 CURVE SMOOTH"
);
},
{
closed = 1;
nodes = (
"1473 0 LINE SMOOTH",
"1508 0 OFFCURVE",
"1537 29 OFFCURVE",
"1537 64 CURVE SMOOTH",
"1537 320 LINE SMOOTH",
"1537 355 OFFCURVE",
"1508 384 OFFCURVE",
"1473 384 CURVE SMOOTH",
"65 384 LINE SMOOTH",
"30 384 OFFCURVE",
"1 355 OFFCURVE",
"1 320 CURVE SMOOTH",
"1 64 LINE SMOOTH",
"1 29 OFFCURVE",
"30 0 OFFCURVE",
"65 0 CURVE SMOOTH"
);
}
);
width = 1538;
}
);
unicode = F052;
},
{
glyphname = chevron_left;
layers = (
{
layerId = "7AA7152B-8BA7-42A8-974E-3097BEDBB58A";
name = Regular;
paths = (
{
closed = 1;
nodes = (
"1196 1260 OFFCURVE",
"1196 1300 OFFCURVE",
"1171 1325 CURVE SMOOTH",
"1005 1491 LINE SMOOTH",
"980 1516 OFFCURVE",
"940 1516 OFFCURVE",
"915 1491 CURVE SMOOTH",
"173 749 LINE SMOOTH",
"148 724 OFFCURVE",
"148 684 OFFCURVE",
"173 659 CURVE SMOOTH",
"915 -83 LINE SMOOTH",
"940 -108 OFFCURVE",
"980 -108 OFFCURVE",
"1005 -83 CURVE SMOOTH",
"1171 83 LINE SMOOTH",
"1196 108 OFFCURVE",
"1196 148 OFFCURVE",
"1171 173 CURVE SMOOTH",
"640 704 LINE",
"1171 1235 LINE SMOOTH"
);
}
);
width = 1280;
}
);
unicode = F053;
},
{
glyphname = chevron_right;
layers = (
{
layerId = "7AA7152B-8BA7-42A8-974E-3097BEDBB58A";
name = Regular;
paths = (
{
closed = 1;
nodes = (
"1132 684 OFFCURVE",
"1132 724 OFFCURVE",
"1107 749 CURVE SMOOTH",
"365 1491 LINE SMOOTH",
"340 1516 OFFCURVE",
"300 1516 OFFCURVE",
"275 1491 CURVE SMOOTH",
"109 1325 LINE SMOOTH",
"84 1300 OFFCURVE",
"84 1260 OFFCURVE",
"109 1235 CURVE SMOOTH",
"640 704 LINE",
"109 173 LINE SMOOTH",
"84 148 OFFCURVE",
"84 108 OFFCURVE",
"109 83 CURVE SMOOTH",
"275 -83 LINE SMOOTH",
"300 -108 OFFCURVE",
"340 -108 OFFCURVE",
"365 -83 CURVE SMOOTH",
"1107 659 LINE SMOOTH"
);
}
);
width = 1280;
}
);
unicode = F054;
},
{
glyphname = plus_sign;
layers = (
{
layerId = "7AA7152B-8BA7-42A8-974E-3097BEDBB58A";
name = Regular;
paths = (
{
closed = 1;
nodes = (
"1216 541 OFFCURVE",
"1187 512 OFFCURVE",
"1152 512 CURVE SMOOTH",
"896 512 LINE",
"896 256 LINE SMOOTH",
"896 221 OFFCURVE",
"867 192 OFFCURVE",
"832 192 CURVE SMOOTH",
"704 192 LINE SMOOTH",
"669 192 OFFCURVE",
"640 221 OFFCURVE",
"640 256 CURVE SMOOTH",
"640 512 LINE",
"384 512 LINE SMOOTH",
"349 512 OFFCURVE",
"320 541 OFFCURVE",
"320 576 CURVE SMOOTH",
"320 704 LINE SMOOTH",
"320 739 OFFCURVE",
"349 768 OFFCURVE",
"384 768 CURVE SMOOTH",
"640 768 LINE",
"640 1024 LINE SMOOTH",
"640 1059 OFFCURVE",
"669 1088 OFFCURVE",
"704 1088 CURVE SMOOTH",
"832 1088 LINE SMOOTH",
"867 1088 OFFCURVE",
"896 1059 OFFCURVE",
"896 1024 CURVE SMOOTH",
"896 768 LINE",
"1152 768 LINE SMOOTH",
"1187 768 OFFCURVE",
"1216 739 OFFCURVE",
"1216 704 CURVE SMOOTH",
"1216 576 LINE SMOOTH"
);
},
{
closed = 1;
nodes = (
"1536 1064 OFFCURVE",
"1192 1408 OFFCURVE",
"768 1408 CURVE SMOOTH",
"344 1408 OFFCURVE",
"0 1064 OFFCURVE",
"0 640 CURVE SMOOTH",
"0 216 OFFCURVE",
"344 -128 OFFCURVE",
"768 -128 CURVE SMOOTH",
"1192 -128 OFFCURVE",
"1536 216 OFFCURVE",
"1536 640 CURVE SMOOTH"
);
}
);
width = 1536;
}
);
unicode = F055;
},
{
glyphname = minus_sign;
layers = (
{
layerId = "7AA7152B-8BA7-42A8-974E-3097BEDBB58A";
name = Regular;
paths = (
{
closed = 1;
nodes = (
"1216 541 OFFCURVE",
"1187 512 OFFCURVE",
"1152 512 CURVE SMOOTH",
"384 512 LINE SMOOTH",
"349 512 OFFCURVE",
"320 541 OFFCURVE",
"320 576 CURVE SMOOTH",
"320 704 LINE SMOOTH",
"320 739 OFFCURVE",
"349 768 OFFCURVE",
"384 768 CURVE SMOOTH",
"1152 768 LINE SMOOTH",
"1187 768 OFFCURVE",
"1216 739 OFFCURVE",
"1216 704 CURVE SMOOTH",
"1216 576 LINE SMOOTH"
);
},
{
closed = 1;
nodes = (
"1536 1064 OFFCURVE",
"1192 1408 OFFCURVE",
"768 1408 CURVE SMOOTH",
"344 1408 OFFCURVE",
"0 1064 OFFCURVE",
"0 640 CURVE SMOOTH",
"0 216 OFFCURVE",
"344 -128 OFFCURVE",
"768 -128 CURVE SMOOTH",
"1192 -128 OFFCURVE",
"1536 216 OFFCURVE",
"1536 640 CURVE SMOOTH"
);
}
);
width = 1536;
}
);
unicode = F056;
},
{
glyphname = remove_sign;
layers = (
{
layerId = "7AA7152B-8BA7-42A8-974E-3097BEDBB58A";
name = Regular;
paths = (
{
closed = 1;
nodes = (
"1149 397 OFFCURVE",
"1142 380 OFFCURVE",
"1130 368 CURVE SMOOTH",
"1040 278 LINE SMOOTH",
"1028 266 OFFCURVE",
"1011 259 OFFCURVE",
"994 259 CURVE SMOOTH",
"977 259 OFFCURVE",
"961 266 OFFCURVE",
"949 278 CURVE SMOOTH",
"768 459 LINE",
"587 278 LINE SMOOTH",
"575 266 OFFCURVE",
"559 259 OFFCURVE",
"542 259 CURVE SMOOTH",
"525 259 OFFCURVE",
"508 266 OFFCURVE",
"496 278 CURVE SMOOTH",
"406 368 LINE SMOOTH",
"394 380 OFFCURVE",
"387 397 OFFCURVE",
"387 414 CURVE SMOOTH",
"387 431 OFFCURVE",
"394 447 OFFCURVE",
"406 459 CURVE SMOOTH",
"587 640 LINE",
"406 821 LINE SMOOTH",
"394 833 OFFCURVE",
"387 849 OFFCURVE",
"387 866 CURVE SMOOTH",
"387 883 OFFCURVE",
"394 900 OFFCURVE",
"406 912 CURVE SMOOTH",
"496 1002 LINE SMOOTH",
"508 1014 OFFCURVE",
"525 1021 OFFCURVE",
"542 1021 CURVE SMOOTH",
"559 1021 OFFCURVE",
"575 1014 OFFCURVE",
"587 1002 CURVE SMOOTH",
"768 821 LINE",
"949 1002 LINE SMOOTH",
"961 1014 OFFCURVE",
"977 1021 OFFCURVE",
"994 1021 CURVE SMOOTH",
"1011 1021 OFFCURVE",
"1028 1014 OFFCURVE",
"1040 1002 CURVE SMOOTH",
"1130 912 LINE SMOOTH",
"1142 900 OFFCURVE",
"1149 883 OFFCURVE",
"1149 866 CURVE SMOOTH",
"1149 849 OFFCURVE",
"1142 833 OFFCURVE",
"1130 821 CURVE SMOOTH",
"949 640 LINE",
"1130 459 LINE SMOOTH",
"1142 447 OFFCURVE",
"1149 431 OFFCURVE",
"1149 414 CURVE SMOOTH"
);
},
{
closed = 1;
nodes = (
"1536 1064 OFFCURVE",
"1192 1408 OFFCURVE",
"768 1408 CURVE SMOOTH",
"344 1408 OFFCURVE",
"0 1064 OFFCURVE",
"0 640 CURVE SMOOTH",
"0 216 OFFCURVE",
"344 -128 OFFCURVE",
"768 -128 CURVE SMOOTH",
"1192 -128 OFFCURVE",
"1536 216 OFFCURVE",
"1536 640 CURVE SMOOTH"
);
}
);
width = 1536;
}
);
unicode = F057;
},
{
glyphname = ok_sign;
layers = (
{
layerId = "7AA7152B-8BA7-42A8-974E-3097BEDBB58A";
name = Regular;
paths = (
{
closed = 1;
nodes = (
"1284 785 OFFCURVE",
"1278 769 OFFCURVE",
"1266 757 CURVE SMOOTH",
"723 214 LINE SMOOTH",
"711 202 OFFCURVE",
"694 195 OFFCURVE",
"677 195 CURVE SMOOTH",
"661 195 OFFCURVE",
"644 202 OFFCURVE",
"632 214 CURVE SMOOTH",
"270 576 LINE SMOOTH",
"258 588 OFFCURVE",
"252 604 OFFCURVE",
"252 621 CURVE SMOOTH",
"252 638 OFFCURVE",
"258 655 OFFCURVE",
"270 667 CURVE SMOOTH",
"361 757 LINE SMOOTH",
"373 769 OFFCURVE",
"389 776 OFFCURVE",
"406 776 CURVE SMOOTH",
"423 776 OFFCURVE",
"439 769 OFFCURVE",
"451 757 CURVE SMOOTH",
"677 531 LINE",
"1085 938 LINE SMOOTH",
"1097 950 OFFCURVE",
"1113 957 OFFCURVE",
"1130 957 CURVE SMOOTH",
"1147 957 OFFCURVE",
"1163 950 OFFCURVE",
"1175 938 CURVE SMOOTH",
"1266 848 LINE SMOOTH",
"1278 836 OFFCURVE",
"1284 819 OFFCURVE",
"1284 802 CURVE SMOOTH"
);
},
{
closed = 1;
nodes = (
"1536 1064 OFFCURVE",
"1192 1408 OFFCURVE",
"768 1408 CURVE SMOOTH",
"344 1408 OFFCURVE",
"0 1064 OFFCURVE",
"0 640 CURVE SMOOTH",
"0 216 OFFCURVE",
"344 -128 OFFCURVE",
"768 -128 CURVE SMOOTH",
"1192 -128 OFFCURVE",
"1536 216 OFFCURVE",
"1536 640 CURVE SMOOTH"
);
}
);
width = 1536;
}
);
unicode = F058;
},
{
glyphname = question_sign;
layers = (
{
layerId = "7AA7152B-8BA7-42A8-974E-3097BEDBB58A";
name = Regular;
paths = (
{
closed = 1;
nodes = (
"896 142 OFFCURVE",
"882 128 OFFCURVE",
"864 128 CURVE SMOOTH",
"672 128 LINE SMOOTH",
"654 128 OFFCURVE",
"640 142 OFFCURVE",
"640 160 CURVE SMOOTH",
"640 352 LINE SMOOTH",
"640 370 OFFCURVE",
"654 384 OFFCURVE",
"672 384 CURVE SMOOTH",
"864 384 LINE SMOOTH",
"882 384 OFFCURVE",
"896 370 OFFCURVE",
"896 352 CURVE SMOOTH",
"896 160 LINE SMOOTH"
);
},
{
closed = 1;
nodes = (
"1152 680 OFFCURVE",
"1048 622 OFFCURVE",
"972 579 CURVE SMOOTH",
"925 552 OFFCURVE",
"896 503 OFFCURVE",
"896 480 CURVE",
"896 480 LINE",
"896 462 OFFCURVE",
"882 448 OFFCURVE",
"864 448 CURVE SMOOTH",
"672 448 LINE SMOOTH",
"654 448 OFFCURVE",
"640 462 OFFCURVE",
"640 480 CURVE SMOOTH",
"640 516 LINE SMOOTH",
"640 613 OFFCURVE",
"737 696 OFFCURVE",
"808 728 CURVE SMOOTH",
"869 756 OFFCURVE",
"896 782 OFFCURVE",
"896 834 CURVE SMOOTH",
"896 878 OFFCURVE",
"837 919 OFFCURVE",
"773 919 CURVE SMOOTH",
"737 919 OFFCURVE",
"704 907 OFFCURVE",
"687 895 CURVE SMOOTH",
"668 881 OFFCURVE",
"648 863 OFFCURVE",
"601 803 CURVE SMOOTH",
"595 795 OFFCURVE",
"585 791 OFFCURVE",
"576 791 CURVE SMOOTH",
"569 791 OFFCURVE",
"562 793 OFFCURVE",
"557 797 CURVE SMOOTH",
"425 897 LINE SMOOTH",
"412 907 OFFCURVE",
"408 925 OFFCURVE",
"417 939 CURVE SMOOTH",
"503 1082 OFFCURVE",
"625 1152 OFFCURVE",
"788 1152 CURVE SMOOTH",
"960 1152 OFFCURVE",
"1152 1015 OFFCURVE",
"1152 832 CURVE SMOOTH"
);
},
{
closed = 1;
nodes = (
"1536 1064 OFFCURVE",
"1192 1408 OFFCURVE",
"768 1408 CURVE SMOOTH",
"344 1408 OFFCURVE",
"0 1064 OFFCURVE",
"0 640 CURVE SMOOTH",
"0 216 OFFCURVE",
"344 -128 OFFCURVE",
"768 -128 CURVE SMOOTH",
"1192 -128 OFFCURVE",
"1536 216 OFFCURVE",
"1536 640 CURVE SMOOTH"
);
}
);
width = 1536;
}
);
unicode = F059;
},
{
glyphname = info_sign;
layers = (
{
layerId = "7AA7152B-8BA7-42A8-974E-3097BEDBB58A";
name = Regular;
paths = (
{
closed = 1;
nodes = (
"1024 142 OFFCURVE",
"1010 128 OFFCURVE",
"992 128 CURVE SMOOTH",
"544 128 LINE SMOOTH",
"526 128 OFFCURVE",
"512 142 OFFCURVE",
"512 160 CURVE SMOOTH",
"512 320 LINE SMOOTH",
"512 338 OFFCURVE",
"526 352 OFFCURVE",
"544 352 CURVE SMOOTH",
"640 352 LINE",
"640 672 LINE",
"544 672 LINE SMOOTH",
"526 672 OFFCURVE",
"512 686 OFFCURVE",
"512 704 CURVE SMOOTH",
"512 864 LINE SMOOTH",
"512 882 OFFCURVE",
"526 896 OFFCURVE",
"544 896 CURVE SMOOTH",
"864 896 LINE SMOOTH",
"882 896 OFFCURVE",
"896 882 OFFCURVE",
"896 864 CURVE SMOOTH",
"896 352 LINE",
"992 352 LINE SMOOTH",
"1010 352 OFFCURVE",
"1024 338 OFFCURVE",
"1024 320 CURVE SMOOTH",
"1024 160 LINE SMOOTH"
);
},
{
closed = 1;
nodes = (
"896 1038 OFFCURVE",
"882 1024 OFFCURVE",
"864 1024 CURVE SMOOTH",
"672 1024 LINE SMOOTH",
"654 1024 OFFCURVE",
"640 1038 OFFCURVE",
"640 1056 CURVE SMOOTH",
"640 1216 LINE SMOOTH",
"640 1234 OFFCURVE",
"654 1248 OFFCURVE",
"672 1248 CURVE SMOOTH",
"864 1248 LINE SMOOTH",
"882 1248 OFFCURVE",
"896 1234 OFFCURVE",
"896 1216 CURVE SMOOTH",
"896 1056 LINE SMOOTH"
);
},
{
closed = 1;
nodes = (
"1536 1064 OFFCURVE",
"1192 1408 OFFCURVE",
"768 1408 CURVE SMOOTH",
"344 1408 OFFCURVE",
"0 1064 OFFCURVE",
"0 640 CURVE SMOOTH",
"0 216 OFFCURVE",
"344 -128 OFFCURVE",
"768 -128 CURVE SMOOTH",
"1192 -128 OFFCURVE",
"1536 216 OFFCURVE",
"1536 640 CURVE SMOOTH"
);
}
);
width = 1536;
}
);
unicode = F05A;
},
{
glyphname = screenshot;
layers = (
{
layerId = "7AA7152B-8BA7-42A8-974E-3097BEDBB58A";
name = Regular;
paths = (
{
closed = 1;
nodes = (
"1154 368 OFFCURVE",
"1040 254 OFFCURVE",
"896 211 CURVE",
"896 320 LINE SMOOTH",
"896 355 OFFCURVE",
"867 384 OFFCURVE",
"832 384 CURVE SMOOTH",
"704 384 LINE SMOOTH",
"669 384 OFFCURVE",
"640 355 OFFCURVE",
"640 320 CURVE SMOOTH",
"640 211 LINE",
"496 254 OFFCURVE",
"382 368 OFFCURVE",
"339 512 CURVE",
"448 512 LINE SMOOTH",
"483 512 OFFCURVE",
"512 541 OFFCURVE",
"512 576 CURVE SMOOTH",
"512 704 LINE SMOOTH",
"512 739 OFFCURVE",
"483 768 OFFCURVE",
"448 768 CURVE SMOOTH",
"339 768 LINE",
"382 912 OFFCURVE",
"496 1026 OFFCURVE",
"640 1069 CURVE",
"640 960 LINE SMOOTH",
"640 925 OFFCURVE",
"669 896 OFFCURVE",
"704 896 CURVE SMOOTH",
"832 896 LINE SMOOTH",
"867 896 OFFCURVE",
"896 925 OFFCURVE",
"896 960 CURVE SMOOTH",
"896 1069 LINE",
"1040 1026 OFFCURVE",
"1154 912 OFFCURVE",
"1197 768 CURVE",
"1088 768 LINE SMOOTH",
"1053 768 OFFCURVE",
"1024 739 OFFCURVE",
"1024 704 CURVE SMOOTH",
"1024 576 LINE SMOOTH",
"1024 541 OFFCURVE",
"1053 512 OFFCURVE",
"1088 512 CURVE SMOOTH",
"1197 512 LINE"
);
},
{
closed = 1;
nodes = (
"1536 704 LINE SMOOTH",
"1536 739 OFFCURVE",
"1507 768 OFFCURVE",
"1472 768 CURVE SMOOTH",
"1329 768 LINE",
"1280 983 OFFCURVE",
"1111 1152 OFFCURVE",
"896 1201 CURVE",
"896 1344 LINE SMOOTH",
"896 1379 OFFCURVE",
"867 1408 OFFCURVE",
"832 1408 CURVE SMOOTH",
"704 1408 LINE SMOOTH",
"669 1408 OFFCURVE",
"640 1379 OFFCURVE",
"640 1344 CURVE SMOOTH",
"640 1201 LINE",
"425 1152 OFFCURVE",
"256 983 OFFCURVE",
"207 768 CURVE",
"64 768 LINE SMOOTH",
"29 768 OFFCURVE",
"0 739 OFFCURVE",
"0 704 CURVE SMOOTH",
"0 576 LINE SMOOTH",
"0 541 OFFCURVE",
"29 512 OFFCURVE",
"64 512 CURVE SMOOTH",
"207 512 LINE",
"256 297 OFFCURVE",
"425 128 OFFCURVE",
"640 79 CURVE",
"640 -64 LINE SMOOTH",
"640 -99 OFFCURVE",
"669 -128 OFFCURVE",
"704 -128 CURVE SMOOTH",
"832 -128 LINE SMOOTH",
"867 -128 OFFCURVE",
"896 -99 OFFCURVE",
"896 -64 CURVE SMOOTH",
"896 79 LINE",
"1111 128 OFFCURVE",
"1280 297 OFFCURVE",
"1329 512 CURVE",
"1472 512 LINE SMOOTH",
"1507 512 OFFCURVE",
"1536 541 OFFCURVE",
"1536 576 CURVE SMOOTH"
);
}
);
width = 1536;
}
);
unicode = F05B;
},
{
glyphname = remove_circle;
layers = (
{
layerId = "7AA7152B-8BA7-42A8-974E-3097BEDBB58A";
name = Regular;
paths = (
{
closed = 1;
nodes = (
"1110 470 OFFCURVE",
"1110 490 OFFCURVE",
"1097 503 CURVE SMOOTH",
"960 640 LINE",
"1097 777 LINE SMOOTH",
"1110 790 OFFCURVE",
"1110 810 OFFCURVE",
"1097 823 CURVE SMOOTH",
"951 969 LINE SMOOTH",
"938 982 OFFCURVE",
"918 982 OFFCURVE",
"905 969 CURVE SMOOTH",
"768 832 LINE",
"631 969 LINE SMOOTH",
"618 982 OFFCURVE",
"598 982 OFFCURVE",
"585 969 CURVE SMOOTH",
"439 823 LINE SMOOTH",
"426 810 OFFCURVE",
"426 790 OFFCURVE",
"439 777 CURVE SMOOTH",
"576 640 LINE",
"439 503 LINE SMOOTH",
"426 490 OFFCURVE",
"426 470 OFFCURVE",
"439 457 CURVE SMOOTH",
"585 311 LINE SMOOTH",
"598 298 OFFCURVE",
"618 298 OFFCURVE",
"631 311 CURVE SMOOTH",
"768 448 LINE",
"905 311 LINE SMOOTH",
"918 298 OFFCURVE",
"938 298 OFFCURVE",
"951 311 CURVE SMOOTH",
"1097 457 LINE SMOOTH"
);
},
{
closed = 1;
nodes = (
"1312 340 OFFCURVE",
"1068 96 OFFCURVE",
"768 96 CURVE SMOOTH",
"468 96 OFFCURVE",
"224 340 OFFCURVE",
"224 640 CURVE SMOOTH",
"224 940 OFFCURVE",
"468 1184 OFFCURVE",
"768 1184 CURVE SMOOTH",
"1068 1184 OFFCURVE",
"1312 940 OFFCURVE",
"1312 640 CURVE SMOOTH"
);
},
{
closed = 1;
nodes = (
"1536 1064 OFFCURVE",
"1192 1408 OFFCURVE",
"768 1408 CURVE SMOOTH",
"344 1408 OFFCURVE",
"0 1064 OFFCURVE",
"0 640 CURVE SMOOTH",
"0 216 OFFCURVE",
"344 -128 OFFCURVE",
"768 -128 CURVE SMOOTH",
"1192 -128 OFFCURVE",
"1536 216 OFFCURVE",
"1536 640 CURVE SMOOTH"
);
}
);
width = 1536;
}
);
unicode = F05C;
},
{
glyphname = ok_circle;
layers = (
{
layerId = "7AA7152B-8BA7-42A8-974E-3097BEDBB58A";
name = Regular;
paths = (
{
closed = 1;
nodes = (
"1196 748 OFFCURVE",
"1196 788 OFFCURVE",
"1171 813 CURVE SMOOTH",
"1069 915 LINE SMOOTH",
"1044 940 OFFCURVE",
"1004 940 OFFCURVE",
"979 915 CURVE SMOOTH",
"704 640 LINE",
"557 787 LINE SMOOTH",
"532 812 OFFCURVE",
"492 812 OFFCURVE",
"467 787 CURVE SMOOTH",
"365 685 LINE SMOOTH",
"340 660 OFFCURVE",
"340 620 OFFCURVE",
"365 595 CURVE SMOOTH",
"659 301 LINE SMOOTH",
"684 276 OFFCURVE",
"724 276 OFFCURVE",
"749 301 CURVE SMOOTH",
"1171 723 LINE SMOOTH"
);
},
{
closed = 1;
nodes = (
"1312 340 OFFCURVE",
"1068 96 OFFCURVE",
"768 96 CURVE SMOOTH",
"468 96 OFFCURVE",
"224 340 OFFCURVE",
"224 640 CURVE SMOOTH",
"224 940 OFFCURVE",
"468 1184 OFFCURVE",
"768 1184 CURVE SMOOTH",
"1068 1184 OFFCURVE",
"1312 940 OFFCURVE",
"1312 640 CURVE SMOOTH"
);
},
{
closed = 1;
nodes = (
"1536 1064 OFFCURVE",
"1192 1408 OFFCURVE",
"768 1408 CURVE SMOOTH",
"344 1408 OFFCURVE",
"0 1064 OFFCURVE",
"0 640 CURVE SMOOTH",
"0 216 OFFCURVE",
"344 -128 OFFCURVE",
"768 -128 CURVE SMOOTH",
"1192 -128 OFFCURVE",
"1536 216 OFFCURVE",
"1536 640 CURVE SMOOTH"
);
}
);
width = 1536;
}
);
unicode = F05D;
},
{
glyphname = ban_circle;
layers = (
{
layerId = "7AA7152B-8BA7-42A8-974E-3097BEDBB58A";
name = Regular;
paths = (
{
closed = 1;
nodes = (
"1312 341 OFFCURVE",
"1068 96 OFFCURVE",
"768 96 CURVE SMOOTH",
"659 96 OFFCURVE",
"557 129 OFFCURVE",
"471 185 CURVE",
"1225 938 LINE",
"1280 853 OFFCURVE",
"1312 752 OFFCURVE",
"1312 643 CURVE SMOOTH"
);
},
{
closed = 1;
nodes = (
"313 344 LINE",
"257 430 OFFCURVE",
"224 532 OFFCURVE",
"224 643 CURVE SMOOTH",
"224 944 OFFCURVE",
"468 1189 OFFCURVE",
"768 1189 CURVE SMOOTH",
"879 1189 OFFCURVE",
"982 1156 OFFCURVE",
"1068 1098 CURVE"
);
},
{
closed = 1;
nodes = (
"1536 1068 OFFCURVE",
"1192 1413 OFFCURVE",
"768 1413 CURVE SMOOTH",
"344 1413 OFFCURVE",
"0 1068 OFFCURVE",
"0 643 CURVE SMOOTH",
"0 217 OFFCURVE",
"344 -128 OFFCURVE",
"768 -128 CURVE SMOOTH",
"1192 -128 OFFCURVE",
"1536 217 OFFCURVE",
"1536 643 CURVE SMOOTH"
);
}
);
width = 1536;
}
);
unicode = F05E;
},
{
glyphname = arrow_left;
layers = (
{
layerId = "7AA7152B-8BA7-42A8-974E-3097BEDBB58A";
name = Regular;
paths = (
{
closed = 1;
nodes = (
"1536 640 LINE SMOOTH",
"1536 708 OFFCURVE",
"1491 768 OFFCURVE",
"1419 768 CURVE SMOOTH",
"715 768 LINE",
"1008 1061 LINE SMOOTH",
"1032 1085 OFFCURVE",
"1046 1118 OFFCURVE",
"1046 1152 CURVE SMOOTH",
"1046 1186 OFFCURVE",
"1032 1219 OFFCURVE",
"1008 1243 CURVE SMOOTH",
"933 1317 LINE SMOOTH",
"909 1341 OFFCURVE",
"877 1355 OFFCURVE",
"843 1355 CURVE SMOOTH",
"809 1355 OFFCURVE",
"776 1341 OFFCURVE",
"752 1317 CURVE SMOOTH",
"101 667 LINE SMOOTH",
"78 643 OFFCURVE",
"64 610 OFFCURVE",
"64 576 CURVE SMOOTH",
"64 542 OFFCURVE",
"78 509 OFFCURVE",
"101 486 CURVE SMOOTH",
"752 -166 LINE SMOOTH",
"776 -189 OFFCURVE",
"809 -203 OFFCURVE",
"843 -203 CURVE SMOOTH",
"877 -203 OFFCURVE",
"910 -189 OFFCURVE",
"933 -166 CURVE SMOOTH",
"1008 -90 LINE SMOOTH",
"1032 -67 OFFCURVE",
"1046 -34 OFFCURVE",
"1046 0 CURVE SMOOTH",
"1046 34 OFFCURVE",
"1032 67 OFFCURVE",
"1008 90 CURVE SMOOTH",
"715 384 LINE",
"1419 384 LINE SMOOTH",
"1491 384 OFFCURVE",
"1536 444 OFFCURVE",
"1536 512 CURVE SMOOTH"
);
}
);
width = 1536;
}
);
unicode = F060;
},
{
glyphname = arrow_right;
layers = (
{
layerId = "7AA7152B-8BA7-42A8-974E-3097BEDBB58A";
name = Regular;
paths = (
{
closed = 1;
nodes = (
"1472 610 OFFCURVE",
"1459 643 OFFCURVE",
"1435 666 CURVE SMOOTH",
"784 1317 LINE SMOOTH",
"760 1341 OFFCURVE",
"727 1355 OFFCURVE",
"693 1355 CURVE SMOOTH",
"659 1355 OFFCURVE",
"627 1341 OFFCURVE",
"603 1317 CURVE SMOOTH",
"528 1242 LINE SMOOTH",
"504 1219 OFFCURVE",
"490 1186 OFFCURVE",
"490 1152 CURVE SMOOTH",
"490 1118 OFFCURVE",
"504 1085 OFFCURVE",
"528 1062 CURVE SMOOTH",
"821 768 LINE",
"117 768 LINE SMOOTH",
"45 768 OFFCURVE",
"0 708 OFFCURVE",
"0 640 CURVE SMOOTH",
"0 512 LINE SMOOTH",
"0 444 OFFCURVE",
"45 384 OFFCURVE",
"117 384 CURVE SMOOTH",
"821 384 LINE",
"528 91 LINE SMOOTH",
"504 67 OFFCURVE",
"490 34 OFFCURVE",
"490 0 CURVE SMOOTH",
"490 -34 OFFCURVE",
"504 -67 OFFCURVE",
"528 -91 CURVE SMOOTH",
"603 -166 LINE SMOOTH",
"627 -189 OFFCURVE",
"659 -203 OFFCURVE",
"693 -203 CURVE SMOOTH",
"727 -203 OFFCURVE",
"760 -189 OFFCURVE",
"784 -166 CURVE SMOOTH",
"1435 485 LINE SMOOTH",
"1459 509 OFFCURVE",
"1472 542 OFFCURVE",
"1472 576 CURVE SMOOTH"
);
}
);
width = 1536;
}
);
unicode = F061;
},
{
glyphname = arrow_up;
layers = (
{
layerId = "7AA7152B-8BA7-42A8-974E-3097BEDBB58A";
name = Regular;
paths = (
{
closed = 1;
nodes = (
"1611 599 OFFCURVE",
"1597 632 OFFCURVE",
"1574 656 CURVE SMOOTH",
"923 1307 LINE SMOOTH",
"899 1331 OFFCURVE",
"866 1344 OFFCURVE",
"832 1344 CURVE SMOOTH",
"798 1344 OFFCURVE",
"765 1331 OFFCURVE",
"742 1307 CURVE SMOOTH",
"91 656 LINE SMOOTH",
"67 632 OFFCURVE",
"53 599 OFFCURVE",
"53 565 CURVE SMOOTH",
"53 531 OFFCURVE",
"67 499 OFFCURVE",
"91 475 CURVE SMOOTH",
"166 400 LINE SMOOTH",
"189 376 OFFCURVE",
"222 362 OFFCURVE",
"256 362 CURVE SMOOTH",
"290 362 OFFCURVE",
"323 376 OFFCURVE",
"346 400 CURVE SMOOTH",
"640 693 LINE",
"640 -11 LINE SMOOTH",
"640 -83 OFFCURVE",
"700 -128 OFFCURVE",
"768 -128 CURVE SMOOTH",
"896 -128 LINE SMOOTH",
"964 -128 OFFCURVE",
"1024 -83 OFFCURVE",
"1024 -11 CURVE SMOOTH",
"1024 693 LINE",
"1318 400 LINE SMOOTH",
"1341 376 OFFCURVE",
"1374 362 OFFCURVE",
"1408 362 CURVE SMOOTH",
"1442 362 OFFCURVE",
"1475 376 OFFCURVE",
"1499 400 CURVE SMOOTH",
"1574 475 LINE SMOOTH",
"1597 499 OFFCURVE",
"1611 531 OFFCURVE",
"1611 565 CURVE SMOOTH"
);
}
);
width = 1664;
}
);
unicode = F062;
},
{
glyphname = arrow_down;
layers = (
{
layerId = "7AA7152B-8BA7-42A8-974E-3097BEDBB58A";
name = Regular;
paths = (
{
closed = 1;
nodes = (
"1611 738 OFFCURVE",
"1597 771 OFFCURVE",
"1574 795 CURVE SMOOTH",
"1499 870 LINE SMOOTH",
"1475 893 OFFCURVE",
"1442 907 OFFCURVE",
"1408 907 CURVE SMOOTH",
"1374 907 OFFCURVE",
"1341 893 OFFCURVE",
"1318 870 CURVE SMOOTH",
"1024 576 LINE",
"1024 1280 LINE SMOOTH",
"1024 1350 OFFCURVE",
"966 1408 OFFCURVE",
"896 1408 CURVE SMOOTH",
"768 1408 LINE SMOOTH",
"698 1408 OFFCURVE",
"640 1350 OFFCURVE",
"640 1280 CURVE SMOOTH",
"640 576 LINE",
"346 870 LINE SMOOTH",
"323 893 OFFCURVE",
"290 907 OFFCURVE",
"256 907 CURVE SMOOTH",
"222 907 OFFCURVE",
"189 893 OFFCURVE",
"165 870 CURVE SMOOTH",
"91 795 LINE SMOOTH",
"67 771 OFFCURVE",
"53 738 OFFCURVE",
"53 704 CURVE SMOOTH",
"53 670 OFFCURVE",
"67 637 OFFCURVE",
"91 614 CURVE SMOOTH",
"742 -38 LINE SMOOTH",
"765 -61 OFFCURVE",
"798 -75 OFFCURVE",
"832 -75 CURVE SMOOTH",
"866 -75 OFFCURVE",
"899 -61 OFFCURVE",
"923 -38 CURVE SMOOTH",
"1574 614 LINE SMOOTH",
"1597 637 OFFCURVE",
"1611 670 OFFCURVE",
"1611 704 CURVE SMOOTH"
);
}
);
width = 1664;
}
);
unicode = F063;
},
{
glyphname = share_alt;
layers = (
{
layerId = "7AA7152B-8BA7-42A8-974E-3097BEDBB58A";
name = Regular;
paths = (
{
closed = 1;
nodes = (
"1792 913 OFFCURVE",
"1785 929 OFFCURVE",
"1773 941 CURVE SMOOTH",
"1261 1453 LINE SMOOTH",
"1249 1465 OFFCURVE",
"1233 1472 OFFCURVE",
"1216 1472 CURVE SMOOTH",
"1181 1472 OFFCURVE",
"1152 1443 OFFCURVE",
"1152 1408 CURVE SMOOTH",
"1152 1152 LINE",
"928 1152 LINE SMOOTH",
"600 1152 OFFCURVE",
"192 1094 OFFCURVE",
"53 749 CURVE SMOOTH",
"11 643 OFFCURVE",
"0 528 OFFCURVE",
"0 416 CURVE SMOOTH",
"0 276 OFFCURVE",
"70 93 OFFCURVE",
"127 -35 CURVE SMOOTH",
"138 -58 OFFCURVE",
"149 -90 OFFCURVE",
"164 -111 CURVE SMOOTH",
"171 -121 OFFCURVE",
"178 -128 OFFCURVE",
"192 -128 CURVE SMOOTH",
"212 -128 OFFCURVE",
"224 -112 OFFCURVE",
"224 -93 CURVE SMOOTH",
"224 -77 OFFCURVE",
"220 -59 OFFCURVE",
"219 -43 CURVE SMOOTH",
"216 -2 OFFCURVE",
"214 39 OFFCURVE",
"214 80 CURVE SMOOTH",
"214 557 OFFCURVE",
"497 640 OFFCURVE",
"928 640 CURVE SMOOTH",
"1152 640 LINE",
"1152 384 LINE SMOOTH",
"1152 349 OFFCURVE",
"1181 320 OFFCURVE",
"1216 320 CURVE SMOOTH",
"1233 320 OFFCURVE",
"1249 327 OFFCURVE",
"1261 339 CURVE SMOOTH",
"1773 851 LINE SMOOTH",
"1785 863 OFFCURVE",
"1792 879 OFFCURVE",
"1792 896 CURVE SMOOTH"
);
}
);
width = 1792;
}
);
unicode = F064;
},
{
glyphname = resize_full;
layers = (
{
layerId = "7AA7152B-8BA7-42A8-974E-3097BEDBB58A";
name = Regular;
paths = (
{
closed = 1;
nodes = (
"755 488 OFFCURVE",
"751 497 OFFCURVE",
"745 503 CURVE SMOOTH",
"631 617 LINE SMOOTH",
"625 623 OFFCURVE",
"616 627 OFFCURVE",
"608 627 CURVE SMOOTH",
"600 627 OFFCURVE",
"591 623 OFFCURVE",
"585 617 CURVE SMOOTH",
"253 285 LINE",
"109 429 LINE SMOOTH",
"97 441 OFFCURVE",
"81 448 OFFCURVE",
"64 448 CURVE SMOOTH",
"29 448 OFFCURVE",
"0 419 OFFCURVE",
"0 384 CURVE SMOOTH",
"0 -64 LINE SMOOTH",
"0 -99 OFFCURVE",
"29 -128 OFFCURVE",
"64 -128 CURVE SMOOTH",
"512 -128 LINE SMOOTH",
"547 -128 OFFCURVE",
"576 -99 OFFCURVE",
"576 -64 CURVE SMOOTH",
"576 -47 OFFCURVE",
"569 -31 OFFCURVE",
"557 -19 CURVE SMOOTH",
"413 125 LINE",
"745 457 LINE SMOOTH",
"751 463 OFFCURVE",
"755 472 OFFCURVE",
"755 480 CURVE SMOOTH"
);
},
{
closed = 1;
nodes = (
"1536 1344 LINE SMOOTH",
"1536 1379 OFFCURVE",
"1507 1408 OFFCURVE",
"1472 1408 CURVE SMOOTH",
"1024 1408 LINE SMOOTH",
"989 1408 OFFCURVE",
"960 1379 OFFCURVE",
"960 1344 CURVE SMOOTH",
"960 1327 OFFCURVE",
"967 1311 OFFCURVE",
"979 1299 CURVE SMOOTH",
"1123 1155 LINE",
"791 823 LINE SMOOTH",
"785 817 OFFCURVE",
"781 808 OFFCURVE",
"781 800 CURVE SMOOTH",
"781 792 OFFCURVE",
"785 783 OFFCURVE",
"791 777 CURVE SMOOTH",
"905 663 LINE SMOOTH",
"911 657 OFFCURVE",
"920 653 OFFCURVE",
"928 653 CURVE SMOOTH",
"936 653 OFFCURVE",
"945 657 OFFCURVE",
"951 663 CURVE SMOOTH",
"1283 995 LINE",
"1427 851 LINE SMOOTH",
"1439 839 OFFCURVE",
"1455 832 OFFCURVE",
"1472 832 CURVE SMOOTH",
"1507 832 OFFCURVE",
"1536 861 OFFCURVE",
"1536 896 CURVE SMOOTH"
);
}
);
width = 1536;
}
);
unicode = F065;
},
{
glyphname = resize_small;
layers = (
{
layerId = "7AA7152B-8BA7-42A8-974E-3097BEDBB58A";
name = Regular;
paths = (
{
closed = 1;
nodes = (
"768 576 LINE SMOOTH",
"768 611 OFFCURVE",
"739 640 OFFCURVE",
"704 640 CURVE SMOOTH",
"256 640 LINE SMOOTH",
"221 640 OFFCURVE",
"192 611 OFFCURVE",
"192 576 CURVE SMOOTH",
"192 559 OFFCURVE",
"199 543 OFFCURVE",
"211 531 CURVE SMOOTH",
"355 387 LINE",
"23 55 LINE SMOOTH",
"17 49 OFFCURVE",
"13 40 OFFCURVE",
"13 32 CURVE SMOOTH",
"13 24 OFFCURVE",
"17 15 OFFCURVE",
"23 9 CURVE SMOOTH",
"137 -105 LINE SMOOTH",
"143 -111 OFFCURVE",
"152 -115 OFFCURVE",
"160 -115 CURVE SMOOTH",
"168 -115 OFFCURVE",
"177 -111 OFFCURVE",
"183 -105 CURVE SMOOTH",
"515 227 LINE",
"659 83 LINE SMOOTH",
"671 71 OFFCURVE",
"687 64 OFFCURVE",
"704 64 CURVE SMOOTH",
"739 64 OFFCURVE",
"768 93 OFFCURVE",
"768 128 CURVE SMOOTH"
);
},
{
closed = 1;
nodes = (
"1523 1256 OFFCURVE",
"1519 1265 OFFCURVE",
"1513 1271 CURVE SMOOTH",
"1399 1385 LINE SMOOTH",
"1393 1391 OFFCURVE",
"1384 1395 OFFCURVE",
"1376 1395 CURVE SMOOTH",
"1368 1395 OFFCURVE",
"1359 1391 OFFCURVE",
"1353 1385 CURVE SMOOTH",
"1021 1053 LINE",
"877 1197 LINE SMOOTH",
"865 1209 OFFCURVE",
"849 1216 OFFCURVE",
"832 1216 CURVE SMOOTH",
"797 1216 OFFCURVE",
"768 1187 OFFCURVE",
"768 1152 CURVE SMOOTH",
"768 704 LINE SMOOTH",
"768 669 OFFCURVE",
"797 640 OFFCURVE",
"832 640 CURVE SMOOTH",
"1280 640 LINE SMOOTH",
"1315 640 OFFCURVE",
"1344 669 OFFCURVE",
"1344 704 CURVE SMOOTH",
"1344 721 OFFCURVE",
"1337 737 OFFCURVE",
"1325 749 CURVE SMOOTH",
"1181 893 LINE",
"1513 1225 LINE SMOOTH",
"1519 1231 OFFCURVE",
"1523 1240 OFFCURVE",
"1523 1248 CURVE SMOOTH"
);
}
);
width = 1536;
}
);
unicode = F066;
},
{
glyphname = exclamation_sign;
layers = (
{
layerId = "7AA7152B-8BA7-42A8-974E-3097BEDBB58A";
name = Regular;
paths = (
{
closed = 1;
nodes = (
"344 1408 OFFCURVE",
"0 1064 OFFCURVE",
"0 640 CURVE SMOOTH",
"0 216 OFFCURVE",
"344 -128 OFFCURVE",
"768 -128 CURVE SMOOTH",
"1192 -128 OFFCURVE",
"1536 216 OFFCURVE",
"1536 640 CURVE SMOOTH",
"1536 1064 OFFCURVE",
"1192 1408 OFFCURVE",
"768 1408 CURVE SMOOTH"
);
},
{
closed = 1;
nodes = (
"896 161 LINE SMOOTH",
"896 143 OFFCURVE",
"882 128 OFFCURVE",
"865 128 CURVE SMOOTH",
"673 128 LINE SMOOTH",
"655 128 OFFCURVE",
"640 143 OFFCURVE",
"640 161 CURVE SMOOTH",
"640 351 LINE SMOOTH",
"640 369 OFFCURVE",
"655 384 OFFCURVE",
"673 384 CURVE SMOOTH",
"865 384 LINE SMOOTH",
"882 384 OFFCURVE",
"896 369 OFFCURVE",
"896 351 CURVE SMOOTH"
);
},
{
closed = 1;
nodes = (
"894 505 LINE",
"893 491 OFFCURVE",
"878 480 OFFCURVE",
"860 480 CURVE SMOOTH",
"675 480 LINE SMOOTH",
"656 480 OFFCURVE",
"641 491 OFFCURVE",
"641 505 CURVE",
"624 1126 LINE",
"624 1133 OFFCURVE",
"627 1140 OFFCURVE",
"634 1144 CURVE",
"640 1149 OFFCURVE",
"649 1152 OFFCURVE",
"658 1152 CURVE SMOOTH",
"878 1152 LINE SMOOTH",
"887 1152 OFFCURVE",
"896 1149 OFFCURVE",
"902 1144 CURVE",
"909 1140 OFFCURVE",
"912 1133 OFFCURVE",
"912 1126 CURVE SMOOTH"
);
}
);
width = 1536;
}
);
unicode = F06A;
},
{
glyphname = gift;
layers = (
{
layerId = "7AA7152B-8BA7-42A8-974E-3097BEDBB58A";
name = Regular;
paths = (
{
closed = 1;
nodes = (
"928 145 OFFCURVE",
"899 128 OFFCURVE",
"864 128 CURVE SMOOTH",
"672 128 LINE SMOOTH",
"637 128 OFFCURVE",
"608 145 OFFCURVE",
"608 180 CURVE SMOOTH",
"608 236 LINE",
"608 704 LINE",
"608 896 LINE",
"928 896 LINE",
"928 704 LINE",
"928 236 LINE",
"928 180 LINE SMOOTH"
);
},
{
closed = 1;
nodes = (
"472 1024 LINE SMOOTH",
"419 1024 OFFCURVE",
"376 1067 OFFCURVE",
"376 1120 CURVE SMOOTH",
"376 1173 OFFCURVE",
"419 1216 OFFCURVE",
"472 1216 CURVE SMOOTH",
"506 1216 OFFCURVE",
"530 1198 OFFCURVE",
"541 1185 CURVE",
"667 1024 LINE"
);
},
{
closed = 1;
nodes = (
"1160 1067 OFFCURVE",
"1117 1024 OFFCURVE",
"1064 1024 CURVE SMOOTH",
"870 1024 LINE",
"995 1185 LINE",
"1006 1198 OFFCURVE",
"1030 1216 OFFCURVE",
"1064 1216 CURVE SMOOTH",
"1117 1216 OFFCURVE",
"1160 1173 OFFCURVE",
"1160 1120 CURVE SMOOTH"
);
},
{
closed = 1;
nodes = (
"1536 864 LINE SMOOTH",
"1536 882 OFFCURVE",
"1522 896 OFFCURVE",
"1504 896 CURVE SMOOTH",
"1064 896 LINE",
"1188 896 OFFCURVE",
"1288 996 OFFCURVE",
"1288 1120 CURVE SMOOTH",
"1288 1244 OFFCURVE",
"1188 1344 OFFCURVE",
"1064 1344 CURVE SMOOTH",
"997 1344 OFFCURVE",
"935 1316 OFFCURVE",
"896 1267 CURVE SMOOTH",
"768 1102 LINE",
"640 1267 LINE SMOOTH",
"601 1316 OFFCURVE",
"539 1344 OFFCURVE",
"472 1344 CURVE SMOOTH",
"348 1344 OFFCURVE",
"248 1244 OFFCURVE",
"248 1120 CURVE SMOOTH",
"248 996 OFFCURVE",
"348 896 OFFCURVE",
"472 896 CURVE",
"32 896 LINE SMOOTH",
"14 896 OFFCURVE",
"0 882 OFFCURVE",
"0 864 CURVE SMOOTH",
"0 544 LINE SMOOTH",
"0 526 OFFCURVE",
"14 512 OFFCURVE",
"32 512 CURVE SMOOTH",
"128 512 LINE",
"128 96 LINE SMOOTH",
"128 43 OFFCURVE",
"171 0 OFFCURVE",
"224 0 CURVE SMOOTH",
"1312 0 LINE SMOOTH",
"1365 0 OFFCURVE",
"1408 43 OFFCURVE",
"1408 96 CURVE SMOOTH",
"1408 512 LINE",
"1504 512 LINE SMOOTH",
"1522 512 OFFCURVE",
"1536 526 OFFCURVE",
"1536 544 CURVE SMOOTH"
);
}
);
width = 1536;
}
);
unicode = F06B;
},
{
glyphname = leaf;
layers = (
{
layerId = "7AA7152B-8BA7-42A8-974E-3097BEDBB58A";
name = Regular;
paths = (
{
closed = 1;
nodes = (
"1280 797 OFFCURVE",
"1251 768 OFFCURVE",
"1216 768 CURVE SMOOTH",
"970 768 OFFCURVE",
"815 703 OFFCURVE",
"634 540 CURVE SMOOTH",
"586 495 OFFCURVE",
"542 447 OFFCURVE",
"493 403 CURVE SMOOTH",
"480 391 OFFCURVE",
"466 384 OFFCURVE",
"448 384 CURVE SMOOTH",
"413 384 OFFCURVE",
"384 413 OFFCURVE",
"384 448 CURVE SMOOTH",
"384 466 OFFCURVE",
"391 480 OFFCURVE",
"403 493 CURVE SMOOTH",
"634 748 OFFCURVE",
"862 896 OFFCURVE",
"1216 896 CURVE SMOOTH",
"1251 896 OFFCURVE",
"1280 867 OFFCURVE",
"1280 832 CURVE SMOOTH"
);
},
{
closed = 1;
nodes = (
"1792 1115 OFFCURVE",
"1755 1408 OFFCURVE",
"1642 1408 CURVE SMOOTH",
"1558 1408 OFFCURVE",
"1531 1361 OFFCURVE",
"1476 1310 CURVE SMOOTH",
"1337 1178 OFFCURVE",
"901 1257 OFFCURVE",
"696 1189 CURVE SMOOTH",
"412 1095 OFFCURVE",
"159 868 OFFCURVE",
"159 550 CURVE SMOOTH",
"159 515 OFFCURVE",
"162 480 OFFCURVE",
"168 446 CURVE SMOOTH",
"172 426 OFFCURVE",
"198 373 OFFCURVE",
"198 364 CURVE SMOOTH",
"198 306 OFFCURVE",
"0 225 OFFCURVE",
"0 121 CURVE SMOOTH",
"0 100 OFFCURVE",
"7 94 OFFCURVE",
"16 77 CURVE",
"43 31 OFFCURVE",
"62 0 OFFCURVE",
"125 0 CURVE SMOOTH",
"212 0 OFFCURVE",
"272 204 OFFCURVE",
"322 204 CURVE SMOOTH",
"362 204 OFFCURVE",
"458 141 OFFCURVE",
"506 125 CURVE SMOOTH",
"597 94 OFFCURVE",
"696 78 OFFCURVE",
"792 78 CURVE SMOOTH",
"944 78 OFFCURVE",
"1095 118 OFFCURVE",
"1230 186 CURVE SMOOTH",
"1508 324 OFFCURVE",
"1708 526 OFFCURVE",
"1772 837 CURVE SMOOTH",
"1785 901 OFFCURVE",
"1792 966 OFFCURVE",
"1792 1030 CURVE SMOOTH"
);
}
);
width = 1792;
}
);
unicode = F06C;
},
{
glyphname = fire;
layers = (
{
layerId = "7AA7152B-8BA7-42A8-974E-3097BEDBB58A";
name = Regular;
paths = (
{
closed = 1;
nodes = (
"1408 -160 LINE SMOOTH",
"1408 -143 OFFCURVE",
"1393 -128 OFFCURVE",
"1376 -128 CURVE SMOOTH",
"32 -128 LINE SMOOTH",
"15 -128 OFFCURVE",
"0 -143 OFFCURVE",
"0 -160 CURVE SMOOTH",
"0 -224 LINE SMOOTH",
"0 -241 OFFCURVE",
"15 -256 OFFCURVE",
"32 -256 CURVE SMOOTH",
"1376 -256 LINE SMOOTH",
"1393 -256 OFFCURVE",
"1408 -241 OFFCURVE",
"1408 -224 CURVE SMOOTH"
);
},
{
closed = 1;
nodes = (
"1152 1234 OFFCURVE",
"916 1409 OFFCURVE",
"640 1536 CURVE",
"641 1535 LINE",
"638 1536 LINE",
"669 1475 OFFCURVE",
"704 1382 OFFCURVE",
"704 1312 CURVE SMOOTH",
"704 1057 OFFCURVE",
"256 1023 OFFCURVE",
"256 640 CURVE SMOOTH",
"256 302 OFFCURVE",
"492 127 OFFCURVE",
"768 0 CURVE",
"767 1 LINE",
"771 0 LINE",
"739 61 OFFCURVE",
"704 154 OFFCURVE",
"704 224 CURVE SMOOTH",
"704 479 OFFCURVE",
"1152 513 OFFCURVE",
"1152 896 CURVE SMOOTH"
);
}
);
width = 1408;
}
);
unicode = F06D;
},
{
glyphname = eye_open;
layers = (
{
layerId = "7AA7152B-8BA7-42A8-974E-3097BEDBB58A";
name = Regular;
paths = (
{
closed = 1;
nodes = (
"1493 312 OFFCURVE",
"1217 128 OFFCURVE",
"896 128 CURVE SMOOTH",
"575 128 OFFCURVE",
"299 312 OFFCURVE",
"128 576 CURVE",
"223 723 OFFCURVE",
"353 849 OFFCURVE",
"509 929 CURVE",
"469 861 OFFCURVE",
"448 783 OFFCURVE",
"448 704 CURVE SMOOTH",
"448 457 OFFCURVE",
"649 256 OFFCURVE",
"896 256 CURVE SMOOTH",
"1143 256 OFFCURVE",
"1344 457 OFFCURVE",
"1344 704 CURVE SMOOTH",
"1344 783 OFFCURVE",
"1323 861 OFFCURVE",
"1283 929 CURVE",
"1439 849 OFFCURVE",
"1569 723 OFFCURVE",
"1664 576 CURVE"
);
},
{
closed = 1;
nodes = (
"944 934 OFFCURVE",
"922 912 OFFCURVE",
"896 912 CURVE SMOOTH",
"782 912 OFFCURVE",
"688 818 OFFCURVE",
"688 704 CURVE SMOOTH",
"688 678 OFFCURVE",
"666 656 OFFCURVE",
"640 656 CURVE SMOOTH",
"614 656 OFFCURVE",
"592 678 OFFCURVE",
"592 704 CURVE SMOOTH",
"592 871 OFFCURVE",
"729 1008 OFFCURVE",
"896 1008 CURVE SMOOTH",
"922 1008 OFFCURVE",
"944 986 OFFCURVE",
"944 960 CURVE SMOOTH"
);
},
{
closed = 1;
nodes = (
"1792 601 OFFCURVE",
"1784 624 OFFCURVE",
"1772 645 CURVE SMOOTH",
"1588 947 OFFCURVE",
"1251 1152 OFFCURVE",
"896 1152 CURVE SMOOTH",
"541 1152 OFFCURVE",
"204 947 OFFCURVE",
"20 645 CURVE SMOOTH",
"8 624 OFFCURVE",
"0 601 OFFCURVE",
"0 576 CURVE SMOOTH",
"0 551 OFFCURVE",
"8 528 OFFCURVE",
"20 507 CURVE SMOOTH",
"204 205 OFFCURVE",
"541 0 OFFCURVE",
"896 0 CURVE SMOOTH",
"1251 0 OFFCURVE",
"1588 204 OFFCURVE",
"1772 507 CURVE SMOOTH",
"1784 528 OFFCURVE",
"1792 551 OFFCURVE",
"1792 576 CURVE SMOOTH"
);
}
);
width = 1792;
}
);
unicode = F06E;
},
{
glyphname = eye_close;
layers = (
{
layerId = "7AA7152B-8BA7-42A8-974E-3097BEDBB58A";
name = Regular;
paths = (
{
closed = 1;
nodes = (
"555 201 LINE",
"379 280 OFFCURVE",
"232 415 OFFCURVE",
"128 576 CURVE",
"223 723 OFFCURVE",
"353 849 OFFCURVE",
"509 929 CURVE",
"469 861 OFFCURVE",
"448 783 OFFCURVE",
"448 704 CURVE SMOOTH",
"448 561 OFFCURVE",
"517 426 OFFCURVE",
"633 342 CURVE"
);
},
{
closed = 1;
nodes = (
"944 934 OFFCURVE",
"922 912 OFFCURVE",
"896 912 CURVE SMOOTH",
"782 912 OFFCURVE",
"688 819 OFFCURVE",
"688 704 CURVE SMOOTH",
"688 678 OFFCURVE",
"666 656 OFFCURVE",
"640 656 CURVE SMOOTH",
"614 656 OFFCURVE",
"592 678 OFFCURVE",
"592 704 CURVE SMOOTH",
"592 871 OFFCURVE",
"729 1008 OFFCURVE",
"896 1008 CURVE SMOOTH",
"922 1008 OFFCURVE",
"944 986 OFFCURVE",
"944 960 CURVE SMOOTH"
);
},
{
closed = 1;
nodes = (
"1307 1162 OFFCURVE",
"1301 1172 OFFCURVE",
"1291 1178 CURVE SMOOTH",
"1270 1190 OFFCURVE",
"1176 1248 OFFCURVE",
"1158 1248 CURVE SMOOTH",
"1146 1248 OFFCURVE",
"1136 1242 OFFCURVE",
"1130 1232 CURVE SMOOTH",
"1076 1135 LINE",
"1017 1146 OFFCURVE",
"956 1152 OFFCURVE",
"896 1152 CURVE SMOOTH",
"527 1152 OFFCURVE",
"218 949 OFFCURVE",
"20 645 CURVE SMOOTH",
"7 625 OFFCURVE",
"0 600 OFFCURVE",
"0 576 CURVE SMOOTH",
"0 551 OFFCURVE",
"7 527 OFFCURVE",
"20 507 CURVE SMOOTH",
"135 327 OFFCURVE",
"298 177 OFFCURVE",
"492 89 CURVE",
"482 72 OFFCURVE",
"448 18 OFFCURVE",
"448 2 CURVE SMOOTH",
"448 -10 OFFCURVE",
"454 -20 OFFCURVE",
"464 -26 CURVE SMOOTH",
"485 -38 OFFCURVE",
"580 -96 OFFCURVE",
"598 -96 CURVE SMOOTH",
"609 -96 OFFCURVE",
"620 -90 OFFCURVE",
"626 -80 CURVE",
"675 9 LINE SMOOTH",
"886 386 OFFCURVE",
"1095 765 OFFCURVE",
"1306 1142 CURVE",
"1307 1144 OFFCURVE",
"1307 1149 OFFCURVE",
"1307 1151 CURVE SMOOTH"
);
},
{
closed = 1;
nodes = (
"1344 732 OFFCURVE",
"1341 760 OFFCURVE",
"1336 788 CURVE",
"1056 286 LINE",
"1229 352 OFFCURVE",
"1344 518 OFFCURVE",
"1344 704 CURVE SMOOTH"
);
},
{
closed = 1;
nodes = (
"1792 602 OFFCURVE",
"1785 623 OFFCURVE",
"1772 645 CURVE SMOOTH",
"1694 774 OFFCURVE",
"1569 899 OFFCURVE",
"1445 982 CURVE",
"1382 870 LINE",
"1495 792 OFFCURVE",
"1590 691 OFFCURVE",
"1664 576 CURVE",
"1508 334 OFFCURVE",
"1261 157 OFFCURVE",
"970 132 CURVE",
"896 0 LINE",
"1197 0 OFFCURVE",
"1467 137 OFFCURVE",
"1663 362 CURVE SMOOTH",
"1702 407 OFFCURVE",
"1741 456 OFFCURVE",
"1772 507 CURVE SMOOTH",
"1785 529 OFFCURVE",
"1792 550 OFFCURVE",
"1792 576 CURVE SMOOTH"
);
}
);
width = 1792;
}
);
unicode = F070;
},
{
glyphname = warning_sign;
layers = (
{
layerId = "7AA7152B-8BA7-42A8-974E-3097BEDBB58A";
name = Regular;
paths = (
{
closed = 1;
nodes = (
"1024 143 OFFCURVE",
"1010 128 OFFCURVE",
"992 128 CURVE SMOOTH",
"800 128 LINE SMOOTH",
"782 128 OFFCURVE",
"768 143 OFFCURVE",
"768 161 CURVE SMOOTH",
"768 351 LINE SMOOTH",
"768 369 OFFCURVE",
"782 384 OFFCURVE",
"800 384 CURVE SMOOTH",
"992 384 LINE SMOOTH",
"1010 384 OFFCURVE",
"1024 369 OFFCURVE",
"1024 351 CURVE SMOOTH",
"1024 161 LINE SMOOTH"
);
},
{
closed = 1;
nodes = (
"1022 535 LINE",
"1021 522 OFFCURVE",
"1006 512 OFFCURVE",
"988 512 CURVE SMOOTH",
"803 512 LINE SMOOTH",
"784 512 OFFCURVE",
"769 522 OFFCURVE",
"769 535 CURVE",
"752 992 LINE",
"752 998 OFFCURVE",
"755 1008 OFFCURVE",
"762 1013 CURVE",
"768 1018 OFFCURVE",
"777 1024 OFFCURVE",
"786 1024 CURVE SMOOTH",
"1006 1024 LINE SMOOTH",
"1015 1024 OFFCURVE",
"1024 1018 OFFCURVE",
"1030 1013 CURVE",
"1037 1008 OFFCURVE",
"1040 1000 OFFCURVE",
"1040 994 CURVE"
);
},
{
closed = 1;
nodes = (
"1008 1469 LINE SMOOTH",
"986 1510 OFFCURVE",
"943 1536 OFFCURVE",
"896 1536 CURVE SMOOTH",
"849 1536 OFFCURVE",
"806 1510 OFFCURVE",
"784 1469 CURVE SMOOTH",
"16 61 LINE SMOOTH",
"-6 22 OFFCURVE",
"-5 -26 OFFCURVE",
"18 -65 CURVE SMOOTH",
"41 -104 OFFCURVE",
"83 -128 OFFCURVE",
"128 -128 CURVE SMOOTH",
"1664 -128 LINE SMOOTH",
"1709 -128 OFFCURVE",
"1751 -104 OFFCURVE",
"1774 -65 CURVE SMOOTH",
"1797 -26 OFFCURVE",
"1798 22 OFFCURVE",
"1776 61 CURVE SMOOTH"
);
}
);
width = 1792;
}
);
unicode = F071;
},
{
glyphname = plane;
layers = (
{
layerId = "7AA7152B-8BA7-42A8-974E-3097BEDBB58A";
name = Regular;
paths = (
{
closed = 1;
nodes = (
"1312 1440 OFFCURVE",
"1152 1376 OFFCURVE",
"1056 1280 CURVE SMOOTH",
"896 1120 LINE",
"231 1279 LINE",
"221 1282 OFFCURVE",
"209 1278 OFFCURVE",
"201 1271 CURVE",
"73 1143 LINE SMOOTH",
"66 1136 OFFCURVE",
"63 1125 OFFCURVE",
"64 1116 CURVE",
"66 1106 OFFCURVE",
"72 1097 OFFCURVE",
"81 1092 CURVE SMOOTH",
"589 813 LINE",
"330 554 LINE",
"136 607 LINE",
"134 608 OFFCURVE",
"131 608 OFFCURVE",
"128 608 CURVE SMOOTH",
"120 608 OFFCURVE",
"111 605 OFFCURVE",
"105 599 CURVE SMOOTH",
"9 502 LINE",
"3 495 OFFCURVE",
"-1 486 OFFCURVE",
"0 477 CURVE SMOOTH",
"1 468 OFFCURVE",
"5 459 OFFCURVE",
"13 454 CURVE",
"265 265 LINE",
"454 13 LINE SMOOTH",
"460 5 OFFCURVE",
"468 1 OFFCURVE",
"478 0 CURVE",
"479 0 OFFCURVE",
"479 0 OFFCURVE",
"480 0 CURVE SMOOTH",
"488 0 OFFCURVE",
"497 3 OFFCURVE",
"503 9 CURVE SMOOTH",
"599 105 LINE",
"607 114 OFFCURVE",
"610 125 OFFCURVE",
"607 136 CURVE SMOOTH",
"554 330 LINE",
"813 589 LINE",
"1092 81 LINE",
"1096 72 OFFCURVE",
"1104 67 OFFCURVE",
"1113 65 CURVE",
"1116 64 OFFCURVE",
"1118 64 OFFCURVE",
"1120 64 CURVE SMOOTH",
"1127 64 OFFCURVE",
"1134 66 OFFCURVE",
"1139 70 CURVE SMOOTH",
"1267 166 LINE SMOOTH",
"1277 174 OFFCURVE",
"1282 187 OFFCURVE",
"1279 199 CURVE SMOOTH",
"1119 895 LINE",
"1280 1056 LINE SMOOTH",
"1376 1152 OFFCURVE",
"1440 1312 OFFCURVE",
"1376 1376 CURVE SMOOTH"
);
}
);
width = 1408;
}
);
unicode = F072;
},
{
glyphname = calendar;
layers = (
{
layerId = "7AA7152B-8BA7-42A8-974E-3097BEDBB58A";
name = Regular;
paths = (
{
closed = 1;
nodes = (
"128 -128 LINE",
"128 160 LINE",
"416 160 LINE",
"416 -128 LINE"
);
},
{
closed = 1;
nodes = (
"480 -128 LINE",
"480 160 LINE",
"800 160 LINE",
"800 -128 LINE"
);
},
{
closed = 1;
nodes = (
"128 224 LINE",
"128 544 LINE",
"416 544 LINE",
"416 224 LINE"
);
},
{
closed = 1;
nodes = (
"480 224 LINE",
"480 544 LINE",
"800 544 LINE",
"800 224 LINE"
);
},
{
closed = 1;
nodes = (
"128 608 LINE",
"128 896 LINE",
"416 896 LINE",
"416 608 LINE"
);
},
{
closed = 1;
nodes = (
"864 -128 LINE",
"864 160 LINE",
"1184 160 LINE",
"1184 -128 LINE"
);
},
{
closed = 1;
nodes = (
"480 608 LINE",
"480 896 LINE",
"800 896 LINE",
"800 608 LINE"
);
},
{
closed = 1;
nodes = (
"1248 -128 LINE",
"1248 160 LINE",
"1536 160 LINE",
"1536 -128 LINE"
);
},
{
closed = 1;
nodes = (
"864 224 LINE",
"864 544 LINE",
"1184 544 LINE",
"1184 224 LINE"
);
},
{
closed = 1;
nodes = (
"512 1071 OFFCURVE",
"497 1056 OFFCURVE",
"480 1056 CURVE SMOOTH",
"416 1056 LINE SMOOTH",
"399 1056 OFFCURVE",
"384 1071 OFFCURVE",
"384 1088 CURVE SMOOTH",
"384 1376 LINE SMOOTH",
"384 1393 OFFCURVE",
"399 1408 OFFCURVE",
"416 1408 CURVE SMOOTH",
"480 1408 LINE SMOOTH",
"497 1408 OFFCURVE",
"512 1393 OFFCURVE",
"512 1376 CURVE SMOOTH",
"512 1088 LINE SMOOTH"
);
},
{
closed = 1;
nodes = (
"1248 224 LINE",
"1248 544 LINE",
"1536 544 LINE",
"1536 224 LINE"
);
},
{
closed = 1;
nodes = (
"864 608 LINE",
"864 896 LINE",
"1184 896 LINE",
"1184 608 LINE"
);
},
{
closed = 1;
nodes = (
"1248 608 LINE",
"1248 896 LINE",
"1536 896 LINE",
"1536 608 LINE"
);
},
{
closed = 1;
nodes = (
"1280 1071 OFFCURVE",
"1265 1056 OFFCURVE",
"1248 1056 CURVE SMOOTH",
"1184 1056 LINE SMOOTH",
"1167 1056 OFFCURVE",
"1152 1071 OFFCURVE",
"1152 1088 CURVE SMOOTH",
"1152 1376 LINE SMOOTH",
"1152 1393 OFFCURVE",
"1167 1408 OFFCURVE",
"1184 1408 CURVE SMOOTH",
"1248 1408 LINE SMOOTH",
"1265 1408 OFFCURVE",
"1280 1393 OFFCURVE",
"1280 1376 CURVE SMOOTH",
"1280 1088 LINE SMOOTH"
);
},
{
closed = 1;
nodes = (
"1664 1152 LINE SMOOTH",
"1664 1222 OFFCURVE",
"1606 1280 OFFCURVE",
"1536 1280 CURVE SMOOTH",
"1408 1280 LINE",
"1408 1376 LINE SMOOTH",
"1408 1464 OFFCURVE",
"1336 1536 OFFCURVE",
"1248 1536 CURVE SMOOTH",
"1184 1536 LINE SMOOTH",
"1096 1536 OFFCURVE",
"1024 1464 OFFCURVE",
"1024 1376 CURVE SMOOTH",
"1024 1280 LINE",
"640 1280 LINE",
"640 1376 LINE SMOOTH",
"640 1464 OFFCURVE",
"568 1536 OFFCURVE",
"480 1536 CURVE SMOOTH",
"416 1536 LINE SMOOTH",
"328 1536 OFFCURVE",
"256 1464 OFFCURVE",
"256 1376 CURVE SMOOTH",
"256 1280 LINE",
"128 1280 LINE SMOOTH",
"58 1280 OFFCURVE",
"0 1222 OFFCURVE",
"0 1152 CURVE SMOOTH",
"0 -128 LINE SMOOTH",
"0 -198 OFFCURVE",
"58 -256 OFFCURVE",
"128 -256 CURVE SMOOTH",
"1536 -256 LINE SMOOTH",
"1606 -256 OFFCURVE",
"1664 -198 OFFCURVE",
"1664 -128 CURVE SMOOTH"
);
}
);
width = 1664;
}
);
unicode = F073;
},
{
glyphname = random;
layers = (
{
layerId = "7AA7152B-8BA7-42A8-974E-3097BEDBB58A";
name = Regular;
paths = (
{
closed = 1;
nodes = (
"565 1197 OFFCURVE",
"434 1280 OFFCURVE",
"256 1280 CURVE SMOOTH",
"32 1280 LINE SMOOTH",
"14 1280 OFFCURVE",
"0 1266 OFFCURVE",
"0 1248 CURVE SMOOTH",
"0 1056 LINE SMOOTH",
"0 1038 OFFCURVE",
"14 1024 OFFCURVE",
"32 1024 CURVE SMOOTH",
"256 1024 LINE SMOOTH",
"407 1024 OFFCURVE",
"471 903 OFFCURVE",
"529 782 CURVE",
"569 876 OFFCURVE",
"610 969 OFFCURVE",
"666 1055 CURVE"
);
},
{
closed = 1;
nodes = (
"1792 264 OFFCURVE",
"1789 273 OFFCURVE",
"1783 279 CURVE SMOOTH",
"1464 598 LINE",
"1457 604 OFFCURVE",
"1449 608 OFFCURVE",
"1440 608 CURVE SMOOTH",
"1422 608 OFFCURVE",
"1408 594 OFFCURVE",
"1408 576 CURVE SMOOTH",
"1408 384 LINE",
"1152 384 LINE SMOOTH",
"1001 384 OFFCURVE",
"937 505 OFFCURVE",
"879 626 CURVE",
"839 532 OFFCURVE",
"798 439 OFFCURVE",
"743 353 CURVE",
"928 93 OFFCURVE",
"1111 128 OFFCURVE",
"1408 128 CURVE",
"1408 -64 LINE SMOOTH",
"1408 -81 OFFCURVE",
"1423 -96 OFFCURVE",
"1440 -96 CURVE SMOOTH",
"1448 -96 OFFCURVE",
"1457 -93 OFFCURVE",
"1463 -87 CURVE SMOOTH",
"1783 233 LINE SMOOTH",
"1789 239 OFFCURVE",
"1792 248 OFFCURVE",
"1792 256 CURVE SMOOTH"
);
},
{
closed = 1;
nodes = (
"1792 1160 OFFCURVE",
"1789 1169 OFFCURVE",
"1783 1175 CURVE SMOOTH",
"1464 1494 LINE",
"1457 1500 OFFCURVE",
"1449 1504 OFFCURVE",
"1440 1504 CURVE SMOOTH",
"1422 1504 OFFCURVE",
"1408 1490 OFFCURVE",
"1408 1472 CURVE SMOOTH",
"1408 1280 LINE",
"1152 1280 LINE SMOOTH",
"827 1280 OFFCURVE",
"697 1012 OFFCURVE",
"586 754 CURVE SMOOTH",
"562 697 OFFCURVE",
"537 639 OFFCURVE",
"508 583 CURVE SMOOTH",
"452 475 OFFCURVE",
"389 384 OFFCURVE",
"256 384 CURVE SMOOTH",
"32 384 LINE SMOOTH",
"14 384 OFFCURVE",
"0 370 OFFCURVE",
"0 352 CURVE SMOOTH",
"0 160 LINE SMOOTH",
"0 142 OFFCURVE",
"14 128 OFFCURVE",
"32 128 CURVE SMOOTH",
"256 128 LINE SMOOTH",
"581 128 OFFCURVE",
"711 396 OFFCURVE",
"822 654 CURVE SMOOTH",
"846 711 OFFCURVE",
"871 769 OFFCURVE",
"900 825 CURVE SMOOTH",
"956 933 OFFCURVE",
"1019 1024 OFFCURVE",
"1152 1024 CURVE SMOOTH",
"1408 1024 LINE",
"1408 832 LINE SMOOTH",
"1408 814 OFFCURVE",
"1423 800 OFFCURVE",
"1440 800 CURVE SMOOTH",
"1448 800 OFFCURVE",
"1457 803 OFFCURVE",
"1463 809 CURVE SMOOTH",
"1783 1129 LINE SMOOTH",
"1789 1135 OFFCURVE",
"1792 1144 OFFCURVE",
"1792 1152 CURVE SMOOTH"
);
}
);
width = 1792;
}
);
unicode = F074;
},
{
glyphname = comment;
layers = (
{
layerId = "7AA7152B-8BA7-42A8-974E-3097BEDBB58A";
name = Regular;
paths = (
{
closed = 1;
nodes = (
"1792 994 OFFCURVE",
"1391 1280 OFFCURVE",
"896 1280 CURVE SMOOTH",
"401 1280 OFFCURVE",
"0 993 OFFCURVE",
"0 640 CURVE SMOOTH",
"0 437 OFFCURVE",
"132 256 OFFCURVE",
"338 139 CURVE",
"291 -28 OFFCURVE",
"219 -88 OFFCURVE",
"156 -159 CURVE SMOOTH",
"141 -177 OFFCURVE",
"124 -192 OFFCURVE",
"129 -217 CURVE",
"129 -217 OFFCURVE",
"129 -217 OFFCURVE",
"129 -218 CURVE",
"134 -242 OFFCURVE",
"155 -258 OFFCURVE",
"177 -256 CURVE",
"216 -251 OFFCURVE",
"255 -244 OFFCURVE",
"291 -234 CURVE SMOOTH",
"464 -190 OFFCURVE",
"620 -108 OFFCURVE",
"751 8 CURVE",
"798 3 OFFCURVE",
"847 0 OFFCURVE",
"896 0 CURVE SMOOTH",
"1391 0 OFFCURVE",
"1792 286 OFFCURVE",
"1792 640 CURVE SMOOTH"
);
}
);
width = 1792;
}
);
unicode = F075;
},
{
glyphname = magnet;
layers = (
{
layerId = "7AA7152B-8BA7-42A8-974E-3097BEDBB58A";
name = Regular;
paths = (
{
closed = 1;
nodes = (
"1536 704 LINE SMOOTH",
"1536 739 OFFCURVE",
"1507 768 OFFCURVE",
"1472 768 CURVE SMOOTH",
"1088 768 LINE SMOOTH",
"1053 768 OFFCURVE",
"1024 739 OFFCURVE",
"1024 704 CURVE SMOOTH",
"1024 576 LINE SMOOTH",
"1024 393 OFFCURVE",
"811 384 OFFCURVE",
"768 384 CURVE SMOOTH",
"725 384 OFFCURVE",
"512 393 OFFCURVE",
"512 576 CURVE SMOOTH",
"512 704 LINE SMOOTH",
"512 739 OFFCURVE",
"483 768 OFFCURVE",
"448 768 CURVE SMOOTH",
"64 768 LINE SMOOTH",
"29 768 OFFCURVE",
"0 739 OFFCURVE",
"0 704 CURVE SMOOTH",
"0 576 LINE SMOOTH",
"0 168 OFFCURVE",
"323 -128 OFFCURVE",
"768 -128 CURVE SMOOTH",
"1213 -128 OFFCURVE",
"1536 168 OFFCURVE",
"1536 576 CURVE SMOOTH"
);
},
{
closed = 1;
nodes = (
"512 1344 LINE SMOOTH",
"512 1379 OFFCURVE",
"483 1408 OFFCURVE",
"448 1408 CURVE SMOOTH",
"64 1408 LINE SMOOTH",
"29 1408 OFFCURVE",
"0 1379 OFFCURVE",
"0 1344 CURVE SMOOTH",
"0 960 LINE SMOOTH",
"0 925 OFFCURVE",
"29 896 OFFCURVE",
"64 896 CURVE SMOOTH",
"448 896 LINE SMOOTH",
"483 896 OFFCURVE",
"512 925 OFFCURVE",
"512 960 CURVE SMOOTH"
);
},
{
closed = 1;
nodes = (
"1536 1344 LINE SMOOTH",
"1536 1379 OFFCURVE",
"1507 1408 OFFCURVE",
"1472 1408 CURVE SMOOTH",
"1088 1408 LINE SMOOTH",
"1053 1408 OFFCURVE",
"1024 1379 OFFCURVE",
"1024 1344 CURVE SMOOTH",
"1024 960 LINE SMOOTH",
"1024 925 OFFCURVE",
"1053 896 OFFCURVE",
"1088 896 CURVE SMOOTH",
"1472 896 LINE SMOOTH",
"1507 896 OFFCURVE",
"1536 925 OFFCURVE",
"1536 960 CURVE SMOOTH"
);
}
);
width = 1536;
}
);
unicode = F076;
},
{
glyphname = chevron_up;
layers = (
{
layerId = "7AA7152B-8BA7-42A8-974E-3097BEDBB58A";
name = Regular;
paths = (
{
closed = 1;
nodes = (
"1708 230 OFFCURVE",
"1708 271 OFFCURVE",
"1683 296 CURVE SMOOTH",
"941 1037 LINE SMOOTH",
"916 1062 OFFCURVE",
"876 1062 OFFCURVE",
"851 1037 CURVE SMOOTH",
"109 296 LINE SMOOTH",
"84 271 OFFCURVE",
"84 230 OFFCURVE",
"109 205 CURVE SMOOTH",
"275 40 LINE SMOOTH",
"300 15 OFFCURVE",
"340 15 OFFCURVE",
"365 40 CURVE SMOOTH",
"896 571 LINE",
"1427 40 LINE SMOOTH",
"1452 15 OFFCURVE",
"1492 15 OFFCURVE",
"1517 40 CURVE SMOOTH",
"1683 205 LINE SMOOTH"
);
}
);
width = 1792;
}
);
unicode = F077;
},
{
glyphname = chevron_down;
layers = (
{
layerId = "7AA7152B-8BA7-42A8-974E-3097BEDBB58A";
name = Regular;
paths = (
{
closed = 1;
nodes = (
"1708 753 OFFCURVE",
"1708 794 OFFCURVE",
"1683 819 CURVE SMOOTH",
"1517 984 LINE SMOOTH",
"1492 1009 OFFCURVE",
"1452 1009 OFFCURVE",
"1427 984 CURVE SMOOTH",
"896 453 LINE",
"365 984 LINE SMOOTH",
"340 1009 OFFCURVE",
"300 1009 OFFCURVE",
"275 984 CURVE SMOOTH",
"109 819 LINE SMOOTH",
"84 794 OFFCURVE",
"84 753 OFFCURVE",
"109 728 CURVE SMOOTH",
"851 -13 LINE SMOOTH",
"876 -38 OFFCURVE",
"916 -38 OFFCURVE",
"941 -13 CURVE SMOOTH",
"1683 728 LINE SMOOTH"
);
}
);
width = 1792;
}
);
unicode = F078;
},
{
glyphname = retweet;
layers = (
{
layerId = "7AA7152B-8BA7-42A8-974E-3097BEDBB58A";
name = Regular;
paths = (
{
closed = 1;
nodes = (
"1280 39 OFFCURVE",
"1277 47 OFFCURVE",
"1273 53 CURVE",
"1113 245 LINE SMOOTH",
"1107 252 OFFCURVE",
"1097 256 OFFCURVE",
"1088 256 CURVE SMOOTH",
"512 256 LINE",
"512 640 LINE",
"704 640 LINE SMOOTH",
"739 640 OFFCURVE",
"768 669 OFFCURVE",
"768 704 CURVE SMOOTH",
"768 719 OFFCURVE",
"763 734 OFFCURVE",
"753 745 CURVE",
"433 1129 LINE SMOOTH",
"421 1143 OFFCURVE",
"403 1151 OFFCURVE",
"384 1151 CURVE SMOOTH",
"365 1151 OFFCURVE",
"347 1143 OFFCURVE",
"335 1129 CURVE SMOOTH",
"15 745 LINE",
"5 734 OFFCURVE",
"0 719 OFFCURVE",
"0 704 CURVE SMOOTH",
"0 669 OFFCURVE",
"29 640 OFFCURVE",
"64 640 CURVE SMOOTH",
"256 640 LINE",
"256 224 LINE",
"256 64 LINE SMOOTH",
"256 39 OFFCURVE",
"251 0 OFFCURVE",
"288 0 CURVE SMOOTH",
"1248 0 LINE SMOOTH",
"1265 0 OFFCURVE",
"1280 15 OFFCURVE",
"1280 32 CURVE SMOOTH"
);
},
{
closed = 1;
nodes = (
"1920 483 OFFCURVE",
"1891 512 OFFCURVE",
"1856 512 CURVE SMOOTH",
"1664 512 LINE",
"1664 928 LINE",
"1664 1088 LINE SMOOTH",
"1664 1113 OFFCURVE",
"1669 1152 OFFCURVE",
"1632 1152 CURVE SMOOTH",
"672 1152 LINE SMOOTH",
"655 1152 OFFCURVE",
"640 1137 OFFCURVE",
"640 1120 CURVE SMOOTH",
"640 1113 OFFCURVE",
"643 1105 OFFCURVE",
"647 1100 CURVE SMOOTH",
"807 908 LINE",
"813 900 OFFCURVE",
"823 896 OFFCURVE",
"832 896 CURVE SMOOTH",
"1408 896 LINE",
"1408 512 LINE",
"1216 512 LINE SMOOTH",
"1181 512 OFFCURVE",
"1152 483 OFFCURVE",
"1152 448 CURVE SMOOTH",
"1152 433 OFFCURVE",
"1157 418 OFFCURVE",
"1167 407 CURVE",
"1487 23 LINE SMOOTH",
"1499 9 OFFCURVE",
"1517 0 OFFCURVE",
"1536 0 CURVE SMOOTH",
"1555 0 OFFCURVE",
"1573 9 OFFCURVE",
"1585 23 CURVE SMOOTH",
"1905 407 LINE",
"1915 418 OFFCURVE",
"1920 433 OFFCURVE",
"1920 448 CURVE SMOOTH"
);
}
);
width = 1920;
}
);
unicode = F079;
},
{
glyphname = shopping_cart;
layers = (
{
layerId = "7AA7152B-8BA7-42A8-974E-3097BEDBB58A";
name = Regular;
paths = (
{
closed = 1;
nodes = (
"640 70 OFFCURVE",
"582 128 OFFCURVE",
"512 128 CURVE SMOOTH",
"442 128 OFFCURVE",
"384 70 OFFCURVE",
"384 0 CURVE SMOOTH",
"384 -70 OFFCURVE",
"442 -128 OFFCURVE",
"512 -128 CURVE SMOOTH",
"582 -128 OFFCURVE",
"640 -70 OFFCURVE",
"640 0 CURVE SMOOTH"
);
},
{
closed = 1;
nodes = (
"1536 70 OFFCURVE",
"1478 128 OFFCURVE",
"1408 128 CURVE SMOOTH",
"1338 128 OFFCURVE",
"1280 70 OFFCURVE",
"1280 0 CURVE SMOOTH",
"1280 -70 OFFCURVE",
"1338 -128 OFFCURVE",
"1408 -128 CURVE SMOOTH",
"1478 -128 OFFCURVE",
"1536 -70 OFFCURVE",
"1536 0 CURVE SMOOTH"
);
},
{
closed = 1;
nodes = (
"1664 1088 LINE SMOOTH",
"1664 1123 OFFCURVE",
"1635 1152 OFFCURVE",
"1600 1152 CURVE SMOOTH",
"399 1152 LINE",
"389 1200 OFFCURVE",
"387 1280 OFFCURVE",
"320 1280 CURVE SMOOTH",
"64 1280 LINE SMOOTH",
"29 1280 OFFCURVE",
"0 1251 OFFCURVE",
"0 1216 CURVE SMOOTH",
"0 1181 OFFCURVE",
"29 1152 OFFCURVE",
"64 1152 CURVE SMOOTH",
"268 1152 LINE",
"445 329 LINE",
"429 298 OFFCURVE",
"384 223 OFFCURVE",
"384 192 CURVE SMOOTH",
"384 157 OFFCURVE",
"413 128 OFFCURVE",
"448 128 CURVE SMOOTH",
"1472 128 LINE SMOOTH",
"1507 128 OFFCURVE",
"1536 157 OFFCURVE",
"1536 192 CURVE SMOOTH",
"1536 227 OFFCURVE",
"1507 256 OFFCURVE",
"1472 256 CURVE SMOOTH",
"552 256 LINE",
"562 276 OFFCURVE",
"576 297 OFFCURVE",
"576 320 CURVE SMOOTH",
"576 344 OFFCURVE",
"568 367 OFFCURVE",
"563 390 CURVE",
"1607 512 LINE SMOOTH",
"1639 516 OFFCURVE",
"1664 544 OFFCURVE",
"1664 576 CURVE SMOOTH"
);
}
);
width = 1664;
}
);
unicode = F07A;
},
{
glyphname = folder_close;
layers = (
{
layerId = "7AA7152B-8BA7-42A8-974E-3097BEDBB58A";
name = Regular;
paths = (
{
closed = 1;
nodes = (
"1664 928 LINE SMOOTH",
"1664 1051 OFFCURVE",
"1563 1152 OFFCURVE",
"1440 1152 CURVE SMOOTH",
"768 1152 LINE",
"768 1184 LINE SMOOTH",
"768 1307 OFFCURVE",
"667 1408 OFFCURVE",
"544 1408 CURVE SMOOTH",
"224 1408 LINE SMOOTH",
"101 1408 OFFCURVE",
"0 1307 OFFCURVE",
"0 1184 CURVE SMOOTH",
"0 224 LINE SMOOTH",
"0 101 OFFCURVE",
"101 0 OFFCURVE",
"224 0 CURVE SMOOTH",
"1440 0 LINE SMOOTH",
"1563 0 OFFCURVE",
"1664 101 OFFCURVE",
"1664 224 CURVE SMOOTH"
);
}
);
width = 1664;
}
);
unicode = F07B;
},
{
glyphname = folder_open;
layers = (
{
layerId = "7AA7152B-8BA7-42A8-974E-3097BEDBB58A";
name = Regular;
paths = (
{
closed = 1;
nodes = (
"1879 629 OFFCURVE",
"1828 640 OFFCURVE",
"1792 640 CURVE SMOOTH",
"704 640 LINE SMOOTH",
"616 640 OFFCURVE",
"498 586 OFFCURVE",
"440 518 CURVE SMOOTH",
"104 122 LINE SMOOTH",
"88 104 OFFCURVE",
"73 80 OFFCURVE",
"73 56 CURVE SMOOTH",
"73 11 OFFCURVE",
"124 0 OFFCURVE",
"160 0 CURVE SMOOTH",
"1248 0 LINE SMOOTH",
"1336 0 OFFCURVE",
"1454 54 OFFCURVE",
"1512 122 CURVE SMOOTH",
"1848 518 LINE SMOOTH",
"1864 536 OFFCURVE",
"1879 560 OFFCURVE",
"1879 584 CURVE SMOOTH"
);
},
{
closed = 1;
nodes = (
"1536 928 LINE SMOOTH",
"1536 1051 OFFCURVE",
"1435 1152 OFFCURVE",
"1312 1152 CURVE SMOOTH",
"768 1152 LINE",
"768 1184 LINE SMOOTH",
"768 1307 OFFCURVE",
"667 1408 OFFCURVE",
"544 1408 CURVE SMOOTH",
"224 1408 LINE SMOOTH",
"101 1408 OFFCURVE",
"0 1307 OFFCURVE",
"0 1184 CURVE SMOOTH",
"0 224 LINE SMOOTH",
"0 216 OFFCURVE",
"1 207 OFFCURVE",
"1 199 CURVE",
"6 205 LINE",
"343 601 LINE SMOOTH",
"424 697 OFFCURVE",
"579 768 OFFCURVE",
"704 768 CURVE SMOOTH",
"1536 768 LINE"
);
}
);
width = 1920;
}
);
unicode = F07C;
},
{
glyphname = resize_vertical;
layers = (
{
layerId = "7AA7152B-8BA7-42A8-974E-3097BEDBB58A";
name = Regular;
paths = (
{
closed = 1;
nodes = (
"704 1233 OFFCURVE",
"697 1249 OFFCURVE",
"685 1261 CURVE SMOOTH",
"429 1517 LINE SMOOTH",
"417 1529 OFFCURVE",
"401 1536 OFFCURVE",
"384 1536 CURVE SMOOTH",
"367 1536 OFFCURVE",
"351 1529 OFFCURVE",
"339 1517 CURVE SMOOTH",
"83 1261 LINE SMOOTH",
"71 1249 OFFCURVE",
"64 1233 OFFCURVE",
"64 1216 CURVE SMOOTH",
"64 1181 OFFCURVE",
"93 1152 OFFCURVE",
"128 1152 CURVE SMOOTH",
"256 1152 LINE",
"256 128 LINE",
"128 128 LINE SMOOTH",
"93 128 OFFCURVE",
"64 99 OFFCURVE",
"64 64 CURVE SMOOTH",
"64 47 OFFCURVE",
"71 31 OFFCURVE",
"83 19 CURVE SMOOTH",
"339 -237 LINE SMOOTH",
"351 -249 OFFCURVE",
"367 -256 OFFCURVE",
"384 -256 CURVE SMOOTH",
"401 -256 OFFCURVE",
"417 -249 OFFCURVE",
"429 -237 CURVE SMOOTH",
"685 19 LINE SMOOTH",
"697 31 OFFCURVE",
"704 47 OFFCURVE",
"704 64 CURVE SMOOTH",
"704 99 OFFCURVE",
"675 128 OFFCURVE",
"640 128 CURVE SMOOTH",
"512 128 LINE",
"512 1152 LINE",
"640 1152 LINE SMOOTH",
"675 1152 OFFCURVE",
"704 1181 OFFCURVE",
"704 1216 CURVE SMOOTH"
);
}
);
width = 768;
}
);
unicode = F07D;
},
{
glyphname = resize_horizontal;
layers = (
{
layerId = "7AA7152B-8BA7-42A8-974E-3097BEDBB58A";
name = Regular;
paths = (
{
closed = 1;
nodes = (
"1792 657 OFFCURVE",
"1785 673 OFFCURVE",
"1773 685 CURVE SMOOTH",
"1517 941 LINE SMOOTH",
"1505 953 OFFCURVE",
"1489 960 OFFCURVE",
"1472 960 CURVE SMOOTH",
"1437 960 OFFCURVE",
"1408 931 OFFCURVE",
"1408 896 CURVE SMOOTH",
"1408 768 LINE",
"384 768 LINE",
"384 896 LINE SMOOTH",
"384 931 OFFCURVE",
"355 960 OFFCURVE",
"320 960 CURVE SMOOTH",
"303 960 OFFCURVE",
"287 953 OFFCURVE",
"275 941 CURVE SMOOTH",
"19 685 LINE SMOOTH",
"7 673 OFFCURVE",
"0 657 OFFCURVE",
"0 640 CURVE SMOOTH",
"0 623 OFFCURVE",
"7 607 OFFCURVE",
"19 595 CURVE SMOOTH",
"275 339 LINE SMOOTH",
"287 327 OFFCURVE",
"303 320 OFFCURVE",
"320 320 CURVE SMOOTH",
"355 320 OFFCURVE",
"384 349 OFFCURVE",
"384 384 CURVE SMOOTH",
"384 512 LINE",
"1408 512 LINE",
"1408 384 LINE SMOOTH",
"1408 349 OFFCURVE",
"1437 320 OFFCURVE",
"1472 320 CURVE SMOOTH",
"1489 320 OFFCURVE",
"1505 327 OFFCURVE",
"1517 339 CURVE SMOOTH",
"1773 595 LINE SMOOTH",
"1785 607 OFFCURVE",
"1792 623 OFFCURVE",
"1792 640 CURVE SMOOTH"
);
}
);
width = 1792;
}
);
unicode = F07E;
},
{
glyphname = bar_chart;
layers = (
{
layerId = "7AA7152B-8BA7-42A8-974E-3097BEDBB58A";
name = Regular;
paths = (
{
closed = 1;
nodes = (
"640 640 LINE",
"384 640 LINE",
"384 128 LINE",
"640 128 LINE"
);
},
{
closed = 1;
nodes = (
"1024 1152 LINE",
"768 1152 LINE",
"768 128 LINE",
"1024 128 LINE"
);
},
{
closed = 1;
nodes = (
"2048 0 LINE",
"128 0 LINE",
"128 1408 LINE",
"0 1408 LINE",
"0 -128 LINE",
"2048 -128 LINE"
);
},
{
closed = 1;
nodes = (
"1408 896 LINE",
"1152 896 LINE",
"1152 128 LINE",
"1408 128 LINE"
);
},
{
closed = 1;
nodes = (
"1792 1280 LINE",
"1536 1280 LINE",
"1536 128 LINE",
"1792 128 LINE"
);
}
);
width = 2048;
}
);
unicode = F080;
},
{
glyphname = twitter_sign;
layers = (
{
layerId = "7AA7152B-8BA7-42A8-974E-3097BEDBB58A";
name = Regular;
paths = (
{
closed = 1;
nodes = (
"1252 883 OFFCURVE",
"1216 846 OFFCURVE",
"1175 817 CURVE",
"1176 808 OFFCURVE",
"1176 799 OFFCURVE",
"1176 790 CURVE SMOOTH",
"1176 512 OFFCURVE",
"964 192 OFFCURVE",
"578 192 CURVE SMOOTH",
"459 192 OFFCURVE",
"349 227 OFFCURVE",
"256 286 CURVE",
"272 284 OFFCURVE",
"289 283 OFFCURVE",
"306 283 CURVE SMOOTH",
"405 283 OFFCURVE",
"495 317 OFFCURVE",
"567 373 CURVE",
"475 375 OFFCURVE",
"398 436 OFFCURVE",
"371 519 CURVE",
"384 517 OFFCURVE",
"397 515 OFFCURVE",
"410 515 CURVE SMOOTH",
"429 515 OFFCURVE",
"443 518 OFFCURVE",
"461 523 CURVE",
"365 542 OFFCURVE",
"288 627 OFFCURVE",
"288 729 CURVE SMOOTH",
"288 730 OFFCURVE",
"288 731 OFFCURVE",
"288 731 CURVE",
"320 716 OFFCURVE",
"353 706 OFFCURVE",
"388 705 CURVE",
"331 743 OFFCURVE",
"297 807 OFFCURVE",
"297 880 CURVE SMOOTH",
"297 918 OFFCURVE",
"308 955 OFFCURVE",
"326 986 CURVE",
"430 858 OFFCURVE",
"585 775 OFFCURVE",
"760 766 CURVE",
"756 781 OFFCURVE",
"755 798 OFFCURVE",
"755 814 CURVE SMOOTH",
"755 930 OFFCURVE",
"849 1024 OFFCURVE",
"965 1024 CURVE SMOOTH",
"1025 1024 OFFCURVE",
"1080 999 OFFCURVE",
"1118 958 CURVE",
"1166 967 OFFCURVE",
"1211 985 OFFCURVE",
"1252 1009 CURVE",
"1236 960 OFFCURVE",
"1203 918 OFFCURVE",
"1159 892 CURVE",
"1202 898 OFFCURVE",
"1242 909 OFFCURVE",
"1280 926 CURVE"
);
},
{
closed = 1;
nodes = (
"1536 1120 LINE SMOOTH",
"1536 1279 OFFCURVE",
"1407 1408 OFFCURVE",
"1248 1408 CURVE SMOOTH",
"288 1408 LINE SMOOTH",
"129 1408 OFFCURVE",
"0 1279 OFFCURVE",
"0 1120 CURVE SMOOTH",
"0 160 LINE SMOOTH",
"0 1 OFFCURVE",
"129 -128 OFFCURVE",
"288 -128 CURVE SMOOTH",
"1248 -128 LINE SMOOTH",
"1407 -128 OFFCURVE",
"1536 1 OFFCURVE",
"1536 160 CURVE SMOOTH"
);
}
);
width = 1536;
}
);
unicode = F081;
},
{
glyphname = facebook_sign;
layers = (
{
layerId = "7AA7152B-8BA7-42A8-974E-3097BEDBB58A";
name = Regular;
paths = (
{
closed = 1;
nodes = (
"288 1408 LINE SMOOTH",
"129 1408 OFFCURVE",
"0 1279 OFFCURVE",
"0 1120 CURVE SMOOTH",
"0 160 LINE SMOOTH",
"0 1 OFFCURVE",
"129 -128 OFFCURVE",
"288 -128 CURVE SMOOTH",
"820 -128 LINE",
"820 467 LINE",
"620 467 LINE",
"620 699 LINE",
"820 699 LINE",
"820 870 LINE SMOOTH",
"820 1068 OFFCURVE",
"942 1176 OFFCURVE",
"1119 1176 CURVE SMOOTH",
"1203 1176 OFFCURVE",
"1276 1170 OFFCURVE",
"1297 1167 CURVE",
"1297 960 LINE",
"1175 959 LINE SMOOTH",
"1078 959 OFFCURVE",
"1060 914 OFFCURVE",
"1060 847 CURVE SMOOTH",
"1060 699 LINE",
"1289 699 LINE",
"1259 467 LINE",
"1060 467 LINE",
"1060 -128 LINE",
"1248 -128 LINE SMOOTH",
"1407 -128 OFFCURVE",
"1536 1 OFFCURVE",
"1536 160 CURVE SMOOTH",
"1536 1120 LINE SMOOTH",
"1536 1279 OFFCURVE",
"1407 1408 OFFCURVE",
"1248 1408 CURVE SMOOTH"
);
}
);
width = 1536;
}
);
unicode = F082;
},
{
glyphname = camera_retro;
layers = (
{
layerId = "7AA7152B-8BA7-42A8-974E-3097BEDBB58A";
name = Regular;
paths = (
{
closed = 1;
nodes = (
"928 686 OFFCURVE",
"914 672 OFFCURVE",
"896 672 CURVE SMOOTH",
"843 672 OFFCURVE",
"800 629 OFFCURVE",
"800 576 CURVE SMOOTH",
"800 558 OFFCURVE",
"786 544 OFFCURVE",
"768 544 CURVE SMOOTH",
"750 544 OFFCURVE",
"736 558 OFFCURVE",
"736 576 CURVE SMOOTH",
"736 664 OFFCURVE",
"808 736 OFFCURVE",
"896 736 CURVE SMOOTH",
"914 736 OFFCURVE",
"928 722 OFFCURVE",
"928 704 CURVE SMOOTH"
);
},
{
closed = 1;
nodes = (
"1152 715 OFFCURVE",
"1037 830 OFFCURVE",
"896 830 CURVE SMOOTH",
"755 830 OFFCURVE",
"640 715 OFFCURVE",
"640 574 CURVE SMOOTH",
"640 433 OFFCURVE",
"755 318 OFFCURVE",
"896 318 CURVE SMOOTH",
"1037 318 OFFCURVE",
"1152 433 OFFCURVE",
"1152 574 CURVE SMOOTH"
);
},
{
closed = 1;
nodes = (
"128 0 LINE",
"128 128 LINE",
"1664 128 LINE",
"1664 0 LINE"
);
},
{
closed = 1;
nodes = (
"1280 362 OFFCURVE",
"1108 190 OFFCURVE",
"896 190 CURVE SMOOTH",
"684 190 OFFCURVE",
"512 362 OFFCURVE",
"512 574 CURVE SMOOTH",
"512 786 OFFCURVE",
"684 958 OFFCURVE",
"896 958 CURVE SMOOTH",
"1108 958 OFFCURVE",
"1280 786 OFFCURVE",
"1280 574 CURVE SMOOTH"
);
},
{
closed = 1;
nodes = (
"256 1216 LINE",
"256 1344 LINE",
"640 1344 LINE",
"640 1216 LINE"
);
},
{
closed = 1;
nodes = (
"128 1024 LINE",
"128 1152 LINE",
"772 1152 LINE",
"836 1280 LINE",
"1664 1280 LINE",
"1664 1142 LINE",
"1664 1024 LINE"
);
},
{
closed = 1;
nodes = (
"1792 1280 LINE SMOOTH",
"1792 1351 OFFCURVE",
"1735 1408 OFFCURVE",
"1664 1408 CURVE SMOOTH",
"128 1408 LINE SMOOTH",
"57 1408 OFFCURVE",
"0 1351 OFFCURVE",
"0 1280 CURVE SMOOTH",
"0 0 LINE SMOOTH",
"0 -71 OFFCURVE",
"57 -128 OFFCURVE",
"128 -128 CURVE SMOOTH",
"1664 -128 LINE SMOOTH",
"1735 -128 OFFCURVE",
"1792 -71 OFFCURVE",
"1792 0 CURVE SMOOTH"
);
}
);
width = 1792;
}
);
unicode = F083;
},
{
glyphname = key;
layers = (
{
layerId = "7AA7152B-8BA7-42A8-974E-3097BEDBB58A";
name = Regular;
paths = (
{
closed = 1;
nodes = (
"832 918 OFFCURVE",
"746 832 OFFCURVE",
"640 832 CURVE SMOOTH",
"611 832 OFFCURVE",
"583 839 OFFCURVE",
"557 851 CURVE",
"569 825 OFFCURVE",
"576 797 OFFCURVE",
"576 768 CURVE SMOOTH",
"576 662 OFFCURVE",
"490 576 OFFCURVE",
"384 576 CURVE SMOOTH",
"278 576 OFFCURVE",
"192 662 OFFCURVE",
"192 768 CURVE SMOOTH",
"192 874 OFFCURVE",
"278 960 OFFCURVE",
"384 960 CURVE SMOOTH",
"413 960 OFFCURVE",
"441 953 OFFCURVE",
"467 941 CURVE",
"455 967 OFFCURVE",
"448 995 OFFCURVE",
"448 1024 CURVE SMOOTH",
"448 1130 OFFCURVE",
"534 1216 OFFCURVE",
"640 1216 CURVE SMOOTH",
"746 1216 OFFCURVE",
"832 1130 OFFCURVE",
"832 1024 CURVE SMOOTH"
);
},
{
closed = 1;
nodes = (
"1683 349 OFFCURVE",
"1404 612 OFFCURVE",
"1367 649 CURVE SMOOTH",
"1361 655 OFFCURVE",
"1352 659 OFFCURVE",
"1344 659 CURVE SMOOTH",
"1321 659 OFFCURVE",
"1229 567 OFFCURVE",
"1229 544 CURVE SMOOTH",
"1229 518 OFFCURVE",
"1323 437 OFFCURVE",
"1344 416 CURVE",
"1248 320 LINE",
"893 675 LINE",
"971 780 OFFCURVE",
"1024 908 OFFCURVE",
"1024 1040 CURVE SMOOTH",
"1024 1258 OFFCURVE",
"873 1408 OFFCURVE",
"656 1408 CURVE SMOOTH",
"328 1408 OFFCURVE",
"0 1080 OFFCURVE",
"0 752 CURVE SMOOTH",
"0 535 OFFCURVE",
"150 384 OFFCURVE",
"368 384 CURVE SMOOTH",
"500 384 OFFCURVE",
"628 437 OFFCURVE",
"733 515 CURVE",
"1404 -156 LINE SMOOTH",
"1422 -174 OFFCURVE",
"1447 -184 OFFCURVE",
"1472 -184 CURVE SMOOTH",
"1528 -184 OFFCURVE",
"1592 -120 OFFCURVE",
"1592 -64 CURVE SMOOTH",
"1592 -39 OFFCURVE",
"1582 -14 OFFCURVE",
"1564 4 CURVE SMOOTH",
"1344 224 LINE",
"1440 320 LINE",
"1461 299 OFFCURVE",
"1542 205 OFFCURVE",
"1568 205 CURVE SMOOTH",
"1591 205 OFFCURVE",
"1683 297 OFFCURVE",
"1683 320 CURVE SMOOTH"
);
}
);
width = 1792;
}
);
unicode = F084;
},
